# MSMS solvent excluded surface faces for FIA.xyzr
#faces  #sphere density probe_r
   1242       5  2.00  1.00
     1      5      2  3      3
     2      5      4  3      3
     5     37      6  3      5
     6     37     38  3      5
    37     39     38  3      5
    38     39     40  3      5
    39     41     40  3      5
    40     41     42  3      5
    41     43     42  3      5
    42     43     44  3      5
    43     45     44  3      5
    44     45     46  3      5
    45     47     46  3      5
    46     47     48  3      5
    47     49     48  3      5
    48     49     50  3      5
    49     51     50  3      5
    50     51     52  3      5
    51      8     52  3      5
    52      8      7  3      5
     8     11      9  3      7
     9     11     10  3      7
    11     53     12  3      9
    12     53     54  3      9
    53     55     54  3      9
    54     55     56  3      9
    55     57     56  3      9
    56     57     58  3      9
    57     59     58  3      9
    58     59     60  3      9
    59     61     60  3      9
    60     61     62  3      9
    61     63     62  3      9
    62     63     64  3      9
    63     65     64  3      9
    64     65     66  3      9
    65     67     66  3      9
    66     67     68  3      9
    67     14     68  3      9
    68     14     13  3      9
    14     17     15  3     11
    15     17     16  3     11
    17     69     18  3     12
    18     69     70  3     12
    69     71     70  3     12
    70     71     72  3     12
    71     73     72  3     12
    72     73     74  3     12
    73     75     74  3     12
    74     75     76  3     12
    75     77     76  3     12
    76     77     78  3     12
    77     79     78  3     12
    78     79     80  3     12
    79     81     80  3     12
    80     81     82  3     12
    81     83     82  3     12
    82     83     84  3     12
    83      1     84  3     12
    84      1      3  3     12
    18     20     16  3     14
    16     20     19  3     14
    20     85     21  3     16
    21     85     86  3     16
    85     87     86  3     16
    86     87     88  3     16
    87     89     88  3     16
    88     89     90  3     16
    89     91     90  3     16
    90     91     92  3     16
    91     93     92  3     16
    92     93     94  3     16
    93     95     94  3     16
    94     95     96  3     16
    95     97     96  3     16
    96     97     98  3     16
    97     99     98  3     16
    98     99    100  3     16
    99     23    100  3     16
   100     23     22  3     16
    23     26     24  3     18
    24     26     25  3     18
    26    101     27  3     20
    27    101    102  3     20
   101    103    102  3     20
   102    103    104  3     20
   103    105    104  3     20
   104    105    106  3     20
   105    107    106  3     20
   106    107    108  3     20
   107    109    108  3     20
   108    109    110  3     20
   109    111    110  3     20
   110    111    112  3     20
   111    113    112  3     20
   112    113    114  3     20
   113    115    114  3     20
   114    115    116  3     20
   115     29    116  3     20
   116     29     28  3     20
    29      3     30  3     21
    30      3      2  3     21
    30      4     28  3     22
    28      4      6  3     22
    27     32     25  3     24
    25     32     31  3     24
    32    117     33  3     26
    33    117    118  3     26
   117    119    118  3     26
   118    119    120  3     26
   119    121    120  3     26
   120    121    122  3     26
   121    123    122  3     26
   122    123    124  3     26
   123    125    124  3     26
   124    125    126  3     26
   125    127    126  3     26
   126    127    128  3     26
   127    129    128  3     26
   128    129    130  3     26
   129    131    130  3     26
   130    131    132  3     26
   131     35    132  3     26
   132     35     34  3     26
    35      7     36  3     27
    36      7      9  3     27
    36     10     34  3     28
    34     10     12  3     28
    33     22     31  3     29
    31     22     24  3     29
    21     13     19  3     30
    19     13     15  3     30
     3      1      2  2      1
     6      4      5  2      2
     9      7      8  2      4
    12     10     11  2      6
    15     13     14  2      8
    18     16     17  2     10
    21     19     20  2     13
    24     22     23  2     15
    27     25     26  2     17
    30     28     29  2     19
    33     31     32  2     23
    36     34     35  2     25
   133    136    137  1     31
   134    133    137  1     31
   134    137    138  1     31
   135    144    145  1     31
   136    135    145  1     31
   136    145    146  1     31
   137    136    146  1     31
   137    146    147  1     31
   138    137    147  1     31
   138    147    148  1     31
   139    138    148  1     31
   139    148    149  1     31
   140    154    155  1     31
   141    158    159  1     31
   142    162    163  1     31
   143    142    163  1     31
   143    163    164  1     31
   144    143    164  1     31
   144    164    165  1     31
   145    144    165  1     31
   145    165    166  1     31
   146    145    166  1     31
   146    166    167  1     31
   147    146    167  1     31
   147    167    168  1     31
   148    147    168  1     31
   148    168    169  1     31
   149    148    169  1     31
   149    169    170  1     31
   150    149    170  1     31
   150    170    171  1     31
   151    150    171  1     31
   151    171    172  1     31
   152    151    172  1     31
   152    172    173  1     31
   154    153    174  1     31
   154    174    175  1     31
   155    154    175  1     31
   155    175    176  1     31
   156    155    176  1     31
   156    176    177  1     31
   157    182    183  1     31
   158    157    183  1     31
   158    183    184  1     31
   159    158    184  1     31
   159    184    185  1     31
   160    159    185  1     31
   161    160    185  1     31
   161    185    186  1     31
   162    161    186  1     31
   162    186    187  1     31
   163    162    187  1     31
   163    187    188  1     31
   164    163    188  1     31
   164    188    189  1     31
   165    164    189  1     31
   165    189    190  1     31
   166    165    190  1     31
   166    190    191  1     31
   167    166    191  1     31
   167    191    192  1     31
   168    167    192  1     31
   168    192    193  1     31
   169    168    193  1     31
   169    193    194  1     31
   170    169    194  1     31
   170    194    195  1     31
   171    170    195  1     31
   171    195    196  1     31
   172    171    196  1     31
   172    196    197  1     31
   173    172    197  1     31
   174    173    197  1     31
   153    173    174  1     31
   175    174    198  1     31
   175    198    199  1     31
   176    175    199  1     31
   176    199    200  1     31
   177    176    200  1     31
   177    200    201  1     31
   178    177    201  1     31
   178    201    202  1     31
   179    178    202  1     31
   179    202    203  1     31
   180    203    204  1     31
   181    180    204  1     31
   181    204    205  1     31
   182    181    205  1     31
   182    205    206  1     31
   183    182    206  1     31
   183    206    207  1     31
   184    183    207  1     31
   184    207    208  1     31
   185    184    208  1     31
   186    185    208  1     31
   186    208    209  1     31
   187    186    209  1     31
   187    209    210  1     31
   188    187    210  1     31
   188    210    211  1     31
   189    188    211  1     31
   189    211    212  1     31
   190    189    212  1     31
   190    212    213  1     31
   191    190    213  1     31
   191    213    214  1     31
   192    191    214  1     31
   193    192    214  1     31
   193    214    215  1     31
   194    193    215  1     31
   194    215    216  1     31
   195    194    216  1     31
   195    216    217  1     31
   196    195    217  1     31
   196    217    218  1     31
   197    196    218  1     31
   198    197    218  1     31
   174    197    198  1     31
   199    198    219  1     31
   199    219    220  1     31
   200    199    220  1     31
   200    220    221  1     31
   201    200    221  1     31
   201    221    222  1     31
   202    201    222  1     31
   202    222    223  1     31
   203    202    223  1     31
   204    203    223  1     31
   204    223    224  1     31
   205    204    224  1     31
   205    224    225  1     31
   206    205    225  1     31
   206    225    226  1     31
   207    206    226  1     31
   207    226    227  1     31
   208    207    227  1     31
   208    227    228  1     31
   209    208    228  1     31
   210    209    228  1     31
   210    228    229  1     31
   211    210    229  1     31
   211    229    230  1     31
   212    211    230  1     31
   212    230    231  1     31
   213    212    231  1     31
   213    231    232  1     31
   214    213    232  1     31
   215    214    232  1     31
   215    232    233  1     31
   216    215    233  1     31
   216    233    234  1     31
   217    216    234  1     31
   217    234    235  1     31
   218    217    235  1     31
   219    218    235  1     31
   198    218    219  1     31
   220    219    236  1     31
   220    236    237  1     31
   221    220    237  1     31
   221    237    238  1     31
   222    221    238  1     31
   223    222    238  1     31
   223    238    239  1     31
   224    223    239  1     31
   224    239    240  1     31
   225    224    240  1     31
   225    240    241  1     31
   226    225    241  1     31
   227    226    241  1     31
   227    241    242  1     31
   228    227    242  1     31
   228    242    243  1     31
   229    228    243  1     31
   230    229    243  1     31
   230    243    244  1     31
   231    230    244  1     31
   231    244    245  1     31
   232    231    245  1     31
   232    245    246  1     31
   233    232    246  1     31
   234    233    246  1     31
   234    246    247  1     31
   235    234    247  1     31
   236    235    247  1     31
   219    235    236  1     31
   237    236    248  1     31
   237    248    249  1     31
   238    237    249  1     31
   239    238    249  1     31
   239    249    250  1     31
   240    239    250  1     31
   241    240    250  1     31
   241    250    251  1     31
   242    241    251  1     31
   243    242    251  1     31
   243    251    252  1     31
   244    243    252  1     31
   245    244    252  1     31
   245    252    253  1     31
   246    245    253  1     31
   247    246    253  1     31
   248    247    253  1     31
   236    247    248  1     31
   249    248    254  1     31
   250    249    254  1     31
   251    250    254  1     31
   252    251    254  1     31
   253    252    254  1     31
   248    253    254  1     31
   203    180     75  1     31
   203     75    179  1     31
   179     75     73  1     31
   179     73    178  1     31
   178     73     71  1     31
   178     71    177  1     31
   177     71    156  1     31
   156     71     69  1     31
   156     69    140  1     31
   156    140    155  1     31
   140     69     17  1     31
   140     17     14  1     31
   140     14     67  1     31
   140     67    154  1     31
   154     67     65  1     31
   154     65    153  1     31
   153     65     63  1     31
   153     63    173  1     31
   173     63    152  1     31
   152     63     61  1     31
   152     61     59  1     31
   152     59    151  1     31
   151     59     57  1     31
   151     57    150  1     31
   150     57    139  1     31
   150    139    149  1     31
   139     57     55  1     31
   139     55     53  1     31
   139     53    138  1     31
   138     53    134  1     31
   134     53     11  1     31
   134     11      8  1     31
   134      8    133  1     31
   133      8     51  1     31
   133     51     49  1     31
   133     49    136  1     31
   136     49    135  1     31
   135     49     47  1     31
   135     47    144  1     31
   144     47    143  1     31
   143     47     45  1     31
   143     45    142  1     31
   142     45     43  1     31
   142     43     41  1     31
   142     41    162  1     31
   162     41    161  1     31
   161     41     39  1     31
   161     39    160  1     31
   160     39    159  1     31
   159     39     37  1     31
   159     37    141  1     31
   141     37      5  1     31
   141      5      1  1     31
   141      1     83  1     31
   141     83    158  1     31
   158     83    157  1     31
   157     83     81  1     31
   157     81    182  1     31
   182     81    181  1     31
   181     81     79  1     31
   181     79    180  1     31
   180     79     77  1     31
   180     77     75  1     31
     4     30      2  1     32
   255    256    257  1     33
   255    257    258  1     33
   255    258    259  1     33
   255    259    260  1     33
   255    260    261  1     33
   255    261    256  1     33
   257    256    263  1     33
   257    263    264  1     33
   257    264    265  1     33
   258    257    265  1     33
   258    265    266  1     33
   258    266    267  1     33
   259    258    267  1     33
   259    267    268  1     33
   259    268    269  1     33
   260    259    269  1     33
   260    269    270  1     33
   260    270    271  1     33
   261    260    271  1     33
   261    271    272  1     33
   261    272    273  1     33
   256    261    273  1     33
   256    273    262  1     33
   256    262    263  1     33
   264    263    274  1     33
   264    274    275  1     33
   264    275    276  1     33
   265    264    276  1     33
   265    276    277  1     33
   266    265    277  1     33
   266    277    278  1     33
   267    266    278  1     33
   267    278    279  1     33
   267    279    280  1     33
   268    267    280  1     33
   268    280    281  1     33
   269    268    281  1     33
   269    281    282  1     33
   269    282    283  1     33
   270    269    283  1     33
   270    283    284  1     33
   271    270    284  1     33
   271    284    285  1     33
   272    271    285  1     33
   272    285    286  1     33
   272    286    287  1     33
   273    272    287  1     33
   277    276    288  1     33
   277    288    289  1     33
   278    277    289  1     33
   278    289    290  1     33
   279    278    290  1     33
   279    290    291  1     33
   280    279    291  1     33
   280    291    292  1     33
   281    280    292  1     33
   281    292    293  1     33
   281    293    294  1     33
   282    281    294  1     33
   282    294    295  1     33
   283    282    295  1     33
   283    295    296  1     33
   284    283    296  1     33
   284    296    297  1     33
   285    284    297  1     33
   285    297    298  1     33
   285    298    299  1     33
   286    285    299  1     33
   289    288    300  1     33
   289    300    301  1     33
   290    289    301  1     33
   290    301    302  1     33
   291    290    302  1     33
   291    302    303  1     33
   292    291    303  1     33
   292    303    304  1     33
   293    292    304  1     33
   293    304    305  1     33
   293    305    306  1     33
   294    293    306  1     33
   294    306    307  1     33
   295    294    307  1     33
   295    307    308  1     33
   296    295    308  1     33
   296    308    309  1     33
   297    296    309  1     33
   297    309    310  1     33
   298    297    310  1     33
   298    310    311  1     33
   298    311    312  1     33
   299    298    312  1     33
   301    300    313  1     33
   301    313    314  1     33
   302    301    314  1     33
   302    314    315  1     33
   303    302    315  1     33
   303    315    316  1     33
   304    303    316  1     33
   304    316    317  1     33
   304    317    318  1     33
   305    304    318  1     33
   305    318    319  1     33
   306    305    319  1     33
   306    319    320  1     33
   307    306    320  1     33
   307    320    321  1     33
   308    307    321  1     33
   308    321    322  1     33
   309    308    322  1     33
   309    322    323  1     33
   310    309    323  1     33
   310    323    324  1     33
   311    310    324  1     33
   311    324    325  1     33
   312    311    325  1     33
   312    325    326  1     33
   314    313    327  1     33
   314    327    328  1     33
   315    314    328  1     33
   315    328    329  1     33
   316    315    329  1     33
   316    329    330  1     33
   317    316    330  1     33
   317    330    331  1     33
   318    317    331  1     33
   318    331    332  1     33
   319    318    332  1     33
   319    332    333  1     33
   320    319    333  1     33
   320    333    334  1     33
   321    320    334  1     33
   321    334    335  1     33
   322    321    335  1     33
   322    335    336  1     33
   323    322    336  1     33
   323    336    337  1     33
   324    323    337  1     33
   324    337    338  1     33
   325    324    338  1     33
   325    338    339  1     33
   326    325    339  1     33
   326    339    340  1     33
   328    327    341  1     33
   328    341    342  1     33
   329    328    342  1     33
   329    342    343  1     33
   330    329    343  1     33
   330    343    344  1     33
   331    330    344  1     33
   331    344    345  1     33
   332    331    345  1     33
   332    345    346  1     33
   333    332    346  1     33
   333    346    347  1     33
   334    333    347  1     33
   334    347    348  1     33
   335    334    348  1     33
   335    348    349  1     33
   336    335    349  1     33
   336    349    350  1     33
   337    336    350  1     33
   337    350    351  1     33
   338    337    351  1     33
   338    351    352  1     33
   339    338    352  1     33
   339    352    353  1     33
   340    339    353  1     33
   341    354    355  1     33
   342    341    355  1     33
   342    355    356  1     33
   343    342    356  1     33
   343    356    357  1     33
   344    343    357  1     33
   345    344    357  1     33
   345    357    358  1     33
   346    345    358  1     33
   346    358    359  1     33
   347    346    359  1     33
   347    359    360  1     33
   348    347    360  1     33
   348    360    361  1     33
   349    348    361  1     33
   349    361    362  1     33
   350    349    362  1     33
   350    362    363  1     33
   351    350    363  1     33
   351    363    364  1     33
   352    351    364  1     33
   355    354    365  1     33
   355    365    366  1     33
   356    355    366  1     33
   356    366    367  1     33
   357    356    367  1     33
   358    357    367  1     33
   358    367    368  1     33
   359    358    368  1     33
   359    368    369  1     33
   360    359    369  1     33
   360    369    370  1     33
   361    360    370  1     33
   361    370    371  1     33
   362    361    371  1     33
   362    371    372  1     33
   363    362    372  1     33
   366    365    373  1     33
   366    373    374  1     33
   367    366    374  1     33
   367    374    375  1     33
   368    367    375  1     33
   369    368    375  1     33
   369    375    376  1     33
   370    369    376  1     33
   370    376     44  1     33
   370     44     46  1     33
   370     46    371  1     33
   371     46    372  1     33
   372     46     48  1     33
   372     48     50  1     33
   372     50    364  1     33
   372    364    363  1     33
   364     50     52  1     33
   364     52    352  1     33
   352     52    353  1     33
   353     52      7  1     33
   353      7     35  1     33
   353     35    131  1     33
   353    131    340  1     33
   340    131    129  1     33
   340    129    326  1     33
   326    129    127  1     33
   326    127    312  1     33
   312    127    299  1     33
   299    127    125  1     33
   299    125    286  1     33
   286    125    287  1     33
   287    125    123  1     33
   287    123    121  1     33
   287    121    273  1     33
   273    121    262  1     33
   262    121    119  1     33
   262    119    263  1     33
   263    119    117  1     33
   263    117    274  1     33
   274    117     32  1     33
   274     32     27  1     33
   274     27    275  1     33
   275     27    102  1     33
   275    102    276  1     33
   276    102    104  1     33
   276    104    288  1     33
   288    104    106  1     33
   288    106    300  1     33
   300    106    108  1     33
   300    108    313  1     33
   313    108    110  1     33
   313    110    327  1     33
   327    110    112  1     33
   327    112    341  1     33
   341    112    114  1     33
   341    114    354  1     33
   354    114    116  1     33
   354    116    365  1     33
   365    116     28  1     33
   365     28      6  1     33
   365      6    373  1     33
   373      6     38  1     33
   373     38     40  1     33
   373     40    374  1     33
   374     40    375  1     33
   375     40     42  1     33
   375     42    376  1     33
   376     42     44  1     33
    10     36      9  1     34
   377    378    379  1     35
   377    379    380  1     35
   377    380    381  1     35
   377    381    382  1     35
   377    382    383  1     35
   377    383    378  1     35
   379    378    385  1     35
   379    385    386  1     35
   379    386    387  1     35
   380    379    387  1     35
   380    387    388  1     35
   380    388    389  1     35
   381    380    389  1     35
   381    389    390  1     35
   381    390    391  1     35
   382    381    391  1     35
   382    391    392  1     35
   382    392    393  1     35
   383    382    393  1     35
   383    393    394  1     35
   383    394    395  1     35
   378    383    395  1     35
   378    395    384  1     35
   378    384    385  1     35
   385    384    397  1     35
   385    397    398  1     35
   386    385    398  1     35
   386    398    399  1     35
   386    399    400  1     35
   387    386    400  1     35
   387    400    401  1     35
   388    387    401  1     35
   388    401    402  1     35
   389    388    402  1     35
   392    391    403  1     35
   392    403    404  1     35
   393    392    404  1     35
   393    404    405  1     35
   394    393    405  1     35
   394    405    406  1     35
   394    406    407  1     35
   395    394    407  1     35
   395    407    408  1     35
   384    395    408  1     35
   384    408    396  1     35
   384    396    397  1     35
   397    396    410  1     35
   397    410    411  1     35
   398    397    411  1     35
   398    411    412  1     35
   399    398    412  1     35
   399    412    413  1     35
   400    399    413  1     35
   400    413    414  1     35
   404    403    415  1     35
   404    415    416  1     35
   405    404    416  1     35
   405    416    417  1     35
   405    417    418  1     35
   406    405    418  1     35
   406    418    419  1     35
   407    406    419  1     35
   407    419    420  1     35
   408    407    420  1     35
   408    420    421  1     35
   396    408    421  1     35
   396    421    409  1     35
   396    409    410  1     35
   410    409    423  1     35
   410    423    424  1     35
   411    410    424  1     35
   411    424    425  1     35
   412    411    425  1     35
   412    425    426  1     35
   413    412    426  1     35
   413    426    427  1     35
   414    413    427  1     35
   416    415    428  1     35
   416    428    429  1     35
   417    416    429  1     35
   417    429    430  1     35
   417    430    431  1     35
   418    417    431  1     35
   418    431    432  1     35
   419    418    432  1     35
   419    432    433  1     35
   420    419    433  1     35
   420    433    434  1     35
   421    420    434  1     35
   421    434    435  1     35
   409    421    435  1     35
   409    435    422  1     35
   409    422    423  1     35
   423    422    437  1     35
   423    437    438  1     35
   424    423    438  1     35
   424    438    439  1     35
   425    424    439  1     35
   425    439    440  1     35
   426    425    440  1     35
   426    440    441  1     35
   427    426    441  1     35
   429    428    442  1     35
   429    442    443  1     35
   430    429    443  1     35
   430    443    444  1     35
   431    430    444  1     35
   431    444    445  1     35
   432    431    445  1     35
   432    445    446  1     35
   433    432    446  1     35
   433    446    447  1     35
   434    433    447  1     35
   434    447    448  1     35
   435    434    448  1     35
   435    448    449  1     35
   422    435    449  1     35
   422    449    436  1     35
   422    436    437  1     35
   437    436    451  1     35
   437    451    452  1     35
   438    437    452  1     35
   438    452    453  1     35
   439    438    453  1     35
   439    453    454  1     35
   440    439    454  1     35
   442    455    456  1     35
   443    442    456  1     35
   443    456    457  1     35
   444    443    457  1     35
   444    457    458  1     35
   445    444    458  1     35
   445    458    459  1     35
   446    445    459  1     35
   446    459    460  1     35
   447    446    460  1     35
   447    460    461  1     35
   448    447    461  1     35
   448    461    462  1     35
   449    448    462  1     35
   449    462    463  1     35
   436    449    463  1     35
   436    463    450  1     35
   436    450    451  1     35
   451    450    464  1     35
   451    464    465  1     35
   452    451    465  1     35
   452    465    466  1     35
   453    452    466  1     35
   453    466    467  1     35
   454    453    467  1     35
   454    467    468  1     35
   456    455    469  1     35
   456    469    470  1     35
   457    456    470  1     35
   457    470    471  1     35
   458    457    471  1     35
   458    471    472  1     35
   459    458    472  1     35
   459    472    473  1     35
   460    459    473  1     35
   460    473    474  1     35
   461    460    474  1     35
   461    474    475  1     35
   462    461    475  1     35
   462    475    476  1     35
   463    462    476  1     35
   464    463    476  1     35
   450    463    464  1     35
   465    464    477  1     35
   465    477    478  1     35
   466    465    478  1     35
   466    478    479  1     35
   467    466    479  1     35
   467    479    480  1     35
   468    467    480  1     35
   470    469    481  1     35
   470    481    482  1     35
   471    470    482  1     35
   471    482    483  1     35
   472    471    483  1     35
   472    483    484  1     35
   473    472    484  1     35
   473    484    485  1     35
   474    473    485  1     35
   474    485    486  1     35
   475    474    486  1     35
   475    486    487  1     35
   476    475    487  1     35
   477    476    487  1     35
   464    476    477  1     35
   478    477    488  1     35
   478    488    489  1     35
   479    478    489  1     35
   479    489    490  1     35
   480    479    490  1     35
   480    490    491  1     35
   484    483    492  1     35
   484    492    493  1     35
   485    484    493  1     35
   485    493    494  1     35
   486    485    494  1     35
   486    494    495  1     35
   487    486    495  1     35
   488    487    495  1     35
   477    487    488  1     35
   489    488    496  1     35
   489    496    497  1     35
   490    489    497  1     35
   490    497    498  1     35
   491    490    498  1     35
   494    493    499  1     35
   494    499    500  1     35
   495    494    500  1     35
   496    495    500  1     35
   488    495    496  1     35
   496    500     64  1     35
   496     64     66  1     35
   496     66    497  1     35
   497     66     68  1     35
   497     68    498  1     35
   498     68     13  1     35
   498     13     21  1     35
   498     21    491  1     35
   491     21     86  1     35
   491     86     88  1     35
   491     88    480  1     35
   480     88    468  1     35
   468     88     90  1     35
   468     90    454  1     35
   454     90     92  1     35
   454     92    441  1     35
   454    441    440  1     35
   441     92     94  1     35
   441     94    427  1     35
   427     94     96  1     35
   427     96    414  1     35
   414     96     98  1     35
   414     98    401  1     35
   414    401    400  1     35
   401     98    100  1     35
   401    100    402  1     35
   402    100     22  1     35
   402     22     33  1     35
   402     33    118  1     35
   402    118    389  1     35
   389    118    120  1     35
   389    120    390  1     35
   390    120    122  1     35
   390    122    391  1     35
   391    122    124  1     35
   391    124    403  1     35
   403    124    126  1     35
   403    126    415  1     35
   415    126    128  1     35
   415    128    428  1     35
   428    128    130  1     35
   428    130    442  1     35
   442    130    455  1     35
   455    130    132  1     35
   455    132    469  1     35
   469    132     34  1     35
   469     34     12  1     35
   469     12     54  1     35
   469     54    481  1     35
   481     54     56  1     35
   481     56    482  1     35
   482     56     58  1     35
   482     58    492  1     35
   482    492    483  1     35
   492     58     60  1     35
   492     60    493  1     35
   493     60    499  1     35
   499     60     62  1     35
   499     62    500  1     35
   500     62     64  1     35
    16     19     15  1     36
   501    502    503  1     37
   501    503    504  1     37
   501    504    505  1     37
   503    502    507  1     37
   503    507    508  1     37
   503    508    509  1     37
   504    503    509  1     37
   504    509    510  1     37
   504    510    511  1     37
   505    504    511  1     37
   505    511    512  1     37
   502    506    507  1     37
   507    506    513  1     37
   507    513    514  1     37
   508    507    514  1     37
   508    514    515  1     37
   508    515    516  1     37
   509    508    516  1     37
   509    516    517  1     37
   510    509    517  1     37
   510    517    518  1     37
   511    510    518  1     37
   511    518    519  1     37
   511    519    520  1     37
   512    511    520  1     37
   513    521    522  1     37
   514    513    522  1     37
   514    522    523  1     37
   515    514    523  1     37
   515    523    524  1     37
   516    515    524  1     37
   516    524    525  1     37
   516    525    526  1     37
   517    516    526  1     37
   517    526    527  1     37
   518    517    527  1     37
   518    527    528  1     37
   519    518    528  1     37
   519    528    529  1     37
   520    519    529  1     37
   520    529    530  1     37
   521    531    532  1     37
   522    521    532  1     37
   522    532    533  1     37
   523    522    533  1     37
   523    533    534  1     37
   524    523    534  1     37
   524    534    535  1     37
   525    524    535  1     37
   525    535    536  1     37
   525    536    537  1     37
   526    525    537  1     37
   526    537    538  1     37
   527    526    538  1     37
   527    538    539  1     37
   528    527    539  1     37
   528    539    540  1     37
   529    528    540  1     37
   529    540    541  1     37
   530    529    541  1     37
   531    542    543  1     37
   532    531    543  1     37
   532    543    544  1     37
   533    532    544  1     37
   533    544    545  1     37
   534    533    545  1     37
   534    545    546  1     37
   535    534    546  1     37
   535    546    547  1     37
   536    535    547  1     37
   536    547    548  1     37
   537    536    548  1     37
   537    548    549  1     37
   538    537    549  1     37
   538    549    550  1     37
   539    538    550  1     37
   539    550    551  1     37
   540    539    551  1     37
   540    551    552  1     37
   541    540    552  1     37
   541    552    553  1     37
   542    555    556  1     37
   543    542    556  1     37
   543    556    557  1     37
   544    543    557  1     37
   544    557    558  1     37
   545    544    558  1     37
   545    558    559  1     37
   546    545    559  1     37
   546    559    560  1     37
   547    546    560  1     37
   547    560    561  1     37
   548    547    561  1     37
   548    561    562  1     37
   549    548    562  1     37
   549    562    563  1     37
   550    549    563  1     37
   550    563    564  1     37
   551    550    564  1     37
   551    564    565  1     37
   552    551    565  1     37
   552    565    566  1     37
   553    552    566  1     37
   553    566    567  1     37
   554    553    567  1     37
   555    568    569  1     37
   556    555    569  1     37
   556    569    570  1     37
   557    556    570  1     37
   557    570    571  1     37
   558    557    571  1     37
   558    571    572  1     37
   559    558    572  1     37
   559    572    573  1     37
   560    559    573  1     37
   560    573    574  1     37
   561    560    574  1     37
   561    574    575  1     37
   562    561    575  1     37
   562    575    576  1     37
   563    562    576  1     37
   563    576    577  1     37
   564    563    577  1     37
   564    577    578  1     37
   565    564    578  1     37
   565    578    579  1     37
   566    565    579  1     37
   566    579    580  1     37
   567    566    580  1     37
   567    580    581  1     37
   569    568    582  1     37
   569    582    583  1     37
   570    569    583  1     37
   570    583    584  1     37
   571    570    584  1     37
   571    584    585  1     37
   572    571    585  1     37
   572    585    586  1     37
   573    572    586  1     37
   573    586    587  1     37
   574    573    587  1     37
   574    587    588  1     37
   575    574    588  1     37
   575    588    589  1     37
   576    575    589  1     37
   576    589    590  1     37
   577    576    590  1     37
   577    590    591  1     37
   578    577    591  1     37
   578    591    592  1     37
   579    578    592  1     37
   579    592    593  1     37
   580    579    593  1     37
   580    593    594  1     37
   581    580    594  1     37
   583    582    596  1     37
   583    596    597  1     37
   584    583    597  1     37
   584    597    598  1     37
   585    584    598  1     37
   585    598    599  1     37
   586    585    599  1     37
   586    599    600  1     37
   587    586    600  1     37
   587    600    601  1     37
   588    587    601  1     37
   589    588    601  1     37
   589    601    602  1     37
   590    589    602  1     37
   590    602    603  1     37
   591    590    603  1     37
   591    603    604  1     37
   592    591    604  1     37
   592    604    605  1     37
   593    592    605  1     37
   593    605    606  1     37
   594    593    606  1     37
   595    594    606  1     37
   595    606    607  1     37
   597    596    608  1     37
   597    608    609  1     37
   598    597    609  1     37
   598    609    610  1     37
   599    598    610  1     37
   599    610    611  1     37
   600    599    611  1     37
   600    611    612  1     37
   601    600    612  1     37
   602    601    612  1     37
   602    612    613  1     37
   603    602    613  1     37
   603    613    614  1     37
   604    603    614  1     37
   604    614    615  1     37
   605    604    615  1     37
   605    615    616  1     37
   606    605    616  1     37
   610    609    617  1     37
   610    617    618  1     37
   611    610    618  1     37
   612    611    618  1     37
   612    618    619  1     37
   613    612    619  1     37
   613    619    620  1     37
   614    613    620  1     37
   614    620    621  1     37
   615    614    621  1     37
   616    615    621  1     37
   618    617    622  1     37
   619    618    622  1     37
   619    622    623  1     37
   620    619    623  1     37
   621    620    623  1     37
   621    623     80  1     37
   621     80    616  1     37
   616     80     82  1     37
   616     82    607  1     37
   616    607    606  1     37
   607     82     84  1     37
   607     84      3  1     37
   607      3    595  1     37
   595      3     29  1     37
   595     29    115  1     37
   595    115    581  1     37
   595    581    594  1     37
   581    115    113  1     37
   581    113    567  1     37
   567    113    111  1     37
   567    111    554  1     37
   554    111    109  1     37
   554    109    541  1     37
   554    541    553  1     37
   541    109    530  1     37
   530    109    107  1     37
   530    107    105  1     37
   530    105    520  1     37
   520    105    512  1     37
   512    105    103  1     37
   512    103    505  1     37
   505    103    101  1     37
   505    101    501  1     37
   501    101     26  1     37
   501     26     23  1     37
   501     23     99  1     37
   501     99    502  1     37
   502     99     97  1     37
   502     97    506  1     37
   506     97     95  1     37
   506     95    513  1     37
   513     95    521  1     37
   521     95     93  1     37
   521     93    531  1     37
   531     93     91  1     37
   531     91    542  1     37
   542     91     89  1     37
   542     89    555  1     37
   555     89     87  1     37
   555     87    568  1     37
   568     87     85  1     37
   568     85    582  1     37
   582     85     20  1     37
   582     20     18  1     37
   582     18    596  1     37
   596     18     70  1     37
   596     70    608  1     37
   608     70     72  1     37
   608     72     74  1     37
   608     74    617  1     37
   608    617    609  1     37
   617     74    622  1     37
   622     74     76  1     37
   622     76     78  1     37
   622     78    623  1     37
   623     78     80  1     37
    25     31     24  1     38
