# MSMS solvent excluded surface faces for DA4.xyzr
#faces  #sphere density probe_r
    760       2  2.00  1.00
     1      3      2  3      1
     2      3      4  3      1
     3      5      4  3      1
     4      5      6  3      1
     5      7      6  3      1
     6      7      8  3      1
     7      9      8  3      1
     8      9     10  3      1
     9     11     10  3      1
    10     11     12  3      1
    11     13     12  3      1
    12     13     14  3      1
    13     15     14  3      1
    14     15     16  3      1
    15     17     16  3      1
    16     17     18  3      1
    17     19     18  3      1
    18     19     20  3      1
    19     21     20  3      1
    20     21     22  3      1
    21     23     22  3      1
    22     23     24  3      1
    23     25     24  3      1
    24     25     26  3      1
    25     27     26  3      1
    26     27     28  3      1
    27     29     28  3      1
    28     29     30  3      1
    29     31     30  3      1
    30     31     32  3      1
    31     33     32  3      1
    32     33     34  3      1
    33     35     34  3      1
    34     35     36  3      1
    35     37     36  3      1
    36     37     38  3      1
    37     39     38  3      1
    38     39     40  3      1
    39     41     40  3      1
    40     41     42  3      1
    41     43     42  3      1
    42     43     44  3      1
    43     45     44  3      1
    44     45     46  3      1
    45     47     46  3      1
    46     47     48  3      1
    47      1     48  3      1
    48      1      2  3      1
    49     50     51  1      2
    49     51     52  1      2
    49     52     53  1      2
    49     53     54  1      2
    49     54     55  1      2
    49     55     50  1      2
    51     50     57  1      2
    53     52     58  1      2
    53     58     59  1      2
    53     59     60  1      2
    54     53     60  1      2
    54     60     61  1      2
    54     61     62  1      2
    55     54     62  1      2
    55     62     63  1      2
    55     63     64  1      2
    50     55     64  1      2
    50     64     56  1      2
    50     56     57  1      2
    57     56     66  1      2
    58     67     68  1      2
    59     58     68  1      2
    59     68     69  1      2
    60     59     69  1      2
    60     69     70  1      2
    60     70     71  1      2
    61     60     71  1      2
    61     71     72  1      2
    62     61     72  1      2
    62     72     73  1      2
    63     62     73  1      2
    63     73     74  1      2
    63     74     75  1      2
    64     63     75  1      2
    64     75     76  1      2
    56     64     76  1      2
    56     76     65  1      2
    56     65     66  1      2
    66     65     78  1      2
    68     67     79  1      2
    68     79     80  1      2
    69     68     80  1      2
    69     80     81  1      2
    69     81     82  1      2
    70     69     82  1      2
    70     82     83  1      2
    71     70     83  1      2
    71     83     84  1      2
    72     71     84  1      2
    72     84     85  1      2
    73     72     85  1      2
    73     85     86  1      2
    73     86     87  1      2
    74     73     87  1      2
    74     87     88  1      2
    75     74     88  1      2
    75     88     89  1      2
    76     75     89  1      2
    76     89     90  1      2
    65     76     90  1      2
    65     90     77  1      2
    65     77     78  1      2
    78     77     92  1      2
    80     79     93  1      2
    80     93     94  1      2
    81     80     94  1      2
    81     94     95  1      2
    81     95     96  1      2
    82     81     96  1      2
    82     96     97  1      2
    83     82     97  1      2
    83     97     98  1      2
    84     83     98  1      2
    84     98     99  1      2
    85     84     99  1      2
    85     99    100  1      2
    86     85    100  1      2
    86    100    101  1      2
    86    101    102  1      2
    87     86    102  1      2
    87    102    103  1      2
    88     87    103  1      2
    88    103    104  1      2
    89     88    104  1      2
    89    104    105  1      2
    90     89    105  1      2
    90    105    106  1      2
    77     90    106  1      2
    77    106     91  1      2
    77     91     92  1      2
    92     91    108  1      2
    94     93    109  1      2
    94    109    110  1      2
    94    110    111  1      2
    95     94    111  1      2
    95    111    112  1      2
    96     95    112  1      2
    96    112    113  1      2
    97     96    113  1      2
    97    113    114  1      2
    98     97    114  1      2
    98    114    115  1      2
    99     98    115  1      2
    99    115    116  1      2
   100     99    116  1      2
   100    116    117  1      2
   101    100    117  1      2
   101    117    118  1      2
   102    101    118  1      2
   102    118    119  1      2
   103    102    119  1      2
   103    119    120  1      2
   104    103    120  1      2
   104    120    121  1      2
   105    104    121  1      2
   105    121    122  1      2
   106    105    122  1      2
   106    122    123  1      2
    91    106    123  1      2
    91    123    107  1      2
    91    107    108  1      2
   108    107    125  1      2
   110    109    126  1      2
   110    126    127  1      2
   111    110    127  1      2
   111    127    128  1      2
   112    111    128  1      2
   112    128    129  1      2
   113    112    129  1      2
   113    129    130  1      2
   114    113    130  1      2
   114    130    131  1      2
   115    114    131  1      2
   115    131    132  1      2
   116    115    132  1      2
   116    132    133  1      2
   117    116    133  1      2
   117    133    134  1      2
   118    117    134  1      2
   118    134    135  1      2
   119    118    135  1      2
   119    135    136  1      2
   120    119    136  1      2
   120    136    137  1      2
   121    120    137  1      2
   121    137    138  1      2
   122    121    138  1      2
   122    138    139  1      2
   123    122    139  1      2
   123    139    140  1      2
   107    123    140  1      2
   107    140    124  1      2
   107    124    125  1      2
   125    124    141  1      2
   125    141    142  1      2
   126    143    144  1      2
   127    126    144  1      2
   127    144    145  1      2
   128    127    145  1      2
   128    145    146  1      2
   129    128    146  1      2
   129    146    147  1      2
   130    129    147  1      2
   130    147    148  1      2
   131    130    148  1      2
   131    148    149  1      2
   132    131    149  1      2
   132    149    150  1      2
   133    132    150  1      2
   133    150    151  1      2
   134    133    151  1      2
   134    151    152  1      2
   135    134    152  1      2
   135    152    153  1      2
   136    135    153  1      2
   136    153    154  1      2
   137    136    154  1      2
   137    154    155  1      2
   138    137    155  1      2
   138    155    156  1      2
   139    138    156  1      2
   139    156    157  1      2
   140    139    157  1      2
   141    140    157  1      2
   124    140    141  1      2
   142    141    158  1      2
   142    158    159  1      2
   143    160    161  1      2
   144    143    161  1      2
   145    144    161  1      2
   145    161    162  1      2
   146    145    162  1      2
   146    162    163  1      2
   147    146    163  1      2
   147    163    164  1      2
   148    147    164  1      2
   148    164    165  1      2
   149    148    165  1      2
   149    165    166  1      2
   150    149    166  1      2
   150    166    167  1      2
   151    150    167  1      2
   151    167    168  1      2
   152    151    168  1      2
   152    168    169  1      2
   153    152    169  1      2
   153    169    170  1      2
   154    153    170  1      2
   154    170    171  1      2
   155    154    171  1      2
   155    171    172  1      2
   156    155    172  1      2
   156    172    173  1      2
   157    156    173  1      2
   158    157    173  1      2
   141    157    158  1      2
   159    158    174  1      2
   159    174    175  1      2
   160    176    177  1      2
   161    160    177  1      2
   162    161    177  1      2
   162    177    178  1      2
   163    162    178  1      2
   163    178    179  1      2
   164    163    179  1      2
   164    179    180  1      2
   165    164    180  1      2
   165    180    181  1      2
   166    165    181  1      2
   166    181    182  1      2
   167    166    182  1      2
   167    182    183  1      2
   168    167    183  1      2
   169    168    183  1      2
   169    183    184  1      2
   170    169    184  1      2
   170    184    185  1      2
   171    170    185  1      2
   171    185    186  1      2
   172    171    186  1      2
   172    186    187  1      2
   173    172    187  1      2
   174    173    187  1      2
   158    173    174  1      2
   175    174    188  1      2
   175    188    189  1      2
   176    190    191  1      2
   177    176    191  1      2
   177    191    192  1      2
   178    177    192  1      2
   179    178    192  1      2
   179    192    193  1      2
   180    179    193  1      2
   180    193    194  1      2
   181    180    194  1      2
   181    194    195  1      2
   182    181    195  1      2
   182    195    196  1      2
   183    182    196  1      2
   184    183    196  1      2
   184    196    197  1      2
   185    184    197  1      2
   185    197    198  1      2
   186    185    198  1      2
   186    198    199  1      2
   187    186    199  1      2
   188    187    199  1      2
   174    187    188  1      2
   189    188    200  1      2
   189    200    201  1      2
   191    190    202  1      2
   191    202    203  1      2
   192    191    203  1      2
   192    203    204  1      2
   193    192    204  1      2
   194    193    204  1      2
   194    204    205  1      2
   195    194    205  1      2
   195    205    206  1      2
   196    195    206  1      2
   196    206    207  1      2
   197    196    207  1      2
   198    197    207  1      2
   198    207    208  1      2
   199    198    208  1      2
   200    199    208  1      2
   188    199    200  1      2
   201    200    209  1      2
   201    209    210  1      2
   202    211    212  1      2
   203    202    212  1      2
   204    203    212  1      2
   204    212    213  1      2
   205    204    213  1      2
   206    205    213  1      2
   206    213    214  1      2
   207    206    214  1      2
   208    207    214  1      2
   209    208    214  1      2
   200    208    209  1      2
   210    209    215  1      2
   211    210    215  1      2
   212    211    215  1      2
   213    212    215  1      2
   214    213    215  1      2
   209    214    215  1      2
   211    202     15  1      2
   211     15     13  1      2
   211     13    210  1      2
   210     13     11  1      2
   210     11    201  1      2
   201     11      9  1      2
   201      9    189  1      2
   189      9      7  1      2
   189      7    175  1      2
   175      7      5  1      2
   175      5    159  1      2
   159      5      3  1      2
   159      3    142  1      2
   142      3      1  1      2
   142      1    125  1      2
   125      1    108  1      2
   108      1     47  1      2
   108     47     92  1      2
    92     47     45  1      2
    92     45     78  1      2
    78     45     43  1      2
    78     43     66  1      2
    66     43     41  1      2
    66     41     57  1      2
    57     41     39  1      2
    57     39     51  1      2
    51     39     37  1      2
    51     37     52  1      2
    52     37     35  1      2
    52     35     58  1      2
    58     35     33  1      2
    58     33     67  1      2
    67     33     31  1      2
    67     31     79  1      2
    79     31     29  1      2
    79     29     93  1      2
    93     29     27  1      2
    93     27    109  1      2
   109     27     25  1      2
   109     25    126  1      2
   126     25    143  1      2
   143     25     23  1      2
   143     23    160  1      2
   160     23     21  1      2
   160     21    176  1      2
   176     21     19  1      2
   176     19    190  1      2
   190     19     17  1      2
   190     17    202  1      2
   202     17     15  1      2
   216    217    218  1      3
   216    218    219  1      3
   216    219    220  1      3
   216    220    221  1      3
   216    221    222  1      3
   216    222    217  1      3
   218    217    224  1      3
   218    224    225  1      3
   218    225    226  1      3
   219    218    226  1      3
   219    226    227  1      3
   219    227    228  1      3
   220    219    228  1      3
   220    228    229  1      3
   220    229    230  1      3
   221    220    230  1      3
   217    222    231  1      3
   217    231    223  1      3
   217    223    224  1      3
   224    223    233  1      3
   224    233    234  1      3
   225    224    234  1      3
   225    234    235  1      3
   225    235    236  1      3
   226    225    236  1      3
   226    236    237  1      3
   227    226    237  1      3
   227    237    238  1      3
   228    227    238  1      3
   228    238    239  1      3
   228    239    240  1      3
   229    228    240  1      3
   229    240    241  1      3
   230    229    241  1      3
   230    241    242  1      3
   223    231    243  1      3
   223    243    232  1      3
   223    232    233  1      3
   233    232    245  1      3
   233    245    246  1      3
   234    233    246  1      3
   234    246    247  1      3
   235    234    247  1      3
   235    247    248  1      3
   236    235    248  1      3
   236    248    249  1      3
   236    249    250  1      3
   237    236    250  1      3
   237    250    251  1      3
   238    237    251  1      3
   238    251    252  1      3
   239    238    252  1      3
   239    252    253  1      3
   240    239    253  1      3
   240    253    254  1      3
   241    240    254  1      3
   241    254    255  1      3
   241    255    256  1      3
   242    241    256  1      3
   232    243    257  1      3
   232    257    244  1      3
   232    244    245  1      3
   245    244    259  1      3
   245    259    260  1      3
   246    245    260  1      3
   246    260    261  1      3
   247    246    261  1      3
   247    261    262  1      3
   248    247    262  1      3
   248    262    263  1      3
   249    248    263  1      3
   249    263    264  1      3
   249    264    265  1      3
   250    249    265  1      3
   250    265    266  1      3
   251    250    266  1      3
   251    266    267  1      3
   252    251    267  1      3
   252    267    268  1      3
   253    252    268  1      3
   253    268    269  1      3
   254    253    269  1      3
   254    269    270  1      3
   255    254    270  1      3
   255    270    271  1      3
   255    271    272  1      3
   256    255    272  1      3
   244    257    273  1      3
   244    273    258  1      3
   244    258    259  1      3
   259    258    275  1      3
   259    275    276  1      3
   260    259    276  1      3
   260    276    277  1      3
   261    260    277  1      3
   261    277    278  1      3
   262    261    278  1      3
   262    278    279  1      3
   263    262    279  1      3
   263    279    280  1      3
   264    263    280  1      3
   264    280    281  1      3
   265    264    281  1      3
   265    281    282  1      3
   266    265    282  1      3
   266    282    283  1      3
   267    266    283  1      3
   267    283    284  1      3
   268    267    284  1      3
   268    284    285  1      3
   269    268    285  1      3
   269    285    286  1      3
   270    269    286  1      3
   270    286    287  1      3
   270    287    288  1      3
   271    270    288  1      3
   271    288    289  1      3
   272    271    289  1      3
   258    273    290  1      3
   258    290    274  1      3
   258    274    275  1      3
   275    274    292  1      3
   275    292    293  1      3
   276    275    293  1      3
   276    293    294  1      3
   277    276    294  1      3
   277    294    295  1      3
   278    277    295  1      3
   278    295    296  1      3
   279    278    296  1      3
   279    296    297  1      3
   280    279    297  1      3
   280    297    298  1      3
   281    280    298  1      3
   281    298    299  1      3
   282    281    299  1      3
   282    299    300  1      3
   283    282    300  1      3
   283    300    301  1      3
   284    283    301  1      3
   284    301    302  1      3
   285    284    302  1      3
   285    302    303  1      3
   286    285    303  1      3
   286    303    304  1      3
   287    286    304  1      3
   287    304    305  1      3
   288    287    305  1      3
   288    305    306  1      3
   289    288    306  1      3
   274    290    307  1      3
   274    307    291  1      3
   274    291    292  1      3
   292    291    308  1      3
   292    308    309  1      3
   293    292    309  1      3
   293    309    310  1      3
   294    293    310  1      3
   294    310    311  1      3
   295    294    311  1      3
   295    311    312  1      3
   296    295    312  1      3
   296    312    313  1      3
   297    296    313  1      3
   297    313    314  1      3
   298    297    314  1      3
   298    314    315  1      3
   299    298    315  1      3
   299    315    316  1      3
   300    299    316  1      3
   300    316    317  1      3
   301    300    317  1      3
   301    317    318  1      3
   302    301    318  1      3
   302    318    319  1      3
   303    302    319  1      3
   303    319    320  1      3
   304    303    320  1      3
   304    320    321  1      3
   305    304    321  1      3
   305    321    322  1      3
   306    305    322  1      3
   306    322    323  1      3
   308    307    324  1      3
   291    307    308  1      3
   309    308    325  1      3
   309    325    326  1      3
   310    309    326  1      3
   310    326    327  1      3
   311    310    327  1      3
   311    327    328  1      3
   312    311    328  1      3
   312    328    329  1      3
   313    312    329  1      3
   313    329    330  1      3
   314    313    330  1      3
   314    330    331  1      3
   315    314    331  1      3
   315    331    332  1      3
   316    315    332  1      3
   316    332    333  1      3
   317    316    333  1      3
   317    333    334  1      3
   318    317    334  1      3
   318    334    335  1      3
   319    318    335  1      3
   319    335    336  1      3
   320    319    336  1      3
   320    336    337  1      3
   321    320    337  1      3
   322    321    337  1      3
   322    337    338  1      3
   323    322    338  1      3
   323    338    339  1      3
   325    324    340  1      3
   308    324    325  1      3
   326    325    341  1      3
   326    341    342  1      3
   327    326    342  1      3
   327    342    343  1      3
   328    327    343  1      3
   328    343    344  1      3
   329    328    344  1      3
   329    344    345  1      3
   330    329    345  1      3
   330    345    346  1      3
   331    330    346  1      3
   332    331    346  1      3
   332    346    347  1      3
   333    332    347  1      3
   333    347    348  1      3
   334    333    348  1      3
   334    348    349  1      3
   335    334    349  1      3
   335    349    350  1      3
   336    335    350  1      3
   336    350    351  1      3
   337    336    351  1      3
   338    337    351  1      3
   338    351    352  1      3
   339    338    352  1      3
   339    352    353  1      3
   341    340    354  1      3
   325    340    341  1      3
   342    341    355  1      3
   342    355    356  1      3
   343    342    356  1      3
   343    356    357  1      3
   344    343    357  1      3
   344    357    358  1      3
   345    344    358  1      3
   345    358    359  1      3
   346    345    359  1      3
   347    346    359  1      3
   347    359    360  1      3
   348    347    360  1      3
   348    360    361  1      3
   349    348    361  1      3
   349    361    362  1      3
   350    349    362  1      3
   350    362    363  1      3
   351    350    363  1      3
   351    363    364  1      3
   352    351    364  1      3
   353    352    364  1      3
   353    364    365  1      3
   355    354    366  1      3
   341    354    355  1      3
   356    355    367  1      3
   356    367    368  1      3
   357    356    368  1      3
   357    368    369  1      3
   358    357    369  1      3
   359    358    369  1      3
   359    369    370  1      3
   360    359    370  1      3
   360    370    371  1      3
   361    360    371  1      3
   361    371    372  1      3
   362    361    372  1      3
   363    362    372  1      3
   363    372    373  1      3
   364    363    373  1      3
   364    373    374  1      3
   365    364    374  1      3
   367    366    375  1      3
   355    366    367  1      3
   368    367    376  1      3
   368    376    377  1      3
   369    368    377  1      3
   370    369    377  1      3
   370    377    378  1      3
   371    370    378  1      3
   372    371    378  1      3
   372    378    379  1      3
   373    372    379  1      3
   374    373    379  1      3
   374    379    380  1      3
   376    375    381  1      3
   367    375    376  1      3
   377    376    382  1      3
   378    377    382  1      3
   379    378    382  1      3
   380    379    382  1      3
   381    380    382  1      3
   376    381    382  1      3
   381    375     12  1      3
   381     12     14  1      3
   381     14    380  1      3
   380     14     16  1      3
   380     16    374  1      3
   374     16     18  1      3
   374     18    365  1      3
   365     18     20  1      3
   365     20    353  1      3
   353     20     22  1      3
   353     22    339  1      3
   339     22     24  1      3
   339     24    323  1      3
   323     24     26  1      3
   323     26    306  1      3
   306     26    289  1      3
   289     26     28  1      3
   289     28    272  1      3
   272     28     30  1      3
   272     30    256  1      3
   256     30     32  1      3
   256     32    242  1      3
   242     32     34  1      3
   242     34    230  1      3
   230     34     36  1      3
   230     36    221  1      3
   221     36     38  1      3
   221     38    222  1      3
   222     38     40  1      3
   222     40    231  1      3
   231     40     42  1      3
   231     42    243  1      3
   243     42     44  1      3
   243     44    257  1      3
   257     44     46  1      3
   257     46    273  1      3
   273     46     48  1      3
   273     48    290  1      3
   290     48      2  1      3
   290      2    307  1      3
   307      2    324  1      3
   324      2      4  1      3
   324      4    340  1      3
   340      4      6  1      3
   340      6    354  1      3
   354      6      8  1      3
   354      8    366  1      3
   366      8     10  1      3
   366     10    375  1      3
   375     10     12  1      3
