# MSMS solvent excluded surface faces for DA3.xyzr
#faces  #sphere density probe_r
    736       2  2.00  1.00
     1      3      2  3      1
     2      3      4  3      1
     3      5      4  3      1
     4      5      6  3      1
     5      7      6  3      1
     6      7      8  3      1
     7      9      8  3      1
     8      9     10  3      1
     9     11     10  3      1
    10     11     12  3      1
    11     13     12  3      1
    12     13     14  3      1
    13     15     14  3      1
    14     15     16  3      1
    15     17     16  3      1
    16     17     18  3      1
    17     19     18  3      1
    18     19     20  3      1
    19     21     20  3      1
    20     21     22  3      1
    21     23     22  3      1
    22     23     24  3      1
    23     25     24  3      1
    24     25     26  3      1
    25     27     26  3      1
    26     27     28  3      1
    27     29     28  3      1
    28     29     30  3      1
    29     31     30  3      1
    30     31     32  3      1
    31     33     32  3      1
    32     33     34  3      1
    33     35     34  3      1
    34     35     36  3      1
    35     37     36  3      1
    36     37     38  3      1
    37     39     38  3      1
    38     39     40  3      1
    39     41     40  3      1
    40     41     42  3      1
    41     43     42  3      1
    42     43     44  3      1
    43     45     44  3      1
    44     45     46  3      1
    45     47     46  3      1
    46     47     48  3      1
    47     49     48  3      1
    48     49     50  3      1
    49     51     50  3      1
    50     51     52  3      1
    51      1     52  3      1
    52      1      2  3      1
    53     54     55  1      2
    53     55     56  1      2
    53     56     57  1      2
    53     57     58  1      2
    53     58     59  1      2
    53     59     54  1      2
    55     54     61  1      2
    57     56     62  1      2
    57     62     63  1      2
    57     63     64  1      2
    58     57     64  1      2
    58     64     65  1      2
    58     65     66  1      2
    59     58     66  1      2
    59     66     67  1      2
    59     67     68  1      2
    54     59     68  1      2
    54     68     60  1      2
    54     60     61  1      2
    61     60     70  1      2
    63     62     71  1      2
    63     71     72  1      2
    64     63     72  1      2
    64     72     73  1      2
    64     73     74  1      2
    65     64     74  1      2
    65     74     75  1      2
    66     65     75  1      2
    66     75     76  1      2
    67     66     76  1      2
    67     76     77  1      2
    67     77     78  1      2
    68     67     78  1      2
    68     78     79  1      2
    60     68     79  1      2
    60     79     69  1      2
    60     69     70  1      2
    70     69     81  1      2
    72     71     82  1      2
    72     82     83  1      2
    72     83     84  1      2
    73     72     84  1      2
    73     84     85  1      2
    74     73     85  1      2
    74     85     86  1      2
    75     74     86  1      2
    75     86     87  1      2
    76     75     87  1      2
    76     87     88  1      2
    76     88     89  1      2
    77     76     89  1      2
    77     89     90  1      2
    78     77     90  1      2
    78     90     91  1      2
    79     78     91  1      2
    79     91     92  1      2
    69     79     92  1      2
    69     92     80  1      2
    69     80     81  1      2
    81     80     94  1      2
    83     82     95  1      2
    83     95     96  1      2
    83     96     97  1      2
    84     83     97  1      2
    84     97     98  1      2
    85     84     98  1      2
    85     98     99  1      2
    86     85     99  1      2
    86     99    100  1      2
    87     86    100  1      2
    87    100    101  1      2
    88     87    101  1      2
    88    101    102  1      2
    88    102    103  1      2
    89     88    103  1      2
    89    103    104  1      2
    90     89    104  1      2
    90    104    105  1      2
    91     90    105  1      2
    91    105    106  1      2
    92     91    106  1      2
    92    106    107  1      2
    80     92    107  1      2
    80    107     93  1      2
    80     93     94  1      2
    94     93    109  1      2
    95    110    111  1      2
    96     95    111  1      2
    96    111    112  1      2
    97     96    112  1      2
    97    112    113  1      2
    98     97    113  1      2
    98    113    114  1      2
    99     98    114  1      2
    99    114    115  1      2
   100     99    115  1      2
   100    115    116  1      2
   101    100    116  1      2
   101    116    117  1      2
   102    101    117  1      2
   102    117    118  1      2
   103    102    118  1      2
   103    118    119  1      2
   104    103    119  1      2
   104    119    120  1      2
   105    104    120  1      2
   105    120    121  1      2
   106    105    121  1      2
   106    121    122  1      2
   107    106    122  1      2
   107    122    123  1      2
    93    107    123  1      2
    93    123    108  1      2
    93    108    109  1      2
   109    108    125  1      2
   110    126    127  1      2
   111    110    127  1      2
   111    127    128  1      2
   112    111    128  1      2
   112    128    129  1      2
   113    112    129  1      2
   113    129    130  1      2
   114    113    130  1      2
   114    130    131  1      2
   115    114    131  1      2
   115    131    132  1      2
   116    115    132  1      2
   116    132    133  1      2
   117    116    133  1      2
   117    133    134  1      2
   118    117    134  1      2
   118    134    135  1      2
   119    118    135  1      2
   119    135    136  1      2
   120    119    136  1      2
   120    136    137  1      2
   121    120    137  1      2
   121    137    138  1      2
   122    121    138  1      2
   122    138    139  1      2
   123    122    139  1      2
   123    139    140  1      2
   108    123    140  1      2
   108    140    124  1      2
   108    124    125  1      2
   125    124    141  1      2
   125    141    142  1      2
   127    126    143  1      2
   127    143    144  1      2
   128    127    144  1      2
   128    144    145  1      2
   129    128    145  1      2
   129    145    146  1      2
   130    129    146  1      2
   130    146    147  1      2
   131    130    147  1      2
   131    147    148  1      2
   132    131    148  1      2
   132    148    149  1      2
   133    132    149  1      2
   133    149    150  1      2
   134    133    150  1      2
   134    150    151  1      2
   135    134    151  1      2
   135    151    152  1      2
   136    135    152  1      2
   136    152    153  1      2
   137    136    153  1      2
   137    153    154  1      2
   138    137    154  1      2
   138    154    155  1      2
   139    138    155  1      2
   139    155    156  1      2
   140    139    156  1      2
   141    140    156  1      2
   124    140    141  1      2
   142    141    157  1      2
   142    157    158  1      2
   144    143    159  1      2
   144    159    160  1      2
   145    144    160  1      2
   145    160    161  1      2
   146    145    161  1      2
   146    161    162  1      2
   147    146    162  1      2
   147    162    163  1      2
   148    147    163  1      2
   148    163    164  1      2
   149    148    164  1      2
   149    164    165  1      2
   150    149    165  1      2
   150    165    166  1      2
   151    150    166  1      2
   151    166    167  1      2
   152    151    167  1      2
   152    167    168  1      2
   153    152    168  1      2
   153    168    169  1      2
   154    153    169  1      2
   154    169    170  1      2
   155    154    170  1      2
   155    170    171  1      2
   156    155    171  1      2
   157    156    171  1      2
   141    156    157  1      2
   158    157    172  1      2
   158    172    173  1      2
   160    159    174  1      2
   160    174    175  1      2
   161    160    175  1      2
   161    175    176  1      2
   162    161    176  1      2
   162    176    177  1      2
   163    162    177  1      2
   163    177    178  1      2
   164    163    178  1      2
   164    178    179  1      2
   165    164    179  1      2
   165    179    180  1      2
   166    165    180  1      2
   167    166    180  1      2
   167    180    181  1      2
   168    167    181  1      2
   168    181    182  1      2
   169    168    182  1      2
   169    182    183  1      2
   170    169    183  1      2
   170    183    184  1      2
   171    170    184  1      2
   172    171    184  1      2
   157    171    172  1      2
   173    172    185  1      2
   173    185    186  1      2
   174    187    188  1      2
   175    174    188  1      2
   176    175    188  1      2
   176    188    189  1      2
   177    176    189  1      2
   177    189    190  1      2
   178    177    190  1      2
   178    190    191  1      2
   179    178    191  1      2
   179    191    192  1      2
   180    179    192  1      2
   181    180    192  1      2
   181    192    193  1      2
   182    181    193  1      2
   182    193    194  1      2
   183    182    194  1      2
   183    194    195  1      2
   184    183    195  1      2
   185    184    195  1      2
   172    184    185  1      2
   186    185    196  1      2
   186    196    197  1      2
   187    198    199  1      2
   188    187    199  1      2
   188    199    200  1      2
   189    188    200  1      2
   190    189    200  1      2
   190    200    201  1      2
   191    190    201  1      2
   191    201    202  1      2
   192    191    202  1      2
   192    202    203  1      2
   193    192    203  1      2
   194    193    203  1      2
   194    203    204  1      2
   195    194    204  1      2
   196    195    204  1      2
   185    195    196  1      2
   197    196    205  1      2
   197    205    206  1      2
   198    207    208  1      2
   199    198    208  1      2
   200    199    208  1      2
   200    208    209  1      2
   201    200    209  1      2
   202    201    209  1      2
   202    209    210  1      2
   203    202    210  1      2
   204    203    210  1      2
   205    204    210  1      2
   196    204    205  1      2
   206    205    211  1      2
   207    206    211  1      2
   208    207    211  1      2
   209    208    211  1      2
   210    209    211  1      2
   205    210    211  1      2
   207    198     17  1      2
   207     17     15  1      2
   207     15    206  1      2
   206     15     13  1      2
   206     13     11  1      2
   206     11    197  1      2
   197     11      9  1      2
   197      9    186  1      2
   186      9      7  1      2
   186      7    173  1      2
   173      7      5  1      2
   173      5    158  1      2
   158      5      3  1      2
   158      3    142  1      2
   142      3      1  1      2
   142      1    125  1      2
   125      1    109  1      2
   109      1     51  1      2
   109     51     94  1      2
    94     51     49  1      2
    94     49     81  1      2
    81     49     47  1      2
    81     47     70  1      2
    70     47     45  1      2
    70     45     61  1      2
    61     45     43  1      2
    61     43     55  1      2
    55     43     41  1      2
    55     41     39  1      2
    55     39     56  1      2
    56     39     37  1      2
    56     37     62  1      2
    62     37     35  1      2
    62     35     71  1      2
    71     35     33  1      2
    71     33     82  1      2
    82     33     31  1      2
    82     31     95  1      2
    95     31     29  1      2
    95     29    110  1      2
   110     29    126  1      2
   126     29     27  1      2
   126     27     25  1      2
   126     25    143  1      2
   143     25    159  1      2
   159     25     23  1      2
   159     23    174  1      2
   174     23     21  1      2
   174     21    187  1      2
   187     21     19  1      2
   187     19    198  1      2
   198     19     17  1      2
   212    213    214  1      3
   212    214    215  1      3
   212    215    216  1      3
   212    216    217  1      3
   212    217    218  1      3
   212    218    213  1      3
   214    213    220  1      3
   214    220    221  1      3
   214    221    222  1      3
   215    214    222  1      3
   215    222    223  1      3
   215    223    224  1      3
   216    215    224  1      3
   216    224    225  1      3
   216    225    226  1      3
   217    216    226  1      3
   213    218    227  1      3
   213    227    219  1      3
   213    219    220  1      3
   220    219    229  1      3
   220    229    230  1      3
   221    220    230  1      3
   221    230    231  1      3
   221    231    232  1      3
   222    221    232  1      3
   222    232    233  1      3
   223    222    233  1      3
   223    233    234  1      3
   224    223    234  1      3
   224    234    235  1      3
   224    235    236  1      3
   225    224    236  1      3
   225    236    237  1      3
   226    225    237  1      3
   219    227    238  1      3
   219    238    228  1      3
   219    228    229  1      3
   229    228    240  1      3
   229    240    241  1      3
   230    229    241  1      3
   230    241    242  1      3
   231    230    242  1      3
   231    242    243  1      3
   232    231    243  1      3
   232    243    244  1      3
   232    244    245  1      3
   233    232    245  1      3
   233    245    246  1      3
   234    233    246  1      3
   234    246    247  1      3
   235    234    247  1      3
   235    247    248  1      3
   236    235    248  1      3
   236    248    249  1      3
   237    236    249  1      3
   237    249    250  1      3
   228    238    251  1      3
   228    251    239  1      3
   228    239    240  1      3
   240    239    253  1      3
   240    253    254  1      3
   241    240    254  1      3
   241    254    255  1      3
   242    241    255  1      3
   242    255    256  1      3
   243    242    256  1      3
   243    256    257  1      3
   244    243    257  1      3
   244    257    258  1      3
   244    258    259  1      3
   245    244    259  1      3
   245    259    260  1      3
   246    245    260  1      3
   246    260    261  1      3
   247    246    261  1      3
   247    261    262  1      3
   248    247    262  1      3
   248    262    263  1      3
   249    248    263  1      3
   249    263    264  1      3
   250    249    264  1      3
   250    264    265  1      3
   239    251    266  1      3
   239    266    252  1      3
   239    252    253  1      3
   253    252    268  1      3
   253    268    269  1      3
   254    253    269  1      3
   254    269    270  1      3
   255    254    270  1      3
   255    270    271  1      3
   256    255    271  1      3
   256    271    272  1      3
   257    256    272  1      3
   257    272    273  1      3
   258    257    273  1      3
   258    273    274  1      3
   259    258    274  1      3
   259    274    275  1      3
   260    259    275  1      3
   260    275    276  1      3
   261    260    276  1      3
   261    276    277  1      3
   262    261    277  1      3
   262    277    278  1      3
   263    262    278  1      3
   263    278    279  1      3
   264    263    279  1      3
   264    279    280  1      3
   264    280    281  1      3
   265    264    281  1      3
   252    266    282  1      3
   252    282    267  1      3
   252    267    268  1      3
   268    267    284  1      3
   268    284    285  1      3
   269    268    285  1      3
   269    285    286  1      3
   270    269    286  1      3
   270    286    287  1      3
   271    270    287  1      3
   271    287    288  1      3
   272    271    288  1      3
   272    288    289  1      3
   273    272    289  1      3
   273    289    290  1      3
   274    273    290  1      3
   274    290    291  1      3
   275    274    291  1      3
   275    291    292  1      3
   276    275    292  1      3
   276    292    293  1      3
   277    276    293  1      3
   277    293    294  1      3
   278    277    294  1      3
   278    294    295  1      3
   279    278    295  1      3
   279    295    296  1      3
   280    279    296  1      3
   280    296    297  1      3
   281    280    297  1      3
   281    297    298  1      3
   267    282    299  1      3
   267    299    283  1      3
   267    283    284  1      3
   284    283    300  1      3
   284    300    301  1      3
   285    284    301  1      3
   285    301    302  1      3
   286    285    302  1      3
   286    302    303  1      3
   287    286    303  1      3
   287    303    304  1      3
   288    287    304  1      3
   288    304    305  1      3
   289    288    305  1      3
   289    305    306  1      3
   290    289    306  1      3
   290    306    307  1      3
   291    290    307  1      3
   291    307    308  1      3
   292    291    308  1      3
   292    308    309  1      3
   293    292    309  1      3
   293    309    310  1      3
   294    293    310  1      3
   294    310    311  1      3
   295    294    311  1      3
   295    311    312  1      3
   296    295    312  1      3
   296    312    313  1      3
   297    296    313  1      3
   297    313    314  1      3
   298    297    314  1      3
   300    299    315  1      3
   283    299    300  1      3
   301    300    316  1      3
   301    316    317  1      3
   302    301    317  1      3
   302    317    318  1      3
   303    302    318  1      3
   303    318    319  1      3
   304    303    319  1      3
   304    319    320  1      3
   305    304    320  1      3
   305    320    321  1      3
   306    305    321  1      3
   306    321    322  1      3
   307    306    322  1      3
   307    322    323  1      3
   308    307    323  1      3
   308    323    324  1      3
   309    308    324  1      3
   309    324    325  1      3
   310    309    325  1      3
   310    325    326  1      3
   311    310    326  1      3
   311    326    327  1      3
   312    311    327  1      3
   312    327    328  1      3
   313    312    328  1      3
   314    313    328  1      3
   314    328    329  1      3
   316    315    330  1      3
   300    315    316  1      3
   317    316    331  1      3
   317    331    332  1      3
   318    317    332  1      3
   318    332    333  1      3
   319    318    333  1      3
   319    333    334  1      3
   320    319    334  1      3
   320    334    335  1      3
   321    320    335  1      3
   321    335    336  1      3
   322    321    336  1      3
   323    322    336  1      3
   323    336    337  1      3
   324    323    337  1      3
   324    337    338  1      3
   325    324    338  1      3
   325    338    339  1      3
   326    325    339  1      3
   326    339    340  1      3
   327    326    340  1      3
   327    340    341  1      3
   328    327    341  1      3
   329    328    341  1      3
   329    341    342  1      3
   331    330    343  1      3
   316    330    331  1      3
   332    331    344  1      3
   332    344    345  1      3
   333    332    345  1      3
   333    345    346  1      3
   334    333    346  1      3
   334    346    347  1      3
   335    334    347  1      3
   335    347    348  1      3
   336    335    348  1      3
   337    336    348  1      3
   337    348    349  1      3
   338    337    349  1      3
   338    349    350  1      3
   339    338    350  1      3
   339    350    351  1      3
   340    339    351  1      3
   340    351    352  1      3
   341    340    352  1      3
   341    352    353  1      3
   342    341    353  1      3
   344    343    354  1      3
   331    343    344  1      3
   345    344    355  1      3
   345    355    356  1      3
   346    345    356  1      3
   346    356    357  1      3
   347    346    357  1      3
   348    347    357  1      3
   348    357    358  1      3
   349    348    358  1      3
   349    358    359  1      3
   350    349    359  1      3
   350    359    360  1      3
   351    350    360  1      3
   352    351    360  1      3
   352    360    361  1      3
   353    352    361  1      3
   353    361    362  1      3
   355    354    363  1      3
   344    354    355  1      3
   356    355    364  1      3
   356    364    365  1      3
   357    356    365  1      3
   358    357    365  1      3
   358    365    366  1      3
   359    358    366  1      3
   360    359    366  1      3
   360    366    367  1      3
   361    360    367  1      3
   362    361    367  1      3
   362    367    368  1      3
   364    363    369  1      3
   355    363    364  1      3
   365    364    370  1      3
   366    365    370  1      3
   367    366    370  1      3
   368    367    370  1      3
   369    368    370  1      3
   364    369    370  1      3
   369    363     12  1      3
   369     12     14  1      3
   369     14    368  1      3
   368     14     16  1      3
   368     16     18  1      3
   368     18    362  1      3
   362     18     20  1      3
   362     20    353  1      3
   353     20     22  1      3
   353     22    342  1      3
   342     22     24  1      3
   342     24    329  1      3
   329     24     26  1      3
   329     26    314  1      3
   314     26    298  1      3
   298     26     28  1      3
   298     28     30  1      3
   298     30    281  1      3
   281     30    265  1      3
   265     30     32  1      3
   265     32    250  1      3
   250     32     34  1      3
   250     34    237  1      3
   237     34     36  1      3
   237     36    226  1      3
   226     36     38  1      3
   226     38    217  1      3
   217     38     40  1      3
   217     40     42  1      3
   217     42    218  1      3
   218     42     44  1      3
   218     44    227  1      3
   227     44     46  1      3
   227     46    238  1      3
   238     46     48  1      3
   238     48    251  1      3
   251     48     50  1      3
   251     50    266  1      3
   266     50     52  1      3
   266     52    282  1      3
   282     52      2  1      3
   282      2    299  1      3
   299      2    315  1      3
   315      2      4  1      3
   315      4    330  1      3
   330      4      6  1      3
   330      6    343  1      3
   343      6      8  1      3
   343      8    354  1      3
   354      8     10  1      3
   354     10    363  1      3
   363     10     12  1      3
