# MSMS solvent excluded surface faces for DA5.xyzr
#faces  #sphere density probe_r
    816       2  2.00  1.00
     1      3      2  3      1
     2      3      4  3      1
     3      5      4  3      1
     4      5      6  3      1
     5      7      6  3      1
     6      7      8  3      1
     7      9      8  3      1
     8      9     10  3      1
     9     11     10  3      1
    10     11     12  3      1
    11     13     12  3      1
    12     13     14  3      1
    13     15     14  3      1
    14     15     16  3      1
    15     17     16  3      1
    16     17     18  3      1
    17     19     18  3      1
    18     19     20  3      1
    19     21     20  3      1
    20     21     22  3      1
    21     23     22  3      1
    22     23     24  3      1
    23     25     24  3      1
    24     25     26  3      1
    25     27     26  3      1
    26     27     28  3      1
    27     29     28  3      1
    28     29     30  3      1
    29     31     30  3      1
    30     31     32  3      1
    31     33     32  3      1
    32     33     34  3      1
    33     35     34  3      1
    34     35     36  3      1
    35     37     36  3      1
    36     37     38  3      1
    37     39     38  3      1
    38     39     40  3      1
    39     41     40  3      1
    40     41     42  3      1
    41     43     42  3      1
    42     43     44  3      1
    43      1     44  3      1
    44      1      2  3      1
    45     46     47  1      2
    45     47     48  1      2
    45     48     49  1      2
    45     49     50  1      2
    45     50     51  1      2
    45     51     46  1      2
    47     46     53  1      2
    47     53     54  1      2
    47     54     55  1      2
    48     47     55  1      2
    48     55     56  1      2
    48     56     57  1      2
    49     48     57  1      2
    49     57     58  1      2
    49     58     59  1      2
    50     49     59  1      2
    50     59     60  1      2
    50     60     61  1      2
    51     50     61  1      2
    51     61     62  1      2
    51     62     63  1      2
    46     51     63  1      2
    46     63     52  1      2
    46     52     53  1      2
    53     52     65  1      2
    53     65     66  1      2
    54     53     66  1      2
    57     67     68  1      2
    58     57     68  1      2
    58     68     69  1      2
    59     58     69  1      2
    59     69     70  1      2
    59     70     71  1      2
    60     59     71  1      2
    60     71     72  1      2
    61     60     72  1      2
    61     72     73  1      2
    62     61     73  1      2
    62     73     74  1      2
    62     74     75  1      2
    63     62     75  1      2
    63     75     76  1      2
    52     63     76  1      2
    52     76     64  1      2
    52     64     65  1      2
    65     64     78  1      2
    65     78     79  1      2
    66     65     79  1      2
    68     67     80  1      2
    68     80     81  1      2
    69     68     81  1      2
    69     81     82  1      2
    69     82     83  1      2
    70     69     83  1      2
    70     83     84  1      2
    71     70     84  1      2
    71     84     85  1      2
    72     71     85  1      2
    72     85     86  1      2
    73     72     86  1      2
    73     86     87  1      2
    73     87     88  1      2
    74     73     88  1      2
    74     88     89  1      2
    75     74     89  1      2
    75     89     90  1      2
    76     75     90  1      2
    76     90     91  1      2
    64     76     91  1      2
    64     91     77  1      2
    64     77     78  1      2
    78     77     93  1      2
    78     93     94  1      2
    79     78     94  1      2
    81     80     95  1      2
    81     95     96  1      2
    82     81     96  1      2
    82     96     97  1      2
    82     97     98  1      2
    83     82     98  1      2
    83     98     99  1      2
    84     83     99  1      2
    84     99    100  1      2
    85     84    100  1      2
    85    100    101  1      2
    86     85    101  1      2
    86    101    102  1      2
    87     86    102  1      2
    87    102    103  1      2
    87    103    104  1      2
    88     87    104  1      2
    88    104    105  1      2
    89     88    105  1      2
    89    105    106  1      2
    90     89    106  1      2
    90    106    107  1      2
    91     90    107  1      2
    91    107    108  1      2
    77     91    108  1      2
    77    108     92  1      2
    77     92     93  1      2
    93     92    110  1      2
    93    110    111  1      2
    94     93    111  1      2
    96     95    112  1      2
    96    112    113  1      2
    96    113    114  1      2
    97     96    114  1      2
    97    114    115  1      2
    98     97    115  1      2
    98    115    116  1      2
    99     98    116  1      2
    99    116    117  1      2
   100     99    117  1      2
   100    117    118  1      2
   101    100    118  1      2
   101    118    119  1      2
   102    101    119  1      2
   102    119    120  1      2
   103    102    120  1      2
   103    120    121  1      2
   104    103    121  1      2
   104    121    122  1      2
   105    104    122  1      2
   105    122    123  1      2
   106    105    123  1      2
   106    123    124  1      2
   107    106    124  1      2
   107    124    125  1      2
   108    107    125  1      2
   108    125    126  1      2
    92    108    126  1      2
    92    126    109  1      2
    92    109    110  1      2
   110    109    128  1      2
   110    128    129  1      2
   111    110    129  1      2
   112    130    131  1      2
   113    112    131  1      2
   113    131    132  1      2
   114    113    132  1      2
   114    132    133  1      2
   115    114    133  1      2
   115    133    134  1      2
   116    115    134  1      2
   116    134    135  1      2
   117    116    135  1      2
   117    135    136  1      2
   118    117    136  1      2
   118    136    137  1      2
   119    118    137  1      2
   119    137    138  1      2
   120    119    138  1      2
   120    138    139  1      2
   121    120    139  1      2
   121    139    140  1      2
   122    121    140  1      2
   122    140    141  1      2
   123    122    141  1      2
   123    141    142  1      2
   124    123    142  1      2
   124    142    143  1      2
   125    124    143  1      2
   125    143    144  1      2
   126    125    144  1      2
   126    144    145  1      2
   109    126    145  1      2
   109    145    127  1      2
   109    127    128  1      2
   128    127    146  1      2
   128    146    147  1      2
   129    128    147  1      2
   129    147    148  1      2
   131    130    149  1      2
   131    149    150  1      2
   132    131    150  1      2
   132    150    151  1      2
   133    132    151  1      2
   133    151    152  1      2
   134    133    152  1      2
   134    152    153  1      2
   135    134    153  1      2
   135    153    154  1      2
   136    135    154  1      2
   136    154    155  1      2
   137    136    155  1      2
   137    155    156  1      2
   138    137    156  1      2
   138    156    157  1      2
   139    138    157  1      2
   139    157    158  1      2
   140    139    158  1      2
   140    158    159  1      2
   141    140    159  1      2
   141    159    160  1      2
   142    141    160  1      2
   142    160    161  1      2
   143    142    161  1      2
   143    161    162  1      2
   144    143    162  1      2
   144    162    163  1      2
   145    144    163  1      2
   146    145    163  1      2
   127    145    146  1      2
   147    146    164  1      2
   147    164    165  1      2
   148    147    165  1      2
   148    165    166  1      2
   149    167    168  1      2
   150    149    168  1      2
   151    150    168  1      2
   151    168    169  1      2
   152    151    169  1      2
   152    169    170  1      2
   153    152    170  1      2
   153    170    171  1      2
   154    153    171  1      2
   154    171    172  1      2
   155    154    172  1      2
   155    172    173  1      2
   156    155    173  1      2
   156    173    174  1      2
   157    156    174  1      2
   157    174    175  1      2
   158    157    175  1      2
   158    175    176  1      2
   159    158    176  1      2
   159    176    177  1      2
   160    159    177  1      2
   160    177    178  1      2
   161    160    178  1      2
   161    178    179  1      2
   162    161    179  1      2
   162    179    180  1      2
   163    162    180  1      2
   164    163    180  1      2
   146    163    164  1      2
   165    164    181  1      2
   165    181    182  1      2
   166    165    182  1      2
   166    182    183  1      2
   167    184    185  1      2
   168    167    185  1      2
   169    168    185  1      2
   169    185    186  1      2
   170    169    186  1      2
   170    186    187  1      2
   171    170    187  1      2
   171    187    188  1      2
   172    171    188  1      2
   172    188    189  1      2
   173    172    189  1      2
   173    189    190  1      2
   174    173    190  1      2
   174    190    191  1      2
   175    174    191  1      2
   176    175    191  1      2
   176    191    192  1      2
   177    176    192  1      2
   177    192    193  1      2
   178    177    193  1      2
   178    193    194  1      2
   179    178    194  1      2
   179    194    195  1      2
   180    179    195  1      2
   181    180    195  1      2
   164    180    181  1      2
   182    181    196  1      2
   182    196    197  1      2
   183    182    197  1      2
   183    197    198  1      2
   184    199    200  1      2
   185    184    200  1      2
   185    200    201  1      2
   186    185    201  1      2
   187    186    201  1      2
   187    201    202  1      2
   188    187    202  1      2
   188    202    203  1      2
   189    188    203  1      2
   189    203    204  1      2
   190    189    204  1      2
   190    204    205  1      2
   191    190    205  1      2
   192    191    205  1      2
   192    205    206  1      2
   193    192    206  1      2
   193    206    207  1      2
   194    193    207  1      2
   194    207    208  1      2
   195    194    208  1      2
   196    195    208  1      2
   181    195    196  1      2
   197    196    209  1      2
   197    209    210  1      2
   198    197    210  1      2
   198    210    211  1      2
   200    199    214  1      2
   200    214    215  1      2
   201    200    215  1      2
   201    215    216  1      2
   202    201    216  1      2
   203    202    216  1      2
   203    216    217  1      2
   204    203    217  1      2
   204    217    218  1      2
   205    204    218  1      2
   205    218    219  1      2
   206    205    219  1      2
   207    206    219  1      2
   207    219    220  1      2
   208    207    220  1      2
   209    208    220  1      2
   196    208    209  1      2
   210    209    221  1      2
   210    221    222  1      2
   211    210    222  1      2
   212    211    222  1      2
   212    222    223  1      2
   213    212    223  1      2
   214    213    223  1      2
   214    223    224  1      2
   215    214    224  1      2
   216    215    224  1      2
   216    224    225  1      2
   217    216    225  1      2
   218    217    225  1      2
   218    225    226  1      2
   219    218    226  1      2
   220    219    226  1      2
   221    220    226  1      2
   209    220    221  1      2
   222    221    227  1      2
   223    222    227  1      2
   224    223    227  1      2
   225    224    227  1      2
   226    225    227  1      2
   221    226    227  1      2
   214    199    213  1      2
   213    199     15  1      2
   213     15     13  1      2
   213     13    212  1      2
   212     13     11  1      2
   212     11    211  1      2
   211     11      9  1      2
   211      9    198  1      2
   198      9      7  1      2
   198      7    183  1      2
   183      7      5  1      2
   183      5    166  1      2
   166      5      3  1      2
   166      3    148  1      2
   148      3      1  1      2
   148      1    129  1      2
   129      1    111  1      2
   111      1     43  1      2
   111     43     94  1      2
    94     43     41  1      2
    94     41     79  1      2
    79     41     39  1      2
    79     39     66  1      2
    66     39     37  1      2
    66     37     54  1      2
    54     37     35  1      2
    54     35     55  1      2
    55     35     33  1      2
    55     33     56  1      2
    56     33     31  1      2
    56     31     67  1      2
    56     67     57  1      2
    67     31     29  1      2
    67     29     80  1      2
    80     29     27  1      2
    80     27     95  1      2
    95     27     25  1      2
    95     25    112  1      2
   112     25    130  1      2
   130     25     23  1      2
   130     23     21  1      2
   130     21    149  1      2
   149     21    167  1      2
   167     21     19  1      2
   167     19    184  1      2
   184     19     17  1      2
   184     17    199  1      2
   199     17     15  1      2
   228    229    230  1      3
   228    230    231  1      3
   228    231    232  1      3
   228    232    233  1      3
   228    233    234  1      3
   228    234    229  1      3
   230    229    236  1      3
   230    236    237  1      3
   230    237    238  1      3
   231    230    238  1      3
   231    238    239  1      3
   231    239    240  1      3
   232    231    240  1      3
   232    240    241  1      3
   232    241    242  1      3
   233    232    242  1      3
   233    242    243  1      3
   233    243    244  1      3
   234    233    244  1      3
   234    244    245  1      3
   234    245    246  1      3
   229    234    246  1      3
   229    246    235  1      3
   229    235    236  1      3
   236    235    248  1      3
   236    248    249  1      3
   237    236    249  1      3
   237    249    250  1      3
   237    250    251  1      3
   238    237    251  1      3
   238    251    252  1      3
   239    238    252  1      3
   239    252    253  1      3
   240    239    253  1      3
   240    253    254  1      3
   240    254    255  1      3
   241    240    255  1      3
   241    255    256  1      3
   242    241    256  1      3
   242    256    257  1      3
   246    245    258  1      3
   246    258    259  1      3
   235    246    259  1      3
   235    259    247  1      3
   235    247    248  1      3
   248    247    261  1      3
   248    261    262  1      3
   249    248    262  1      3
   249    262    263  1      3
   250    249    263  1      3
   250    263    264  1      3
   251    250    264  1      3
   251    264    265  1      3
   251    265    266  1      3
   252    251    266  1      3
   252    266    267  1      3
   253    252    267  1      3
   253    267    268  1      3
   254    253    268  1      3
   254    268    269  1      3
   255    254    269  1      3
   255    269    270  1      3
   256    255    270  1      3
   256    270    271  1      3
   256    271    272  1      3
   257    256    272  1      3
   259    258    273  1      3
   259    273    274  1      3
   247    259    274  1      3
   247    274    260  1      3
   247    260    261  1      3
   261    260    276  1      3
   261    276    277  1      3
   262    261    277  1      3
   262    277    278  1      3
   263    262    278  1      3
   263    278    279  1      3
   264    263    279  1      3
   264    279    280  1      3
   265    264    280  1      3
   265    280    281  1      3
   265    281    282  1      3
   266    265    282  1      3
   266    282    283  1      3
   267    266    283  1      3
   267    283    284  1      3
   268    267    284  1      3
   268    284    285  1      3
   269    268    285  1      3
   269    285    286  1      3
   270    269    286  1      3
   270    286    287  1      3
   271    270    287  1      3
   271    287    288  1      3
   271    288    289  1      3
   272    271    289  1      3
   274    273    290  1      3
   274    290    291  1      3
   260    274    291  1      3
   260    291    275  1      3
   260    275    276  1      3
   276    275    293  1      3
   276    293    294  1      3
   277    276    294  1      3
   277    294    295  1      3
   278    277    295  1      3
   278    295    296  1      3
   279    278    296  1      3
   279    296    297  1      3
   280    279    297  1      3
   280    297    298  1      3
   281    280    298  1      3
   281    298    299  1      3
   282    281    299  1      3
   282    299    300  1      3
   283    282    300  1      3
   283    300    301  1      3
   284    283    301  1      3
   284    301    302  1      3
   285    284    302  1      3
   285    302    303  1      3
   286    285    303  1      3
   286    303    304  1      3
   287    286    304  1      3
   287    304    305  1      3
   287    305    306  1      3
   288    287    306  1      3
   288    306    307  1      3
   289    288    307  1      3
   291    290    308  1      3
   291    308    309  1      3
   275    291    309  1      3
   275    309    292  1      3
   275    292    293  1      3
   293    292    311  1      3
   293    311    312  1      3
   294    293    312  1      3
   294    312    313  1      3
   295    294    313  1      3
   295    313    314  1      3
   296    295    314  1      3
   296    314    315  1      3
   297    296    315  1      3
   297    315    316  1      3
   298    297    316  1      3
   298    316    317  1      3
   299    298    317  1      3
   299    317    318  1      3
   300    299    318  1      3
   300    318    319  1      3
   301    300    319  1      3
   301    319    320  1      3
   302    301    320  1      3
   302    320    321  1      3
   303    302    321  1      3
   303    321    322  1      3
   304    303    322  1      3
   304    322    323  1      3
   305    304    323  1      3
   305    323    324  1      3
   306    305    324  1      3
   306    324    325  1      3
   307    306    325  1      3
   307    325    326  1      3
   309    308    327  1      3
   309    327    328  1      3
   292    309    328  1      3
   292    328    310  1      3
   292    310    311  1      3
   311    310    329  1      3
   311    329    330  1      3
   312    311    330  1      3
   312    330    331  1      3
   313    312    331  1      3
   313    331    332  1      3
   314    313    332  1      3
   314    332    333  1      3
   315    314    333  1      3
   315    333    334  1      3
   316    315    334  1      3
   316    334    335  1      3
   317    316    335  1      3
   317    335    336  1      3
   318    317    336  1      3
   318    336    337  1      3
   319    318    337  1      3
   319    337    338  1      3
   320    319    338  1      3
   320    338    339  1      3
   321    320    339  1      3
   321    339    340  1      3
   322    321    340  1      3
   322    340    341  1      3
   323    322    341  1      3
   323    341    342  1      3
   324    323    342  1      3
   324    342    343  1      3
   325    324    343  1      3
   325    343    344  1      3
   326    325    344  1      3
   327    345    346  1      3
   328    327    346  1      3
   329    328    346  1      3
   310    328    329  1      3
   330    329    347  1      3
   330    347    348  1      3
   331    330    348  1      3
   331    348    349  1      3
   332    331    349  1      3
   332    349    350  1      3
   333    332    350  1      3
   333    350    351  1      3
   334    333    351  1      3
   334    351    352  1      3
   335    334    352  1      3
   335    352    353  1      3
   336    335    353  1      3
   336    353    354  1      3
   337    336    354  1      3
   337    354    355  1      3
   338    337    355  1      3
   338    355    356  1      3
   339    338    356  1      3
   339    356    357  1      3
   340    339    357  1      3
   340    357    358  1      3
   341    340    358  1      3
   341    358    359  1      3
   342    341    359  1      3
   343    342    359  1      3
   343    359    360  1      3
   344    343    360  1      3
   344    360    361  1      3
   345    362    363  1      3
   346    345    363  1      3
   347    346    363  1      3
   329    346    347  1      3
   348    347    364  1      3
   348    364    365  1      3
   349    348    365  1      3
   349    365    366  1      3
   350    349    366  1      3
   350    366    367  1      3
   351    350    367  1      3
   351    367    368  1      3
   352    351    368  1      3
   352    368    369  1      3
   353    352    369  1      3
   354    353    369  1      3
   354    369    370  1      3
   355    354    370  1      3
   355    370    371  1      3
   356    355    371  1      3
   356    371    372  1      3
   357    356    372  1      3
   357    372    373  1      3
   358    357    373  1      3
   358    373    374  1      3
   359    358    374  1      3
   360    359    374  1      3
   360    374    375  1      3
   361    360    375  1      3
   361    375    376  1      3
   362    377    378  1      3
   363    362    378  1      3
   364    363    378  1      3
   347    363    364  1      3
   365    364    379  1      3
   365    379    380  1      3
   366    365    380  1      3
   366    380    381  1      3
   367    366    381  1      3
   367    381    382  1      3
   368    367    382  1      3
   368    382    383  1      3
   369    368    383  1      3
   370    369    383  1      3
   370    383    384  1      3
   371    370    384  1      3
   371    384    385  1      3
   372    371    385  1      3
   372    385    386  1      3
   373    372    386  1      3
   373    386    387  1      3
   374    373    387  1      3
   374    387    388  1      3
   375    374    388  1      3
   376    375    388  1      3
   376    388    389  1      3
   377    390    391  1      3
   378    377    391  1      3
   379    378    391  1      3
   364    378    379  1      3
   380    379    392  1      3
   380    392    393  1      3
   381    380    393  1      3
   381    393    394  1      3
   382    381    394  1      3
   383    382    394  1      3
   383    394    395  1      3
   384    383    395  1      3
   384    395    396  1      3
   385    384    396  1      3
   385    396    397  1      3
   386    385    397  1      3
   387    386    397  1      3
   387    397    398  1      3
   388    387    398  1      3
   388    398    399  1      3
   389    388    399  1      3
   390    402    403  1      3
   391    390    403  1      3
   392    391    403  1      3
   379    391    392  1      3
   393    392    404  1      3
   393    404    405  1      3
   394    393    405  1      3
   395    394    405  1      3
   395    405    406  1      3
   396    395    406  1      3
   397    396    406  1      3
   397    406    407  1      3
   398    397    407  1      3
   399    398    407  1      3
   399    407    408  1      3
   400    399    408  1      3
   401    400    408  1      3
   401    408    409  1      3
   402    401    409  1      3
   403    402    409  1      3
   404    403    409  1      3
   392    403    404  1      3
   405    404    410  1      3
   406    405    410  1      3
   407    406    410  1      3
   408    407    410  1      3
   409    408    410  1      3
   404    409    410  1      3
   402    390     10  1      3
   402     10     12  1      3
   402     12    401  1      3
   401     12     14  1      3
   401     14    400  1      3
   400     14     16  1      3
   400     16    389  1      3
   400    389    399  1      3
   389     16     18  1      3
   389     18    376  1      3
   376     18     20  1      3
   376     20    361  1      3
   361     20     22  1      3
   361     22    344  1      3
   344     22    326  1      3
   326     22     24  1      3
   326     24     26  1      3
   326     26    307  1      3
   307     26    289  1      3
   289     26     28  1      3
   289     28    272  1      3
   272     28     30  1      3
   272     30    257  1      3
   257     30     32  1      3
   257     32    243  1      3
   257    243    242  1      3
   243     32     34  1      3
   243     34    244  1      3
   244     34     36  1      3
   244     36    245  1      3
   245     36     38  1      3
   245     38    258  1      3
   258     38     40  1      3
   258     40    273  1      3
   273     40     42  1      3
   273     42    290  1      3
   290     42     44  1      3
   290     44    308  1      3
   308     44      2  1      3
   308      2    327  1      3
   327      2    345  1      3
   345      2      4  1      3
   345      4    362  1      3
   362      4      6  1      3
   362      6    377  1      3
   377      6      8  1      3
   377      8    390  1      3
   390      8     10  1      3
