# MSMS solvent excluded surface faces for FAb.xyzr
#faces  #sphere density probe_r
   1152       4  2.00  1.00
     1     13      2  3      3
     2     13     14  3      3
    13     15     14  3      3
    14     15     16  3      3
    15     17     16  3      3
    16     17     18  3      3
    17     19     18  3      3
    18     19     20  3      3
    19     21     20  3      3
    20     21     22  3      3
    21     23     22  3      3
    22     23     24  3      3
    23      5     24  3      3
    24      5      4  3      3
     5     25      6  3      4
     6     25     26  3      4
    25     27     26  3      4
    26     27     28  3      4
    27     29     28  3      4
    28     29     30  3      4
    29     31     30  3      4
    30     31     32  3      4
    31     33     32  3      4
    32     33     34  3      4
    33     35     34  3      4
    34     35     36  3      4
    35     37     36  3      4
    36     37     38  3      4
    37     39     38  3      4
    38     39     40  3      4
    39     41     40  3      4
    40     41     42  3      4
    41     43     42  3      4
    42     43     44  3      4
    43     45     44  3      4
    44     45     46  3      4
    45     47     46  3      4
    46     47     48  3      4
    47     49     48  3      4
    48     49     50  3      4
    49     51     50  3      4
    50     51     52  3      4
    51     53     52  3      4
    52     53     54  3      4
    53     55     54  3      4
    54     55     56  3      4
    55     57     56  3      4
    56     57     58  3      4
    57     59     58  3      4
    58     59     60  3      4
    59      1     60  3      4
    60      1      3  3      4
     6     61      4  3      6
     4     61     62  3      6
    61     63     62  3      6
    62     63     64  3      6
    63     65     64  3      6
    64     65     66  3      6
    65     67     66  3      6
    66     67     68  3      6
    67     69     68  3      6
    68     69     70  3      6
    69      8     70  3      6
    70      8      7  3      6
     8     71      9  3      8
     9     71     72  3      8
    71     73     72  3      8
    72     73     74  3      8
    73     75     74  3      8
    74     75     76  3      8
    75     77     76  3      8
    76     77     78  3      8
    77     79     78  3      8
    78     79     80  3      8
    79     81     80  3      8
    80     81     82  3      8
    81     11     82  3      8
    82     11     10  3      8
    11     83     12  3      9
    12     83     84  3      9
    83     85     84  3      9
    84     85     86  3      9
    85     87     86  3      9
    86     87     88  3      9
    87     89     88  3      9
    88     89     90  3      9
    89     91     90  3      9
    90     91     92  3      9
    91      3     92  3      9
    92      3      2  3      9
    12     93     10  3     10
    10     93     94  3     10
    93     95     94  3     10
    94     95     96  3     10
    95     97     96  3     10
    96     97     98  3     10
    97     99     98  3     10
    98     99    100  3     10
    99    101    100  3     10
   100    101    102  3     10
   101    103    102  3     10
   102    103    104  3     10
   103    105    104  3     10
   104    105    106  3     10
   105    107    106  3     10
   106    107    108  3     10
   107    109    108  3     10
   108    109    110  3     10
   109    111    110  3     10
   110    111    112  3     10
   111    113    112  3     10
   112    113    114  3     10
   113    115    114  3     10
   114    115    116  3     10
   115    117    116  3     10
   116    117    118  3     10
   117    119    118  3     10
   118    119    120  3     10
   119    121    120  3     10
   120    121    122  3     10
   121    123    122  3     10
   122    123    124  3     10
   123    125    124  3     10
   124    125    126  3     10
   125    127    126  3     10
   126    127    128  3     10
   127      7    128  3     10
   128      7      9  3     10
     3      1      2  2      1
     6      4      5  2      2
     9      7      8  2      5
    12     10     11  2      7
   129    130    131  1     11
   129    131    132  1     11
   129    132    133  1     11
   129    133    134  1     11
   129    134    135  1     11
   129    135    130  1     11
   132    137    138  1     11
   133    132    138  1     11
   133    138    139  1     11
   133    139    140  1     11
   134    133    140  1     11
   134    140    141  1     11
   134    141    142  1     11
   135    134    142  1     11
   135    142    143  1     11
   135    143    144  1     11
   130    135    144  1     11
   130    144    136  1     11
   138    137    145  1     11
   138    145    146  1     11
   138    146    147  1     11
   139    138    147  1     11
   139    147    148  1     11
   140    139    148  1     11
   140    148    149  1     11
   140    149    150  1     11
   141    140    150  1     11
   141    150    151  1     11
   142    141    151  1     11
   142    151    152  1     11
   143    142    152  1     11
   143    152    153  1     11
   143    153    154  1     11
   144    143    154  1     11
   144    154    155  1     11
   136    144    155  1     11
   147    146    156  1     11
   147    156    157  1     11
   148    147    157  1     11
   148    157    158  1     11
   148    158    159  1     11
   149    148    159  1     11
   149    159    160  1     11
   150    149    160  1     11
   150    160    161  1     11
   151    150    161  1     11
   151    161    162  1     11
   152    151    162  1     11
   152    162    163  1     11
   152    163    164  1     11
   153    152    164  1     11
   153    164    165  1     11
   154    153    165  1     11
   154    165    166  1     11
   155    154    166  1     11
   155    166    167  1     11
   157    156    168  1     11
   157    168    169  1     11
   158    157    169  1     11
   158    169    170  1     11
   158    170    171  1     11
   159    158    171  1     11
   159    171    172  1     11
   160    159    172  1     11
   160    172    173  1     11
   161    160    173  1     11
   161    173    174  1     11
   162    161    174  1     11
   162    174    175  1     11
   163    162    175  1     11
   163    175    176  1     11
   163    176    177  1     11
   164    163    177  1     11
   164    177    178  1     11
   165    164    178  1     11
   165    178    179  1     11
   166    165    179  1     11
   166    179    180  1     11
   167    166    180  1     11
   167    180    181  1     11
   169    168    182  1     11
   169    182    183  1     11
   169    183    184  1     11
   170    169    184  1     11
   170    184    185  1     11
   171    170    185  1     11
   171    185    186  1     11
   172    171    186  1     11
   172    186    187  1     11
   173    172    187  1     11
   173    187    188  1     11
   174    173    188  1     11
   174    188    189  1     11
   175    174    189  1     11
   175    189    190  1     11
   176    175    190  1     11
   176    190    191  1     11
   177    176    191  1     11
   177    191    192  1     11
   178    177    192  1     11
   178    192    193  1     11
   179    178    193  1     11
   179    193    194  1     11
   180    179    194  1     11
   180    194    195  1     11
   181    180    195  1     11
   182    196    197  1     11
   183    182    197  1     11
   183    197    198  1     11
   184    183    198  1     11
   184    198    199  1     11
   185    184    199  1     11
   185    199    200  1     11
   186    185    200  1     11
   186    200    201  1     11
   187    186    201  1     11
   187    201    202  1     11
   188    187    202  1     11
   188    202    203  1     11
   189    188    203  1     11
   189    203    204  1     11
   190    189    204  1     11
   190    204    205  1     11
   191    190    205  1     11
   191    205    206  1     11
   192    191    206  1     11
   192    206    207  1     11
   193    192    207  1     11
   193    207    208  1     11
   194    193    208  1     11
   194    208    209  1     11
   195    194    209  1     11
   195    209    210  1     11
   197    196    211  1     11
   197    211    212  1     11
   198    197    212  1     11
   198    212    213  1     11
   199    198    213  1     11
   199    213    214  1     11
   200    199    214  1     11
   200    214    215  1     11
   201    200    215  1     11
   201    215    216  1     11
   202    201    216  1     11
   202    216    217  1     11
   203    202    217  1     11
   203    217    218  1     11
   204    203    218  1     11
   204    218    219  1     11
   205    204    219  1     11
   205    219    220  1     11
   206    205    220  1     11
   206    220    221  1     11
   207    206    221  1     11
   207    221    222  1     11
   208    207    222  1     11
   208    222    223  1     11
   209    208    223  1     11
   209    223    224  1     11
   210    209    224  1     11
   211    225    226  1     11
   212    211    226  1     11
   213    212    226  1     11
   213    226    227  1     11
   214    213    227  1     11
   214    227    228  1     11
   215    214    228  1     11
   215    228    229  1     11
   216    215    229  1     11
   216    229    230  1     11
   217    216    230  1     11
   217    230    231  1     11
   218    217    231  1     11
   218    231    232  1     11
   219    218    232  1     11
   219    232    233  1     11
   220    219    233  1     11
   220    233    234  1     11
   221    220    234  1     11
   221    234    235  1     11
   222    221    235  1     11
   222    235    236  1     11
   223    222    236  1     11
   223    236    237  1     11
   224    223    237  1     11
   224    237    238  1     11
   225    239    240  1     11
   226    225    240  1     11
   227    226    240  1     11
   227    240    241  1     11
   228    227    241  1     11
   228    241    242  1     11
   229    228    242  1     11
   229    242    243  1     11
   230    229    243  1     11
   230    243    244  1     11
   231    230    244  1     11
   231    244    245  1     11
   232    231    245  1     11
   232    245    246  1     11
   233    232    246  1     11
   234    233    246  1     11
   234    246    247  1     11
   235    234    247  1     11
   235    247    248  1     11
   236    235    248  1     11
   236    248    249  1     11
   237    236    249  1     11
   237    249    250  1     11
   238    237    250  1     11
   239    252    253  1     11
   240    239    253  1     11
   240    253    254  1     11
   241    240    254  1     11
   242    241    254  1     11
   242    254    255  1     11
   243    242    255  1     11
   243    255    256  1     11
   244    243    256  1     11
   244    256    257  1     11
   245    244    257  1     11
   245    257    258  1     11
   246    245    258  1     11
   247    246    258  1     11
   247    258    259  1     11
   248    247    259  1     11
   248    259    260  1     11
   249    248    260  1     11
   249    260    261  1     11
   250    249    261  1     11
   251    263    264  1     11
   252    251    264  1     11
   253    252    264  1     11
   253    264    265  1     11
   254    253    265  1     11
   254    265    266  1     11
   255    254    266  1     11
   256    255    266  1     11
   256    266    267  1     11
   257    256    267  1     11
   257    267    268  1     11
   258    257    268  1     11
   258    268    269  1     11
   259    258    269  1     11
   260    259    269  1     11
   260    269    270  1     11
   261    260    270  1     11
   262    261    270  1     11
   264    263    273  1     11
   264    273    274  1     11
   265    264    274  1     11
   266    265    274  1     11
   266    274    275  1     11
   267    266    275  1     11
   268    267    275  1     11
   268    275    276  1     11
   269    268    276  1     11
   270    269    276  1     11
   271    270    276  1     11
   262    270    271  1     11
   272    271    277  1     11
   273    272    277  1     11
   274    273    277  1     11
   275    274    277  1     11
   276    275    277  1     11
   271    276    277  1     11
   273    263     57  1     11
   273     57    272  1     11
   272     57     55  1     11
   272     55     53  1     11
   272     53    271  1     11
   271     53    262  1     11
   262     53     51  1     11
   262     51    261  1     11
   261     51     49  1     11
   261     49    250  1     11
   250     49     47  1     11
   250     47    238  1     11
   238     47     45  1     11
   238     45    224  1     11
   224     45     43  1     11
   224     43    210  1     11
   210     43     41  1     11
   210     41    195  1     11
   195     41     39  1     11
   195     39    181  1     11
   181     39     37  1     11
   181     37    167  1     11
   167     37     35  1     11
   167     35    155  1     11
   155     35     33  1     11
   155     33    136  1     11
   136     33     31  1     11
   136     31    130  1     11
   130     31    131  1     11
   131     31     29  1     11
   131     29     27  1     11
   131     27    132  1     11
   132     27    137  1     11
   137     27     25  1     11
   137     25    145  1     11
   145     25      5  1     11
   145      5     23  1     11
   145     23    146  1     11
   146     23    156  1     11
   156     23     21  1     11
   156     21    168  1     11
   168     21    182  1     11
   182     21     19  1     11
   182     19    196  1     11
   196     19     17  1     11
   196     17    211  1     11
   211     17     15  1     11
   211     15    225  1     11
   225     15    239  1     11
   239     15     13  1     11
   239     13    252  1     11
   252     13    251  1     11
   251     13      1  1     11
   251      1     59  1     11
   251     59    263  1     11
   263     59     57  1     11
   278    279    280  1     12
   278    280    281  1     12
   278    281    282  1     12
   278    282    283  1     12
   278    283    284  1     12
   278    284    279  1     12
   281    286    287  1     12
   282    281    287  1     12
   282    287    288  1     12
   282    288    289  1     12
   283    282    289  1     12
   283    289    290  1     12
   287    286    291  1     12
   287    291    292  1     12
   287    292    293  1     12
   288    287    293  1     12
   288    293    294  1     12
   289    288    294  1     12
   289    294    295  1     12
   289    295    296  1     12
   290    289    296  1     12
   292    291    297  1     12
   292    297    298  1     12
   293    292    298  1     12
   293    298    299  1     12
   294    293    299  1     12
   294    299    300  1     12
   294    300    301  1     12
   295    294    301  1     12
   298    297    302  1     12
   298    302    303  1     12
   299    298    303  1     12
   299    303    304  1     12
   300    299    304  1     12
   300    304    305  1     12
   300    305    306  1     12
   301    300    306  1     12
   303    302    307  1     12
   303    307    308  1     12
   304    303    308  1     12
   304    308    309  1     12
   304    309    310  1     12
   305    304    310  1     12
   305    310    311  1     12
   306    305    311  1     12
   307    312    313  1     12
   308    307    313  1     12
   308    313    314  1     12
   309    308    314  1     12
   309    314    315  1     12
   310    309    315  1     12
   310    315    316  1     12
   311    310    316  1     12
   311    316    317  1     12
   313    312    318  1     12
   313    318    319  1     12
   314    313    319  1     12
   314    319    320  1     12
   315    314    320  1     12
   315    320    321  1     12
   316    315    321  1     12
   316    321    322  1     12
   317    316    322  1     12
   318    323    324  1     12
   319    318    324  1     12
   319    324    325  1     12
   320    319    325  1     12
   321    320    325  1     12
   321    325    326  1     12
   322    321    326  1     12
   322    326    327  1     12
   323    328    329  1     12
   324    323    329  1     12
   324    329    330  1     12
   325    324    330  1     12
   326    325    330  1     12
   326    330    331  1     12
   327    326    331  1     12
   327    331    332  1     12
   328    333    334  1     12
   329    328    334  1     12
   329    334    335  1     12
   330    329    335  1     12
   330    335    336  1     12
   331    330    336  1     12
   332    331    336  1     12
   332    336    337  1     12
   333    340    341  1     12
   334    333    341  1     12
   335    334    341  1     12
   335    341    342  1     12
   336    335    342  1     12
   336    342    343  1     12
   337    336    343  1     12
   338    337    343  1     12
   338    343    344  1     12
   341    340    347  1     12
   341    347    348  1     12
   342    341    348  1     12
   343    342    348  1     12
   343    348    349  1     12
   344    343    349  1     12
   346    345    351  1     12
   347    346    351  1     12
   348    347    351  1     12
   349    348    351  1     12
   350    349    351  1     12
   345    350    351  1     12
   350    345     86  1     12
   350     86     88  1     12
   350     88     90  1     12
   350     90    349  1     12
   349     90    344  1     12
   344     90     92  1     12
   344     92    338  1     12
   338     92      2  1     12
   338      2     14  1     12
   338     14    337  1     12
   337     14    332  1     12
   332     14     16  1     12
   332     16    327  1     12
   327     16    322  1     12
   322     16     18  1     12
   322     18    317  1     12
   317     18     20  1     12
   317     20    311  1     12
   311     20     22  1     12
   311     22    306  1     12
   306     22    301  1     12
   301     22     24  1     12
   301     24    295  1     12
   295     24    296  1     12
   296     24      4  1     12
   296      4     62  1     12
   296     62    290  1     12
   290     62     64  1     12
   290     64    283  1     12
   283     64    284  1     12
   284     64     66  1     12
   284     66     68  1     12
   284     68    279  1     12
   279     68    285  1     12
   279    285    125  1     12
   279    125    280  1     12
   280    125    123  1     12
   280    123    121  1     12
   280    121    281  1     12
   281    121    286  1     12
   286    121    119  1     12
   286    119    291  1     12
   291    119    117  1     12
   291    117    297  1     12
   297    117    115  1     12
   297    115    302  1     12
   302    115    113  1     12
   302    113    307  1     12
   307    113    111  1     12
   307    111    312  1     12
   312    111    109  1     12
   312    109    318  1     12
   318    109    107  1     12
   318    107    323  1     12
   323    107    105  1     12
   323    105    328  1     12
   328    105    103  1     12
   328    103    333  1     12
   333    103    101  1     12
   333    101    340  1     12
   340    101     99  1     12
   340     99    347  1     12
   347     99    346  1     12
   346     99     97  1     12
   346     97     95  1     12
   346     95    345  1     12
   345     95    339  1     12
   345    339     86  1     12
    86    339     84  1     12
    84    339     93  1     12
    84     93     12  1     12
    93    339     95  1     12
   125    285    127  1     12
   127    285     70  1     12
   127     70      7  1     12
    70    285     68  1     12
   352    353    354  1     13
   352    354    355  1     13
   352    355    356  1     13
   352    356    357  1     13
   352    357    358  1     13
   352    358    353  1     13
   354    353    360  1     13
   354    360    361  1     13
   358    363    364  1     13
   353    358    364  1     13
   353    364    359  1     13
   353    359    360  1     13
   360    359    366  1     13
   360    366    367  1     13
   361    360    367  1     13
   364    363    368  1     13
   364    368    369  1     13
   359    364    369  1     13
   359    369    365  1     13
   359    365    366  1     13
   366    365    371  1     13
   366    371    372  1     13
   367    366    372  1     13
   369    368    373  1     13
   369    373    374  1     13
   365    369    374  1     13
   365    374    370  1     13
   365    370    371  1     13
   371    370    376  1     13
   371    376    377  1     13
   372    371    377  1     13
   373    378    379  1     13
   374    373    379  1     13
   374    379    380  1     13
   370    374    380  1     13
   370    380    375  1     13
   370    375    376  1     13
   376    375    382  1     13
   376    382    383  1     13
   377    376    383  1     13
   379    378    384  1     13
   379    384    385  1     13
   380    379    385  1     13
   380    385    386  1     13
   375    380    386  1     13
   375    386    381  1     13
   375    381    382  1     13
   382    381    388  1     13
   382    388    389  1     13
   383    382    389  1     13
   385    384    390  1     13
   385    390    391  1     13
   386    385    391  1     13
   386    391    392  1     13
   381    386    392  1     13
   381    392    387  1     13
   381    387    388  1     13
   388    387    393  1     13
   388    393    394  1     13
   389    388    394  1     13
   389    394    395  1     13
   390    396    397  1     13
   391    390    397  1     13
   391    397    398  1     13
   392    391    398  1     13
   393    392    398  1     13
   387    392    393  1     13
   394    393    399  1     13
   394    399    400  1     13
   395    394    400  1     13
   395    400    401  1     13
   396    402    403  1     13
   397    396    403  1     13
   397    403    404  1     13
   398    397    404  1     13
   399    398    404  1     13
   393    398    399  1     13
   400    399    405  1     13
   400    405    406  1     13
   401    400    406  1     13
   401    406    407  1     13
   403    402    408  1     13
   403    408    409  1     13
   404    403    409  1     13
   405    404    409  1     13
   399    404    405  1     13
   406    405    410  1     13
   406    410    411  1     13
   407    406    411  1     13
   407    411    412  1     13
   408    413    414  1     13
   409    408    414  1     13
   410    409    414  1     13
   405    409    410  1     13
   411    410    415  1     13
   411    415    416  1     13
   412    411    416  1     13
   412    416    417  1     13
   413    419    420  1     13
   414    413    420  1     13
   415    414    420  1     13
   410    414    415  1     13
   416    415    421  1     13
   416    421    422  1     13
   417    416    422  1     13
   420    419    426  1     13
   421    420    426  1     13
   415    420    421  1     13
   422    421    427  1     13
   423    422    427  1     13
   424    423    427  1     13
   425    424    427  1     13
   426    425    427  1     13
   421    426    427  1     13
   426    419     54  1     13
   426     54    425  1     13
   425     54     56  1     13
   425     56     58  1     13
   425     58    424  1     13
   424     58    418  1     13
   424    418     89  1     13
   424     89    423  1     13
   423     89     87  1     13
   423     87     85  1     13
   423     85    422  1     13
   422     85    417  1     13
   417     85     83  1     13
   417     83    412  1     13
   412     83     11  1     13
   412     11     81  1     13
   412     81    407  1     13
   407     81     79  1     13
   407     79    401  1     13
   401     79    395  1     13
   395     79     77  1     13
   395     77    389  1     13
   389     77     75  1     13
   389     75    383  1     13
   383     75     73  1     13
   383     73    377  1     13
   377     73    372  1     13
   372     73     71  1     13
   372     71    367  1     13
   367     71      8  1     13
   367      8     69  1     13
   367     69    361  1     13
   361     69     67  1     13
   361     67    354  1     13
   354     67    355  1     13
   355     67     65  1     13
   355     65     63  1     13
   355     63    356  1     13
   356     63    362  1     13
   356    362     28  1     13
   356     28    357  1     13
   357     28     30  1     13
   357     30     32  1     13
   357     32    358  1     13
   358     32    363  1     13
   363     32     34  1     13
   363     34    368  1     13
   368     34     36  1     13
   368     36    373  1     13
   373     36     38  1     13
   373     38    378  1     13
   378     38     40  1     13
   378     40    384  1     13
   384     40     42  1     13
   384     42    390  1     13
   390     42     44  1     13
   390     44    396  1     13
   396     44     46  1     13
   396     46    402  1     13
   402     46     48  1     13
   402     48    408  1     13
   408     48     50  1     13
   408     50    413  1     13
   413     50     52  1     13
   413     52    419  1     13
   419     52     54  1     13
    28    362     26  1     13
    26    362     61  1     13
    26     61      6  1     13
    61    362     63  1     13
    89    418     91  1     13
    91    418     60  1     13
    91     60      3  1     13
    60    418     58  1     13
   428    429    430  1     14
   428    430    431  1     14
   428    431    432  1     14
   428    432    433  1     14
   428    433    434  1     14
   428    434    429  1     14
   430    429    436  1     14
   430    436    437  1     14
   430    437    438  1     14
   431    430    438  1     14
   431    438    439  1     14
   431    439    440  1     14
   432    431    440  1     14
   432    440    441  1     14
   434    442    443  1     14
   429    434    443  1     14
   429    443    435  1     14
   429    435    436  1     14
   436    435    445  1     14
   436    445    446  1     14
   437    436    446  1     14
   437    446    447  1     14
   437    447    448  1     14
   438    437    448  1     14
   438    448    449  1     14
   439    438    449  1     14
   439    449    450  1     14
   440    439    450  1     14
   440    450    451  1     14
   440    451    452  1     14
   441    440    452  1     14
   443    442    453  1     14
   443    453    454  1     14
   435    443    454  1     14
   435    454    444  1     14
   435    444    445  1     14
   445    444    456  1     14
   445    456    457  1     14
   446    445    457  1     14
   446    457    458  1     14
   447    446    458  1     14
   447    458    459  1     14
   448    447    459  1     14
   448    459    460  1     14
   448    460    461  1     14
   449    448    461  1     14
   449    461    462  1     14
   450    449    462  1     14
   450    462    463  1     14
   451    450    463  1     14
   451    463    464  1     14
   452    451    464  1     14
   454    453    465  1     14
   454    465    466  1     14
   444    454    466  1     14
   444    466    455  1     14
   444    455    456  1     14
   456    455    468  1     14
   456    468    469  1     14
   457    456    469  1     14
   457    469    470  1     14
   458    457    470  1     14
   458    470    471  1     14
   459    458    471  1     14
   459    471    472  1     14
   460    459    472  1     14
   460    472    473  1     14
   460    473    474  1     14
   461    460    474  1     14
   461    474    475  1     14
   462    461    475  1     14
   462    475    476  1     14
   463    462    476  1     14
   463    476    477  1     14
   464    463    477  1     14
   464    477    478  1     14
   466    465    479  1     14
   466    479    480  1     14
   455    466    480  1     14
   455    480    467  1     14
   455    467    468  1     14
   468    467    482  1     14
   468    482    483  1     14
   469    468    483  1     14
   469    483    484  1     14
   470    469    484  1     14
   470    484    485  1     14
   471    470    485  1     14
   471    485    486  1     14
   472    471    486  1     14
   472    486    487  1     14
   473    472    487  1     14
   473    487    488  1     14
   474    473    488  1     14
   474    488    489  1     14
   475    474    489  1     14
   475    489    490  1     14
   476    475    490  1     14
   476    490    491  1     14
   477    476    491  1     14
   477    491    492  1     14
   478    477    492  1     14
   478    492    493  1     14
   480    479    494  1     14
   480    494    495  1     14
   467    480    495  1     14
   467    495    481  1     14
   467    481    482  1     14
   482    481    497  1     14
   482    497    498  1     14
   483    482    498  1     14
   483    498    499  1     14
   484    483    499  1     14
   484    499    500  1     14
   485    484    500  1     14
   485    500    501  1     14
   486    485    501  1     14
   486    501    502  1     14
   487    486    502  1     14
   487    502    503  1     14
   488    487    503  1     14
   488    503    504  1     14
   489    488    504  1     14
   489    504    505  1     14
   490    489    505  1     14
   490    505    506  1     14
   491    490    506  1     14
   491    506    507  1     14
   492    491    507  1     14
   492    507    508  1     14
   493    492    508  1     14
   495    494    509  1     14
   495    509    510  1     14
   481    495    510  1     14
   481    510    496  1     14
   481    496    497  1     14
   497    496    511  1     14
   497    511    512  1     14
   498    497    512  1     14
   498    512    513  1     14
   499    498    513  1     14
   499    513    514  1     14
   500    499    514  1     14
   500    514    515  1     14
   501    500    515  1     14
   501    515    516  1     14
   502    501    516  1     14
   502    516    517  1     14
   503    502    517  1     14
   503    517    518  1     14
   504    503    518  1     14
   504    518    519  1     14
   505    504    519  1     14
   505    519    520  1     14
   506    505    520  1     14
   506    520    521  1     14
   507    506    521  1     14
   507    521    522  1     14
   508    507    522  1     14
   508    522    523  1     14
   509    524    525  1     14
   510    509    525  1     14
   511    510    525  1     14
   496    510    511  1     14
   512    511    526  1     14
   512    526    527  1     14
   513    512    527  1     14
   513    527    528  1     14
   514    513    528  1     14
   514    528    529  1     14
   515    514    529  1     14
   515    529    530  1     14
   516    515    530  1     14
   516    530    531  1     14
   517    516    531  1     14
   517    531    532  1     14
   518    517    532  1     14
   518    532    533  1     14
   519    518    533  1     14
   519    533    534  1     14
   520    519    534  1     14
   520    534    535  1     14
   521    520    535  1     14
   521    535    536  1     14
   522    521    536  1     14
   522    536    537  1     14
   523    522    537  1     14
   524    538    539  1     14
   525    524    539  1     14
   526    525    539  1     14
   511    525    526  1     14
   527    526    540  1     14
   527    540    541  1     14
   528    527    541  1     14
   528    541    542  1     14
   529    528    542  1     14
   529    542    543  1     14
   530    529    543  1     14
   530    543    544  1     14
   531    530    544  1     14
   531    544    545  1     14
   532    531    545  1     14
   533    532    545  1     14
   533    545    546  1     14
   534    533    546  1     14
   534    546    547  1     14
   535    534    547  1     14
   535    547    548  1     14
   536    535    548  1     14
   536    548    549  1     14
   537    536    549  1     14
   538    550    551  1     14
   539    538    551  1     14
   540    539    551  1     14
   526    539    540  1     14
   541    540    552  1     14
   541    552    553  1     14
   542    541    553  1     14
   542    553    554  1     14
   543    542    554  1     14
   543    554    555  1     14
   544    543    555  1     14
   544    555    556  1     14
   545    544    556  1     14
   546    545    556  1     14
   546    556    557  1     14
   547    546    557  1     14
   547    557    558  1     14
   548    547    558  1     14
   548    558    559  1     14
   549    548    559  1     14
   549    559    560  1     14
   550    561    562  1     14
   551    550    562  1     14
   552    551    562  1     14
   540    551    552  1     14
   553    552    563  1     14
   553    563    564  1     14
   554    553    564  1     14
   554    564    565  1     14
   555    554    565  1     14
   556    555    565  1     14
   556    565    566  1     14
   557    556    566  1     14
   557    566    567  1     14
   558    557    567  1     14
   558    567    568  1     14
   559    558    568  1     14
   560    559    568  1     14
   560    568    569  1     14
   561    570    571  1     14
   562    561    571  1     14
   563    562    571  1     14
   552    562    563  1     14
   564    563    572  1     14
   564    572    573  1     14
   565    564    573  1     14
   566    565    573  1     14
   566    573    574  1     14
   567    566    574  1     14
   568    567    574  1     14
   568    574    575  1     14
   569    568    575  1     14
   571    570    577  1     14
   572    571    577  1     14
   563    571    572  1     14
   573    572    578  1     14
   574    573    578  1     14
   575    574    578  1     14
   576    575    578  1     14
   577    576    578  1     14
   572    577    578  1     14
   577    570     96  1     14
   577     96    576  1     14
   576     96     98  1     14
   576     98    100  1     14
   576    100    575  1     14
   575    100    569  1     14
   569    100    102  1     14
   569    102    560  1     14
   560    102    104  1     14
   560    104    549  1     14
   549    104    106  1     14
   549    106    537  1     14
   537    106    108  1     14
   537    108    523  1     14
   523    108    110  1     14
   523    110    508  1     14
   508    110    112  1     14
   508    112    493  1     14
   493    112    114  1     14
   493    114    478  1     14
   478    114    116  1     14
   478    116    464  1     14
   464    116    118  1     14
   464    118    452  1     14
   452    118    120  1     14
   452    120    441  1     14
   441    120    122  1     14
   441    122    432  1     14
   432    122    433  1     14
   433    122    124  1     14
   433    124    126  1     14
   433    126    434  1     14
   434    126    442  1     14
   442    126    128  1     14
   442    128    453  1     14
   453    128      9  1     14
   453      9     72  1     14
   453     72    465  1     14
   465     72     74  1     14
   465     74    479  1     14
   479     74    494  1     14
   494     74     76  1     14
   494     76    509  1     14
   509     76     78  1     14
   509     78    524  1     14
   524     78     80  1     14
   524     80    538  1     14
   538     80    550  1     14
   550     80     82  1     14
   550     82    561  1     14
   561     82     10  1     14
   561     10     94  1     14
   561     94    570  1     14
   570     94     96  1     14
