# MSMS solvent excluded surface faces for DA2.xyzr
#faces  #sphere density probe_r
    664       2  2.00  1.00
     1      3      2  3      1
     2      3      4  3      1
     3      5      4  3      1
     4      5      6  3      1
     5      7      6  3      1
     6      7      8  3      1
     7      9      8  3      1
     8      9     10  3      1
     9     11     10  3      1
    10     11     12  3      1
    11     13     12  3      1
    12     13     14  3      1
    13     15     14  3      1
    14     15     16  3      1
    15     17     16  3      1
    16     17     18  3      1
    17     19     18  3      1
    18     19     20  3      1
    19     21     20  3      1
    20     21     22  3      1
    21     23     22  3      1
    22     23     24  3      1
    23     25     24  3      1
    24     25     26  3      1
    25     27     26  3      1
    26     27     28  3      1
    27     29     28  3      1
    28     29     30  3      1
    29     31     30  3      1
    30     31     32  3      1
    31     33     32  3      1
    32     33     34  3      1
    33     35     34  3      1
    34     35     36  3      1
    35     37     36  3      1
    36     37     38  3      1
    37     39     38  3      1
    38     39     40  3      1
    39     41     40  3      1
    40     41     42  3      1
    41     43     42  3      1
    42     43     44  3      1
    43     45     44  3      1
    44     45     46  3      1
    45     47     46  3      1
    46     47     48  3      1
    47     49     48  3      1
    48     49     50  3      1
    49     51     50  3      1
    50     51     52  3      1
    51      1     52  3      1
    52      1      2  3      1
    53     55     56  1      2
    53     56     57  1      2
    53     57     54  1      2
    55     59     60  1      2
    56     55     60  1      2
    56     60     61  1      2
    56     61     62  1      2
    57     56     62  1      2
    57     62     63  1      2
    57     63     64  1      2
    54     57     64  1      2
    54     64     58  1      2
    59     66     67  1      2
    60     59     67  1      2
    60     67     68  1      2
    60     68     69  1      2
    61     60     69  1      2
    61     69     70  1      2
    62     61     70  1      2
    62     70     71  1      2
    63     62     71  1      2
    63     71     72  1      2
    63     72     73  1      2
    64     63     73  1      2
    64     73     74  1      2
    58     64     74  1      2
    58     74     65  1      2
    67     66     76  1      2
    67     76     77  1      2
    67     77     78  1      2
    68     67     78  1      2
    68     78     79  1      2
    69     68     79  1      2
    69     79     80  1      2
    70     69     80  1      2
    70     80     81  1      2
    71     70     81  1      2
    71     81     82  1      2
    71     82     83  1      2
    72     71     83  1      2
    72     83     84  1      2
    73     72     84  1      2
    73     84     85  1      2
    74     73     85  1      2
    74     85     86  1      2
    65     74     86  1      2
    65     86     75  1      2
    77     76     88  1      2
    77     88     89  1      2
    77     89     90  1      2
    78     77     90  1      2
    78     90     91  1      2
    79     78     91  1      2
    79     91     92  1      2
    80     79     92  1      2
    80     92     93  1      2
    81     80     93  1      2
    81     93     94  1      2
    82     81     94  1      2
    82     94     95  1      2
    82     95     96  1      2
    83     82     96  1      2
    83     96     97  1      2
    84     83     97  1      2
    84     97     98  1      2
    85     84     98  1      2
    85     98     99  1      2
    86     85     99  1      2
    86     99    100  1      2
    75     86    100  1      2
    75    100     87  1      2
    88    102    103  1      2
    89     88    103  1      2
    89    103    104  1      2
    90     89    104  1      2
    90    104    105  1      2
    91     90    105  1      2
    91    105    106  1      2
    92     91    106  1      2
    92    106    107  1      2
    93     92    107  1      2
    93    107    108  1      2
    94     93    108  1      2
    94    108    109  1      2
    95     94    109  1      2
    95    109    110  1      2
    96     95    110  1      2
    96    110    111  1      2
    97     96    111  1      2
    97    111    112  1      2
    98     97    112  1      2
    98    112    113  1      2
    99     98    113  1      2
    99    113    114  1      2
   100     99    114  1      2
   100    114    115  1      2
    87    100    115  1      2
    87    115    101  1      2
   103    102    117  1      2
   103    117    118  1      2
   104    103    118  1      2
   104    118    119  1      2
   105    104    119  1      2
   105    119    120  1      2
   106    105    120  1      2
   106    120    121  1      2
   107    106    121  1      2
   107    121    122  1      2
   108    107    122  1      2
   108    122    123  1      2
   109    108    123  1      2
   109    123    124  1      2
   110    109    124  1      2
   110    124    125  1      2
   111    110    125  1      2
   111    125    126  1      2
   112    111    126  1      2
   112    126    127  1      2
   113    112    127  1      2
   113    127    128  1      2
   114    113    128  1      2
   114    128    129  1      2
   115    114    129  1      2
   115    129    130  1      2
   101    115    130  1      2
   101    130    116  1      2
   117    132    133  1      2
   118    117    133  1      2
   118    133    134  1      2
   119    118    134  1      2
   119    134    135  1      2
   120    119    135  1      2
   120    135    136  1      2
   121    120    136  1      2
   121    136    137  1      2
   122    121    137  1      2
   122    137    138  1      2
   123    122    138  1      2
   123    138    139  1      2
   124    123    139  1      2
   124    139    140  1      2
   125    124    140  1      2
   125    140    141  1      2
   126    125    141  1      2
   126    141    142  1      2
   127    126    142  1      2
   127    142    143  1      2
   128    127    143  1      2
   128    143    144  1      2
   129    128    144  1      2
   129    144    145  1      2
   130    129    145  1      2
   131    130    145  1      2
   116    130    131  1      2
   133    132    147  1      2
   133    147    148  1      2
   134    133    148  1      2
   134    148    149  1      2
   135    134    149  1      2
   135    149    150  1      2
   136    135    150  1      2
   136    150    151  1      2
   137    136    151  1      2
   137    151    152  1      2
   138    137    152  1      2
   138    152    153  1      2
   139    138    153  1      2
   139    153    154  1      2
   140    139    154  1      2
   140    154    155  1      2
   141    140    155  1      2
   141    155    156  1      2
   142    141    156  1      2
   142    156    157  1      2
   143    142    157  1      2
   143    157    158  1      2
   144    143    158  1      2
   144    158    159  1      2
   145    144    159  1      2
   146    145    159  1      2
   131    145    146  1      2
   148    147    161  1      2
   148    161    162  1      2
   149    148    162  1      2
   149    162    163  1      2
   150    149    163  1      2
   150    163    164  1      2
   151    150    164  1      2
   151    164    165  1      2
   152    151    165  1      2
   152    165    166  1      2
   153    152    166  1      2
   153    166    167  1      2
   154    153    167  1      2
   155    154    167  1      2
   155    167    168  1      2
   156    155    168  1      2
   156    168    169  1      2
   157    156    169  1      2
   157    169    170  1      2
   158    157    170  1      2
   158    170    171  1      2
   159    158    171  1      2
   160    159    171  1      2
   146    159    160  1      2
   161    173    174  1      2
   162    161    174  1      2
   163    162    174  1      2
   163    174    175  1      2
   164    163    175  1      2
   164    175    176  1      2
   165    164    176  1      2
   165    176    177  1      2
   166    165    177  1      2
   166    177    178  1      2
   167    166    178  1      2
   168    167    178  1      2
   168    178    179  1      2
   169    168    179  1      2
   169    179    180  1      2
   170    169    180  1      2
   170    180    181  1      2
   171    170    181  1      2
   172    171    181  1      2
   160    171    172  1      2
   174    173    183  1      2
   174    183    184  1      2
   175    174    184  1      2
   176    175    184  1      2
   176    184    185  1      2
   177    176    185  1      2
   177    185    186  1      2
   178    177    186  1      2
   178    186    187  1      2
   179    178    187  1      2
   180    179    187  1      2
   180    187    188  1      2
   181    180    188  1      2
   182    181    188  1      2
   172    181    182  1      2
   184    183    190  1      2
   184    190    191  1      2
   185    184    191  1      2
   186    185    191  1      2
   186    191    192  1      2
   187    186    192  1      2
   188    187    192  1      2
   189    188    192  1      2
   182    188    189  1      2
   191    190    193  1      2
   192    191    193  1      2
   189    192    193  1      2
   193    190     15  1      2
   193     15     13  1      2
   193     13    189  1      2
   189     13     11  1      2
   189     11    182  1      2
   182     11      9  1      2
   182      9    172  1      2
   172      9      7  1      2
   172      7    160  1      2
   160      7      5  1      2
   160      5    146  1      2
   146      5      3  1      2
   146      3    131  1      2
   131      3      1  1      2
   131      1    116  1      2
   116      1    101  1      2
   101      1     51  1      2
   101     51     87  1      2
    87     51     49  1      2
    87     49     75  1      2
    75     49     47  1      2
    75     47     65  1      2
    65     47     45  1      2
    65     45     58  1      2
    58     45     43  1      2
    58     43     54  1      2
    54     43     41  1      2
    54     41     53  1      2
    53     41     39  1      2
    53     39     55  1      2
    55     39     37  1      2
    55     37     59  1      2
    59     37     35  1      2
    59     35     66  1      2
    66     35     33  1      2
    66     33     76  1      2
    76     33     31  1      2
    76     31     88  1      2
    88     31     29  1      2
    88     29    102  1      2
   102     29     27  1      2
   102     27    117  1      2
   117     27    132  1      2
   132     27     25  1      2
   132     25    147  1      2
   147     25     23  1      2
   147     23    161  1      2
   161     23     21  1      2
   161     21    173  1      2
   173     21     19  1      2
   173     19    183  1      2
   183     19     17  1      2
   183     17    190  1      2
   190     17     15  1      2
   194    195    196  1      3
   194    196    197  1      3
   194    197    198  1      3
   196    195    200  1      3
   196    200    201  1      3
   196    201    202  1      3
   197    196    202  1      3
   197    202    203  1      3
   197    203    204  1      3
   198    197    204  1      3
   198    204    205  1      3
   195    199    200  1      3
   200    199    207  1      3
   200    207    208  1      3
   201    200    208  1      3
   201    208    209  1      3
   201    209    210  1      3
   202    201    210  1      3
   202    210    211  1      3
   203    202    211  1      3
   203    211    212  1      3
   204    203    212  1      3
   204    212    213  1      3
   204    213    214  1      3
   205    204    214  1      3
   205    214    215  1      3
   199    206    207  1      3
   207    206    217  1      3
   207    217    218  1      3
   208    207    218  1      3
   208    218    219  1      3
   209    208    219  1      3
   209    219    220  1      3
   210    209    220  1      3
   210    220    221  1      3
   210    221    222  1      3
   211    210    222  1      3
   211    222    223  1      3
   212    211    223  1      3
   212    223    224  1      3
   213    212    224  1      3
   213    224    225  1      3
   214    213    225  1      3
   214    225    226  1      3
   215    214    226  1      3
   215    226    227  1      3
   206    216    217  1      3
   217    216    229  1      3
   217    229    230  1      3
   218    217    230  1      3
   218    230    231  1      3
   219    218    231  1      3
   219    231    232  1      3
   220    219    232  1      3
   220    232    233  1      3
   221    220    233  1      3
   221    233    234  1      3
   221    234    235  1      3
   222    221    235  1      3
   222    235    236  1      3
   223    222    236  1      3
   223    236    237  1      3
   224    223    237  1      3
   224    237    238  1      3
   225    224    238  1      3
   225    238    239  1      3
   226    225    239  1      3
   226    239    240  1      3
   227    226    240  1      3
   227    240    241  1      3
   216    228    229  1      3
   229    228    243  1      3
   229    243    244  1      3
   230    229    244  1      3
   230    244    245  1      3
   231    230    245  1      3
   231    245    246  1      3
   232    231    246  1      3
   232    246    247  1      3
   233    232    247  1      3
   233    247    248  1      3
   234    233    248  1      3
   234    248    249  1      3
   235    234    249  1      3
   235    249    250  1      3
   236    235    250  1      3
   236    250    251  1      3
   237    236    251  1      3
   237    251    252  1      3
   238    237    252  1      3
   238    252    253  1      3
   239    238    253  1      3
   239    253    254  1      3
   240    239    254  1      3
   240    254    255  1      3
   240    255    256  1      3
   241    240    256  1      3
   228    242    243  1      3
   243    242    258  1      3
   243    258    259  1      3
   244    243    259  1      3
   244    259    260  1      3
   245    244    260  1      3
   245    260    261  1      3
   246    245    261  1      3
   246    261    262  1      3
   247    246    262  1      3
   247    262    263  1      3
   248    247    263  1      3
   248    263    264  1      3
   249    248    264  1      3
   249    264    265  1      3
   250    249    265  1      3
   250    265    266  1      3
   251    250    266  1      3
   251    266    267  1      3
   252    251    267  1      3
   252    267    268  1      3
   253    252    268  1      3
   253    268    269  1      3
   254    253    269  1      3
   254    269    270  1      3
   255    254    270  1      3
   255    270    271  1      3
   256    255    271  1      3
   242    257    258  1      3
   258    257    272  1      3
   258    272    273  1      3
   259    258    273  1      3
   259    273    274  1      3
   260    259    274  1      3
   260    274    275  1      3
   261    260    275  1      3
   261    275    276  1      3
   262    261    276  1      3
   262    276    277  1      3
   263    262    277  1      3
   263    277    278  1      3
   264    263    278  1      3
   264    278    279  1      3
   265    264    279  1      3
   265    279    280  1      3
   266    265    280  1      3
   266    280    281  1      3
   267    266    281  1      3
   267    281    282  1      3
   268    267    282  1      3
   268    282    283  1      3
   269    268    283  1      3
   269    283    284  1      3
   270    269    284  1      3
   270    284    285  1      3
   271    270    285  1      3
   271    285    286  1      3
   273    272    287  1      3
   273    287    288  1      3
   274    273    288  1      3
   274    288    289  1      3
   275    274    289  1      3
   275    289    290  1      3
   276    275    290  1      3
   276    290    291  1      3
   277    276    291  1      3
   277    291    292  1      3
   278    277    292  1      3
   278    292    293  1      3
   279    278    293  1      3
   279    293    294  1      3
   280    279    294  1      3
   280    294    295  1      3
   281    280    295  1      3
   281    295    296  1      3
   282    281    296  1      3
   282    296    297  1      3
   283    282    297  1      3
   283    297    298  1      3
   284    283    298  1      3
   284    298    299  1      3
   285    284    299  1      3
   286    285    299  1      3
   286    299    300  1      3
   288    287    301  1      3
   288    301    302  1      3
   289    288    302  1      3
   289    302    303  1      3
   290    289    303  1      3
   290    303    304  1      3
   291    290    304  1      3
   291    304    305  1      3
   292    291    305  1      3
   292    305    306  1      3
   293    292    306  1      3
   294    293    306  1      3
   294    306    307  1      3
   295    294    307  1      3
   295    307    308  1      3
   296    295    308  1      3
   296    308    309  1      3
   297    296    309  1      3
   297    309    310  1      3
   298    297    310  1      3
   298    310    311  1      3
   299    298    311  1      3
   300    299    311  1      3
   300    311    312  1      3
   302    301    313  1      3
   302    313    314  1      3
   303    302    314  1      3
   303    314    315  1      3
   304    303    315  1      3
   304    315    316  1      3
   305    304    316  1      3
   305    316    317  1      3
   306    305    317  1      3
   307    306    317  1      3
   307    317    318  1      3
   308    307    318  1      3
   308    318    319  1      3
   309    308    319  1      3
   309    319    320  1      3
   310    309    320  1      3
   310    320    321  1      3
   311    310    321  1      3
   311    321    322  1      3
   312    311    322  1      3
   314    313    323  1      3
   314    323    324  1      3
   315    314    324  1      3
   315    324    325  1      3
   316    315    325  1      3
   317    316    325  1      3
   317    325    326  1      3
   318    317    326  1      3
   318    326    327  1      3
   319    318    327  1      3
   319    327    328  1      3
   320    319    328  1      3
   321    320    328  1      3
   321    328    329  1      3
   322    321    329  1      3
   324    323    330  1      3
   324    330    331  1      3
   325    324    331  1      3
   326    325    331  1      3
   326    331    332  1      3
   327    326    332  1      3
   328    327    332  1      3
   328    332    333  1      3
   329    328    333  1      3
   331    330    334  1      3
   332    331    334  1      3
   333    332    334  1      3
   333    334     16  1      3
   333     16     18  1      3
   333     18    329  1      3
   329     18     20  1      3
   329     20    322  1      3
   322     20     22  1      3
   322     22    312  1      3
   312     22     24  1      3
   312     24    300  1      3
   300     24     26  1      3
   300     26    286  1      3
   286     26     28  1      3
   286     28    271  1      3
   271     28    256  1      3
   256     28     30  1      3
   256     30    241  1      3
   241     30     32  1      3
   241     32    227  1      3
   227     32     34  1      3
   227     34    215  1      3
   215     34     36  1      3
   215     36    205  1      3
   205     36     38  1      3
   205     38    198  1      3
   198     38     40  1      3
   198     40    194  1      3
   194     40     42  1      3
   194     42    195  1      3
   195     42     44  1      3
   195     44    199  1      3
   199     44     46  1      3
   199     46    206  1      3
   206     46     48  1      3
   206     48    216  1      3
   216     48     50  1      3
   216     50    228  1      3
   228     50     52  1      3
   228     52    242  1      3
   242     52      2  1      3
   242      2    257  1      3
   257      2    272  1      3
   272      2      4  1      3
   272      4    287  1      3
   287      4      6  1      3
   287      6    301  1      3
   301      6      8  1      3
   301      8    313  1      3
   313      8     10  1      3
   313     10    323  1      3
   323     10     12  1      3
   323     12    330  1      3
   330     12     14  1      3
   330     14    334  1      3
   334     14     16  1      3
