# MSMS solvent excluded surface faces for TAb.xyzr
#faces  #sphere density probe_r
    854       3  2.00  1.00
     1      7      2  3      3
     2      7      8  3      3
     7      9      8  3      3
     8      9     10  3      3
     9     11     10  3      3
    10     11     12  3      3
    11     13     12  3      3
    12     13     14  3      3
    13     15     14  3      3
    14     15     16  3      3
    15     17     16  3      3
    16     17     18  3      3
    17     19     18  3      3
    18     19     20  3      3
    19     21     20  3      3
    20     21     22  3      3
    21      5     22  3      3
    22      5      4  3      3
     5     23      6  3      4
     6     23     24  3      4
    23     25     24  3      4
    24     25     26  3      4
    25     27     26  3      4
    26     27     28  3      4
    27     29     28  3      4
    28     29     30  3      4
    29     31     30  3      4
    30     31     32  3      4
    31     33     32  3      4
    32     33     34  3      4
    33     35     34  3      4
    34     35     36  3      4
    35     37     36  3      4
    36     37     38  3      4
    37     39     38  3      4
    38     39     40  3      4
    39     41     40  3      4
    40     41     42  3      4
    41     43     42  3      4
    42     43     44  3      4
    43     45     44  3      4
    44     45     46  3      4
    45     47     46  3      4
    46     47     48  3      4
    47     49     48  3      4
    48     49     50  3      4
    49     51     50  3      4
    50     51     52  3      4
    51     53     52  3      4
    52     53     54  3      4
    53      1     54  3      4
    54      1      3  3      4
     6     55      4  3      5
     4     55     56  3      5
    55     57     56  3      5
    56     57     58  3      5
    57     59     58  3      5
    58     59     60  3      5
    59     61     60  3      5
    60     61     62  3      5
    61     63     62  3      5
    62     63     64  3      5
    63     65     64  3      5
    64     65     66  3      5
    65     67     66  3      5
    66     67     68  3      5
    67     69     68  3      5
    68     69     70  3      5
    69     71     70  3      5
    70     71     72  3      5
    71     73     72  3      5
    72     73     74  3      5
    73     75     74  3      5
    74     75     76  3      5
    75     77     76  3      5
    76     77     78  3      5
    77     79     78  3      5
    78     79     80  3      5
    79     81     80  3      5
    80     81     82  3      5
    81     83     82  3      5
    82     83     84  3      5
    83     85     84  3      5
    84     85     86  3      5
    85      3     86  3      5
    86      3      2  3      5
     3      1      2  2      1
     6      4      5  2      2
    87     89     90  1      6
    87     90     91  1      6
    87     91     92  1      6
    87     92     88  1      6
    90     89     93  1      6
    90     93     94  1      6
    90     94     95  1      6
    91     90     95  1      6
    91     95     96  1      6
    91     96     97  1      6
    92     91     97  1      6
    92     97     98  1      6
    92     98     99  1      6
    88     92     99  1      6
    93    100    101  1      6
    94     93    101  1      6
    94    101    102  1      6
    95     94    102  1      6
    95    102    103  1      6
    95    103    104  1      6
    96     95    104  1      6
    96    104    105  1      6
    97     96    105  1      6
    97    105    106  1      6
    98     97    106  1      6
    98    106    107  1      6
    98    107    108  1      6
    99     98    108  1      6
    99    108    109  1      6
   101    100    110  1      6
   101    110    111  1      6
   102    101    111  1      6
   102    111    112  1      6
   102    112    113  1      6
   103    102    113  1      6
   103    113    114  1      6
   104    103    114  1      6
   104    114    115  1      6
   105    104    115  1      6
   105    115    116  1      6
   106    105    116  1      6
   106    116    117  1      6
   106    117    118  1      6
   107    106    118  1      6
   107    118    119  1      6
   108    107    119  1      6
   108    119    120  1      6
   109    108    120  1      6
   109    120    121  1      6
   111    110    122  1      6
   111    122    123  1      6
   112    111    123  1      6
   112    123    124  1      6
   112    124    125  1      6
   113    112    125  1      6
   113    125    126  1      6
   114    113    126  1      6
   114    126    127  1      6
   115    114    127  1      6
   115    127    128  1      6
   116    115    128  1      6
   116    128    129  1      6
   117    116    129  1      6
   117    129    130  1      6
   117    130    131  1      6
   118    117    131  1      6
   118    131    132  1      6
   119    118    132  1      6
   119    132    133  1      6
   120    119    133  1      6
   120    133    134  1      6
   121    120    134  1      6
   123    122    135  1      6
   123    135    136  1      6
   123    136    137  1      6
   124    123    137  1      6
   124    137    138  1      6
   125    124    138  1      6
   125    138    139  1      6
   126    125    139  1      6
   126    139    140  1      6
   127    126    140  1      6
   127    140    141  1      6
   128    127    141  1      6
   128    141    142  1      6
   129    128    142  1      6
   129    142    143  1      6
   130    129    143  1      6
   130    143    144  1      6
   131    130    144  1      6
   131    144    145  1      6
   132    131    145  1      6
   132    145    146  1      6
   133    132    146  1      6
   133    146    147  1      6
   134    133    147  1      6
   134    147    148  1      6
   136    135    149  1      6
   136    149    150  1      6
   137    136    150  1      6
   137    150    151  1      6
   138    137    151  1      6
   138    151    152  1      6
   139    138    152  1      6
   139    152    153  1      6
   140    139    153  1      6
   140    153    154  1      6
   141    140    154  1      6
   141    154    155  1      6
   142    141    155  1      6
   142    155    156  1      6
   143    142    156  1      6
   143    156    157  1      6
   144    143    157  1      6
   144    157    158  1      6
   145    144    158  1      6
   145    158    159  1      6
   146    145    159  1      6
   146    159    160  1      6
   147    146    160  1      6
   147    160    161  1      6
   148    147    161  1      6
   148    161    162  1      6
   149    163    164  1      6
   150    149    164  1      6
   150    164    165  1      6
   151    150    165  1      6
   151    165    166  1      6
   152    151    166  1      6
   152    166    167  1      6
   153    152    167  1      6
   153    167    168  1      6
   154    153    168  1      6
   154    168    169  1      6
   155    154    169  1      6
   155    169    170  1      6
   156    155    170  1      6
   156    170    171  1      6
   157    156    171  1      6
   157    171    172  1      6
   158    157    172  1      6
   158    172    173  1      6
   159    158    173  1      6
   159    173    174  1      6
   160    159    174  1      6
   160    174    175  1      6
   161    160    175  1      6
   161    175    176  1      6
   162    161    176  1      6
   163    177    178  1      6
   164    163    178  1      6
   165    164    178  1      6
   165    178    179  1      6
   166    165    179  1      6
   166    179    180  1      6
   167    166    180  1      6
   167    180    181  1      6
   168    167    181  1      6
   168    181    182  1      6
   169    168    182  1      6
   169    182    183  1      6
   170    169    183  1      6
   170    183    184  1      6
   171    170    184  1      6
   171    184    185  1      6
   172    171    185  1      6
   172    185    186  1      6
   173    172    186  1      6
   173    186    187  1      6
   174    173    187  1      6
   174    187    188  1      6
   175    174    188  1      6
   175    188    189  1      6
   176    175    189  1      6
   177    190    191  1      6
   178    177    191  1      6
   179    178    191  1      6
   179    191    192  1      6
   180    179    192  1      6
   180    192    193  1      6
   181    180    193  1      6
   181    193    194  1      6
   182    181    194  1      6
   182    194    195  1      6
   183    182    195  1      6
   183    195    196  1      6
   184    183    196  1      6
   184    196    197  1      6
   185    184    197  1      6
   186    185    197  1      6
   186    197    198  1      6
   187    186    198  1      6
   187    198    199  1      6
   188    187    199  1      6
   188    199    200  1      6
   189    188    200  1      6
   189    200    201  1      6
   190    202    203  1      6
   191    190    203  1      6
   191    203    204  1      6
   192    191    204  1      6
   193    192    204  1      6
   193    204    205  1      6
   194    193    205  1      6
   194    205    206  1      6
   195    194    206  1      6
   195    206    207  1      6
   196    195    207  1      6
   196    207    208  1      6
   197    196    208  1      6
   198    197    208  1      6
   198    208    209  1      6
   199    198    209  1      6
   199    209    210  1      6
   200    199    210  1      6
   200    210    211  1      6
   201    200    211  1      6
   203    202    212  1      6
   203    212    213  1      6
   204    203    213  1      6
   204    213    214  1      6
   205    204    214  1      6
   206    205    214  1      6
   206    214    215  1      6
   207    206    215  1      6
   207    215    216  1      6
   208    207    216  1      6
   208    216    217  1      6
   209    208    217  1      6
   210    209    217  1      6
   210    217    218  1      6
   211    210    218  1      6
   212    220    221  1      6
   213    212    221  1      6
   214    213    221  1      6
   214    221    222  1      6
   215    214    222  1      6
   216    215    222  1      6
   216    222    223  1      6
   217    216    223  1      6
   218    217    223  1      6
   219    218    223  1      6
   221    220    224  1      6
   222    221    224  1      6
   223    222    224  1      6
   219    223    224  1      6
   224    220     51  1      6
   224     51    219  1      6
   219     51     49  1      6
   219     49     47  1      6
   219     47    218  1      6
   218     47    211  1      6
   211     47     45  1      6
   211     45    201  1      6
   201     45     43  1      6
   201     43    189  1      6
   189     43     41  1      6
   189     41    176  1      6
   176     41     39  1      6
   176     39    162  1      6
   162     39     37  1      6
   162     37    148  1      6
   148     37     35  1      6
   148     35    134  1      6
   134     35     33  1      6
   134     33    121  1      6
   121     33     31  1      6
   121     31    109  1      6
   109     31     29  1      6
   109     29     99  1      6
    99     29     88  1      6
    88     29     27  1      6
    88     27     25  1      6
    88     25     87  1      6
    87     25     89  1      6
    89     25     23  1      6
    89     23     93  1      6
    93     23      5  1      6
    93      5    100  1      6
   100      5     21  1      6
   100     21    110  1      6
   110     21     19  1      6
   110     19    122  1      6
   122     19     17  1      6
   122     17    135  1      6
   135     17     15  1      6
   135     15    149  1      6
   149     15     13  1      6
   149     13    163  1      6
   163     13     11  1      6
   163     11    177  1      6
   177     11      9  1      6
   177      9    190  1      6
   190      9      7  1      6
   190      7    202  1      6
   202      7      1  1      6
   202      1    212  1      6
   212      1     53  1      6
   212     53    220  1      6
   220     53     51  1      6
   225    226    227  1      7
   225    227    228  1      7
   225    228    229  1      7
   225    229    230  1      7
   227    226    231  1      7
   227    231    232  1      7
   227    232    233  1      7
   228    227    233  1      7
   228    233    234  1      7
   228    234    235  1      7
   229    228    235  1      7
   229    235    236  1      7
   229    236    237  1      7
   230    229    237  1      7
   231    238    239  1      7
   232    231    239  1      7
   232    239    240  1      7
   232    240    241  1      7
   233    232    241  1      7
   233    241    242  1      7
   234    233    242  1      7
   234    242    243  1      7
   235    234    243  1      7
   235    243    244  1      7
   235    244    245  1      7
   236    235    245  1      7
   236    245    246  1      7
   237    236    246  1      7
   237    246    247  1      7
   238    248    249  1      7
   239    238    249  1      7
   239    249    250  1      7
   240    239    250  1      7
   240    250    251  1      7
   241    240    251  1      7
   241    251    252  1      7
   241    252    253  1      7
   242    241    253  1      7
   242    253    254  1      7
   243    242    254  1      7
   243    254    255  1      7
   244    243    255  1      7
   244    255    256  1      7
   245    244    256  1      7
   245    256    257  1      7
   246    245    257  1      7
   246    257    258  1      7
   246    258    259  1      7
   247    246    259  1      7
   249    248    260  1      7
   249    260    261  1      7
   250    249    261  1      7
   250    261    262  1      7
   251    250    262  1      7
   251    262    263  1      7
   252    251    263  1      7
   252    263    264  1      7
   252    264    265  1      7
   253    252    265  1      7
   253    265    266  1      7
   254    253    266  1      7
   254    266    267  1      7
   255    254    267  1      7
   255    267    268  1      7
   256    255    268  1      7
   256    268    269  1      7
   257    256    269  1      7
   257    269    270  1      7
   258    257    270  1      7
   258    270    271  1      7
   258    271    272  1      7
   259    258    272  1      7
   260    273    274  1      7
   261    260    274  1      7
   261    274    275  1      7
   262    261    275  1      7
   262    275    276  1      7
   263    262    276  1      7
   263    276    277  1      7
   264    263    277  1      7
   264    277    278  1      7
   265    264    278  1      7
   265    278    279  1      7
   266    265    279  1      7
   266    279    280  1      7
   267    266    280  1      7
   267    280    281  1      7
   268    267    281  1      7
   268    281    282  1      7
   269    268    282  1      7
   269    282    283  1      7
   270    269    283  1      7
   270    283    284  1      7
   270    284    285  1      7
   271    270    285  1      7
   271    285    286  1      7
   272    271    286  1      7
   273    287    288  1      7
   274    273    288  1      7
   274    288    289  1      7
   275    274    289  1      7
   275    289    290  1      7
   276    275    290  1      7
   276    290    291  1      7
   277    276    291  1      7
   277    291    292  1      7
   278    277    292  1      7
   278    292    293  1      7
   279    278    293  1      7
   279    293    294  1      7
   280    279    294  1      7
   280    294    295  1      7
   281    280    295  1      7
   281    295    296  1      7
   282    281    296  1      7
   282    296    297  1      7
   283    282    297  1      7
   283    297    298  1      7
   284    283    298  1      7
   284    298    299  1      7
   285    284    299  1      7
   285    299    300  1      7
   286    285    300  1      7
   288    287    301  1      7
   288    301    302  1      7
   289    288    302  1      7
   289    302    303  1      7
   290    289    303  1      7
   290    303    304  1      7
   291    290    304  1      7
   291    304    305  1      7
   292    291    305  1      7
   292    305    306  1      7
   293    292    306  1      7
   293    306    307  1      7
   294    293    307  1      7
   294    307    308  1      7
   295    294    308  1      7
   295    308    309  1      7
   296    295    309  1      7
   296    309    310  1      7
   297    296    310  1      7
   297    310    311  1      7
   298    297    311  1      7
   298    311    312  1      7
   299    298    312  1      7
   299    312    313  1      7
   300    299    313  1      7
   300    313    314  1      7
   302    301    315  1      7
   302    315    316  1      7
   303    302    316  1      7
   303    316    317  1      7
   304    303    317  1      7
   304    317    318  1      7
   305    304    318  1      7
   305    318    319  1      7
   306    305    319  1      7
   306    319    320  1      7
   307    306    320  1      7
   307    320    321  1      7
   308    307    321  1      7
   308    321    322  1      7
   309    308    322  1      7
   309    322    323  1      7
   310    309    323  1      7
   310    323    324  1      7
   311    310    324  1      7
   311    324    325  1      7
   312    311    325  1      7
   313    312    325  1      7
   313    325    326  1      7
   314    313    326  1      7
   314    326    327  1      7
   315    328    329  1      7
   316    315    329  1      7
   316    329    330  1      7
   317    316    330  1      7
   317    330    331  1      7
   318    317    331  1      7
   318    331    332  1      7
   319    318    332  1      7
   320    319    332  1      7
   320    332    333  1      7
   321    320    333  1      7
   321    333    334  1      7
   322    321    334  1      7
   322    334    335  1      7
   323    322    335  1      7
   323    335    336  1      7
   324    323    336  1      7
   324    336    337  1      7
   325    324    337  1      7
   326    325    337  1      7
   326    337    338  1      7
   327    326    338  1      7
   327    338    339  1      7
   329    328    340  1      7
   329    340    341  1      7
   330    329    341  1      7
   330    341    342  1      7
   331    330    342  1      7
   331    342    343  1      7
   332    331    343  1      7
   333    332    343  1      7
   333    343    344  1      7
   334    333    344  1      7
   334    344    345  1      7
   335    334    345  1      7
   335    345    346  1      7
   336    335    346  1      7
   336    346    347  1      7
   337    336    347  1      7
   337    347    348  1      7
   338    337    348  1      7
   339    338    348  1      7
   339    348    349  1      7
   341    340    350  1      7
   341    350    351  1      7
   342    341    351  1      7
   343    342    351  1      7
   343    351    352  1      7
   344    343    352  1      7
   344    352    353  1      7
   345    344    353  1      7
   345    353    354  1      7
   346    345    354  1      7
   347    346    354  1      7
   347    354    355  1      7
   348    347    355  1      7
   348    355    356  1      7
   349    348    356  1      7
   350    357    358  1      7
   351    350    358  1      7
   352    351    358  1      7
   352    358    359  1      7
   353    352    359  1      7
   354    353    359  1      7
   354    359    360  1      7
   355    354    360  1      7
   356    355    360  1      7
   356    360    361  1      7
   358    357    362  1      7
   359    358    362  1      7
   360    359    362  1      7
   361    360    362  1      7
   361    362     84  1      7
   361     84     86  1      7
   361     86    356  1      7
   356     86      2  1      7
   356      2    349  1      7
   349      2      8  1      7
   349      8    339  1      7
   339      8     10  1      7
   339     10    327  1      7
   327     10     12  1      7
   327     12    314  1      7
   314     12     14  1      7
   314     14    300  1      7
   300     14     16  1      7
   300     16    286  1      7
   286     16     18  1      7
   286     18    272  1      7
   272     18     20  1      7
   272     20    259  1      7
   259     20     22  1      7
   259     22    247  1      7
   247     22      4  1      7
   247      4    237  1      7
   237      4     56  1      7
   237     56    230  1      7
   230     56     58  1      7
   230     58    225  1      7
   225     58    226  1      7
   226     58     60  1      7
   226     60     62  1      7
   226     62    231  1      7
   231     62    238  1      7
   238     62     64  1      7
   238     64    248  1      7
   248     64     66  1      7
   248     66    260  1      7
   260     66     68  1      7
   260     68    273  1      7
   273     68     70  1      7
   273     70    287  1      7
   287     70     72  1      7
   287     72    301  1      7
   301     72     74  1      7
   301     74    315  1      7
   315     74     76  1      7
   315     76    328  1      7
   328     76     78  1      7
   328     78    340  1      7
   340     78     80  1      7
   340     80    350  1      7
   350     80    357  1      7
   357     80     82  1      7
   357     82     84  1      7
   357     84    362  1      7
   363    364    365  1      8
   363    367    364  1      8
   365    364    369  1      8
   364    367    370  1      8
   364    370    368  1      8
   364    368    369  1      8
   369    368    372  1      8
   369    372    373  1      8
   370    374    375  1      8
   368    370    375  1      8
   368    375    371  1      8
   368    371    372  1      8
   372    371    377  1      8
   372    377    378  1      8
   373    372    378  1      8
   375    374    379  1      8
   375    379    380  1      8
   371    375    380  1      8
   371    380    376  1      8
   371    376    377  1      8
   377    376    382  1      8
   377    382    383  1      8
   378    377    383  1      8
   380    379    384  1      8
   380    384    385  1      8
   376    380    385  1      8
   376    385    381  1      8
   376    381    382  1      8
   382    381    387  1      8
   382    387    388  1      8
   383    382    388  1      8
   383    388    389  1      8
   384    390    391  1      8
   385    384    391  1      8
   385    391    392  1      8
   381    385    392  1      8
   381    392    386  1      8
   381    386    387  1      8
   387    386    394  1      8
   387    394    395  1      8
   388    387    395  1      8
   388    395    396  1      8
   389    388    396  1      8
   391    390    397  1      8
   391    397    398  1      8
   392    391    398  1      8
   392    398    399  1      8
   386    392    399  1      8
   386    399    393  1      8
   386    393    394  1      8
   394    393    400  1      8
   394    400    401  1      8
   395    394    401  1      8
   395    401    402  1      8
   396    395    402  1      8
   396    402    403  1      8
   397    404    405  1      8
   398    397    405  1      8
   398    405    406  1      8
   399    398    406  1      8
   400    399    406  1      8
   393    399    400  1      8
   401    400    407  1      8
   401    407    408  1      8
   402    401    408  1      8
   402    408    409  1      8
   403    402    409  1      8
   405    404    410  1      8
   405    410    411  1      8
   406    405    411  1      8
   407    406    411  1      8
   400    406    407  1      8
   408    407    412  1      8
   408    412    413  1      8
   409    408    413  1      8
   409    413    414  1      8
   410    415    416  1      8
   411    410    416  1      8
   412    411    416  1      8
   407    411    412  1      8
   413    412    417  1      8
   413    417    418  1      8
   414    413    418  1      8
   414    418    419  1      8
   415    420    421  1      8
   416    415    421  1      8
   417    416    421  1      8
   412    416    417  1      8
   418    417    422  1      8
   418    422    423  1      8
   419    418    423  1      8
   421    420    424  1      8
   422    421    424  1      8
   417    421    422  1      8
   423    422    425  1      8
   423    425    426  1      8
   425    424    428  1      8
   422    424    425  1      8
   426    425    429  1      8
   425    428    429  1      8
   429    428     52  1      8
   429     52    427  1      8
   429    427     83  1      8
   429     83    426  1      8
   426     83     81  1      8
   426     81     79  1      8
   426     79    423  1      8
   423     79    419  1      8
   419     79     77  1      8
   419     77    414  1      8
   414     77     75  1      8
   414     75    409  1      8
   409     75     73  1      8
   409     73    403  1      8
   403     73     71  1      8
   403     71    396  1      8
   396     71     69  1      8
   396     69    389  1      8
   389     69     67  1      8
   389     67    383  1      8
   383     67     65  1      8
   383     65    378  1      8
   378     65     63  1      8
   378     63    373  1      8
   373     63     61  1      8
   373     61    369  1      8
   369     61    365  1      8
   365     61     59  1      8
   365     59     57  1      8
   365     57    363  1      8
   363     57    366  1      8
   363    366     26  1      8
   363     26    367  1      8
   367     26     28  1      8
   367     28     30  1      8
   367     30    370  1      8
   370     30    374  1      8
   374     30     32  1      8
   374     32    379  1      8
   379     32     34  1      8
   379     34    384  1      8
   384     34     36  1      8
   384     36    390  1      8
   390     36     38  1      8
   390     38    397  1      8
   397     38     40  1      8
   397     40    404  1      8
   404     40     42  1      8
   404     42    410  1      8
   410     42     44  1      8
   410     44    415  1      8
   415     44     46  1      8
   415     46    420  1      8
   420     46     48  1      8
   420     48    424  1      8
   424     48    428  1      8
   428     48     50  1      8
   428     50     52  1      8
    26    366     24  1      8
    24    366     55  1      8
    24     55      6  1      8
    55    366     57  1      8
    83    427     85  1      8
    85    427     54  1      8
    85     54      3  1      8
    54    427     52  1      8
