# MSMS solvent excluded surface faces for FA.xyzr
#faces  #sphere density probe_r
   1232       4  2.00  1.00
     1      7      2  3      1
     2      7      8  3      1
     7      9      8  3      1
     8      9     10  3      1
     9     11     10  3      1
    10     11     12  3      1
    11     13     12  3      1
    12     13     14  3      1
    13     15     14  3      1
    14     15     16  3      1
    15     17     16  3      1
    16     17     18  3      1
    17     19     18  3      1
    18     19     20  3      1
    19     21     20  3      1
    20     21     22  3      1
    21     23     22  3      1
    22     23     24  3      1
    23     25     24  3      1
    24     25     26  3      1
    25     27     26  3      1
    26     27     28  3      1
    27     29     28  3      1
    28     29     30  3      1
    29     31     30  3      1
    30     31     32  3      1
    31     33     32  3      1
    32     33     34  3      1
    33     35     34  3      1
    34     35     36  3      1
    35     37     36  3      1
    36     37     38  3      1
    37     39     38  3      1
    38     39     40  3      1
    39     41     40  3      1
    40     41     42  3      1
    41     43     42  3      1
    42     43     44  3      1
    43     45     44  3      1
    44     45     46  3      1
    45     47     46  3      1
    46     47     48  3      1
    47     49     48  3      1
    48     49     50  3      1
    49     51     50  3      1
    50     51     52  3      1
    51     53     52  3      1
    52     53     54  3      1
    53     55     54  3      1
    54     55     56  3      1
    55      1     56  3      1
    56      1      2  3      1
     3     57      4  3      2
     4     57     58  3      2
    57     59     58  3      2
    58     59     60  3      2
    59     61     60  3      2
    60     61     62  3      2
    61     63     62  3      2
    62     63     64  3      2
    63     65     64  3      2
    64     65     66  3      2
    65     67     66  3      2
    66     67     68  3      2
    67     69     68  3      2
    68     69     70  3      2
    69     71     70  3      2
    70     71     72  3      2
    71     73     72  3      2
    72     73     74  3      2
    73     75     74  3      2
    74     75     76  3      2
    75     77     76  3      2
    76     77     78  3      2
    77     79     78  3      2
    78     79     80  3      2
    79     81     80  3      2
    80     81     82  3      2
    81     83     82  3      2
    82     83     84  3      2
    83     85     84  3      2
    84     85     86  3      2
    85     87     86  3      2
    86     87     88  3      2
    87     89     88  3      2
    88     89     90  3      2
    89     91     90  3      2
    90     91     92  3      2
    91     93     92  3      2
    92     93     94  3      2
    93     95     94  3      2
    94     95     96  3      2
    95     97     96  3      2
    96     97     98  3      2
    97     99     98  3      2
    98     99    100  3      2
    99    101    100  3      2
   100    101    102  3      2
   101    103    102  3      2
   102    103    104  3      2
   103    105    104  3      2
   104    105    106  3      2
   105      3    106  3      2
   106      3      4  3      2
     5    107      6  3      3
     6    107    108  3      3
   107    109    108  3      3
   108    109    110  3      3
   109    111    110  3      3
   110    111    112  3      3
   111    113    112  3      3
   112    113    114  3      3
   113    115    114  3      3
   114    115    116  3      3
   115    117    116  3      3
   116    117    118  3      3
   117    119    118  3      3
   118    119    120  3      3
   119    121    120  3      3
   120    121    122  3      3
   121    123    122  3      3
   122    123    124  3      3
   123    125    124  3      3
   124    125    126  3      3
   125    127    126  3      3
   126    127    128  3      3
   127    129    128  3      3
   128    129    130  3      3
   129    131    130  3      3
   130    131    132  3      3
   131    133    132  3      3
   132    133    134  3      3
   133    135    134  3      3
   134    135    136  3      3
   135    137    136  3      3
   136    137    138  3      3
   137    139    138  3      3
   138    139    140  3      3
   139    141    140  3      3
   140    141    142  3      3
   141    143    142  3      3
   142    143    144  3      3
   143    145    144  3      3
   144    145    146  3      3
   145    147    146  3      3
   146    147    148  3      3
   147    149    148  3      3
   148    149    150  3      3
   149    151    150  3      3
   150    151    152  3      3
   151    153    152  3      3
   152    153    154  3      3
   153    155    154  3      3
   154    155    156  3      3
   155      5    156  3      3
   156      5      6  3      3
   157    158    159  1      4
   157    159    160  1      4
   157    160    161  1      4
   157    161    162  1      4
   157    162    163  1      4
   157    163    158  1      4
   159    158    165  1      4
   161    160    166  1      4
   161    166    167  1      4
   161    167    168  1      4
   162    161    168  1      4
   162    168    169  1      4
   162    169    170  1      4
   163    162    170  1      4
   163    170    171  1      4
   163    171    172  1      4
   158    163    172  1      4
   158    172    164  1      4
   158    164    165  1      4
   165    164    174  1      4
   167    166    175  1      4
   167    175    176  1      4
   168    167    176  1      4
   168    176    177  1      4
   168    177    178  1      4
   169    168    178  1      4
   169    178    179  1      4
   170    169    179  1      4
   170    179    180  1      4
   171    170    180  1      4
   171    180    181  1      4
   171    181    182  1      4
   172    171    182  1      4
   172    182    183  1      4
   164    172    183  1      4
   164    183    173  1      4
   164    173    174  1      4
   174    173    185  1      4
   176    175    186  1      4
   176    186    187  1      4
   176    187    188  1      4
   177    176    188  1      4
   177    188    189  1      4
   178    177    189  1      4
   178    189    190  1      4
   179    178    190  1      4
   179    190    191  1      4
   180    179    191  1      4
   180    191    192  1      4
   180    192    193  1      4
   181    180    193  1      4
   181    193    194  1      4
   182    181    194  1      4
   182    194    195  1      4
   183    182    195  1      4
   183    195    196  1      4
   173    183    196  1      4
   173    196    184  1      4
   173    184    185  1      4
   185    184    198  1      4
   187    186    199  1      4
   187    199    200  1      4
   187    200    201  1      4
   188    187    201  1      4
   188    201    202  1      4
   189    188    202  1      4
   189    202    203  1      4
   190    189    203  1      4
   190    203    204  1      4
   191    190    204  1      4
   191    204    205  1      4
   192    191    205  1      4
   192    205    206  1      4
   192    206    207  1      4
   193    192    207  1      4
   193    207    208  1      4
   194    193    208  1      4
   194    208    209  1      4
   195    194    209  1      4
   195    209    210  1      4
   196    195    210  1      4
   196    210    211  1      4
   184    196    211  1      4
   184    211    197  1      4
   184    197    198  1      4
   198    197    213  1      4
   199    214    215  1      4
   200    199    215  1      4
   200    215    216  1      4
   201    200    216  1      4
   201    216    217  1      4
   202    201    217  1      4
   202    217    218  1      4
   203    202    218  1      4
   203    218    219  1      4
   204    203    219  1      4
   204    219    220  1      4
   205    204    220  1      4
   205    220    221  1      4
   206    205    221  1      4
   206    221    222  1      4
   207    206    222  1      4
   207    222    223  1      4
   208    207    223  1      4
   208    223    224  1      4
   209    208    224  1      4
   209    224    225  1      4
   210    209    225  1      4
   210    225    226  1      4
   211    210    226  1      4
   211    226    227  1      4
   197    211    227  1      4
   197    227    212  1      4
   197    212    213  1      4
   213    212    229  1      4
   214    230    231  1      4
   215    214    231  1      4
   215    231    232  1      4
   216    215    232  1      4
   216    232    233  1      4
   217    216    233  1      4
   217    233    234  1      4
   218    217    234  1      4
   218    234    235  1      4
   219    218    235  1      4
   219    235    236  1      4
   220    219    236  1      4
   220    236    237  1      4
   221    220    237  1      4
   221    237    238  1      4
   222    221    238  1      4
   222    238    239  1      4
   223    222    239  1      4
   223    239    240  1      4
   224    223    240  1      4
   224    240    241  1      4
   225    224    241  1      4
   225    241    242  1      4
   226    225    242  1      4
   226    242    243  1      4
   227    226    243  1      4
   227    243    244  1      4
   212    227    244  1      4
   212    244    228  1      4
   212    228    229  1      4
   229    228    245  1      4
   229    245    246  1      4
   231    230    247  1      4
   231    247    248  1      4
   232    231    248  1      4
   232    248    249  1      4
   233    232    249  1      4
   233    249    250  1      4
   234    233    250  1      4
   234    250    251  1      4
   235    234    251  1      4
   235    251    252  1      4
   236    235    252  1      4
   236    252    253  1      4
   237    236    253  1      4
   237    253    254  1      4
   238    237    254  1      4
   238    254    255  1      4
   239    238    255  1      4
   239    255    256  1      4
   240    239    256  1      4
   240    256    257  1      4
   241    240    257  1      4
   241    257    258  1      4
   242    241    258  1      4
   242    258    259  1      4
   243    242    259  1      4
   243    259    260  1      4
   244    243    260  1      4
   245    244    260  1      4
   228    244    245  1      4
   246    245    261  1      4
   246    261    262  1      4
   248    247    263  1      4
   248    263    264  1      4
   249    248    264  1      4
   249    264    265  1      4
   250    249    265  1      4
   250    265    266  1      4
   251    250    266  1      4
   251    266    267  1      4
   252    251    267  1      4
   252    267    268  1      4
   253    252    268  1      4
   253    268    269  1      4
   254    253    269  1      4
   254    269    270  1      4
   255    254    270  1      4
   255    270    271  1      4
   256    255    271  1      4
   256    271    272  1      4
   257    256    272  1      4
   257    272    273  1      4
   258    257    273  1      4
   258    273    274  1      4
   259    258    274  1      4
   259    274    275  1      4
   260    259    275  1      4
   261    260    275  1      4
   245    260    261  1      4
   262    261    276  1      4
   262    276    277  1      4
   264    263    278  1      4
   264    278    279  1      4
   265    264    279  1      4
   265    279    280  1      4
   266    265    280  1      4
   266    280    281  1      4
   267    266    281  1      4
   267    281    282  1      4
   268    267    282  1      4
   268    282    283  1      4
   269    268    283  1      4
   269    283    284  1      4
   270    269    284  1      4
   271    270    284  1      4
   271    284    285  1      4
   272    271    285  1      4
   272    285    286  1      4
   273    272    286  1      4
   273    286    287  1      4
   274    273    287  1      4
   274    287    288  1      4
   275    274    288  1      4
   276    275    288  1      4
   261    275    276  1      4
   277    276    289  1      4
   277    289    290  1      4
   278    291    292  1      4
   279    278    292  1      4
   280    279    292  1      4
   280    292    293  1      4
   281    280    293  1      4
   281    293    294  1      4
   282    281    294  1      4
   282    294    295  1      4
   283    282    295  1      4
   283    295    296  1      4
   284    283    296  1      4
   285    284    296  1      4
   285    296    297  1      4
   286    285    297  1      4
   286    297    298  1      4
   287    286    298  1      4
   287    298    299  1      4
   288    287    299  1      4
   289    288    299  1      4
   276    288    289  1      4
   290    289    300  1      4
   290    300    301  1      4
   291    302    303  1      4
   292    291    303  1      4
   292    303    304  1      4
   293    292    304  1      4
   294    293    304  1      4
   294    304    305  1      4
   295    294    305  1      4
   295    305    306  1      4
   296    295    306  1      4
   296    306    307  1      4
   297    296    307  1      4
   298    297    307  1      4
   298    307    308  1      4
   299    298    308  1      4
   300    299    308  1      4
   289    299    300  1      4
   301    300    309  1      4
   301    309    310  1      4
   302    311    312  1      4
   303    302    312  1      4
   304    303    312  1      4
   304    312    313  1      4
   305    304    313  1      4
   306    305    313  1      4
   306    313    314  1      4
   307    306    314  1      4
   308    307    314  1      4
   309    308    314  1      4
   300    308    309  1      4
   310    309    315  1      4
   311    310    315  1      4
   312    311    315  1      4
   313    312    315  1      4
   314    313    315  1      4
   309    314    315  1      4
   311    302     21  1      4
   311     21     19  1      4
   311     19    310  1      4
   310     19     17  1      4
   310     17     15  1      4
   310     15    301  1      4
   301     15     13  1      4
   301     13    290  1      4
   290     13     11  1      4
   290     11    277  1      4
   277     11      9  1      4
   277      9    262  1      4
   262      9      7  1      4
   262      7    246  1      4
   246      7      1  1      4
   246      1    229  1      4
   229      1    213  1      4
   213      1     55  1      4
   213     55    198  1      4
   198     55     53  1      4
   198     53    185  1      4
   185     53     51  1      4
   185     51    174  1      4
   174     51     49  1      4
   174     49    165  1      4
   165     49     47  1      4
   165     47    159  1      4
   159     47     45  1      4
   159     45     43  1      4
   159     43    160  1      4
   160     43     41  1      4
   160     41    166  1      4
   166     41     39  1      4
   166     39    175  1      4
   175     39     37  1      4
   175     37    186  1      4
   186     37     35  1      4
   186     35    199  1      4
   199     35     33  1      4
   199     33    214  1      4
   214     33    230  1      4
   230     33     31  1      4
   230     31     29  1      4
   230     29    247  1      4
   247     29    263  1      4
   263     29     27  1      4
   263     27    278  1      4
   278     27     25  1      4
   278     25    291  1      4
   291     25     23  1      4
   291     23    302  1      4
   302     23     21  1      4
   316    317    318  1      5
   316    318    319  1      5
   316    319    320  1      5
   316    320    321  1      5
   316    321    322  1      5
   316    322    317  1      5
   318    317    324  1      5
   320    319    325  1      5
   320    325    326  1      5
   320    326    327  1      5
   321    320    327  1      5
   317    322    328  1      5
   317    328    323  1      5
   317    323    324  1      5
   324    323    330  1      5
   326    325    331  1      5
   326    331    332  1      5
   327    326    332  1      5
   323    328    333  1      5
   323    333    329  1      5
   323    329    330  1      5
   330    329    335  1      5
   332    331    336  1      5
   332    336    337  1      5
   329    333    338  1      5
   329    338    334  1      5
   329    334    335  1      5
   335    334    340  1      5
   337    336    341  1      5
   337    341    342  1      5
   334    338    343  1      5
   334    343    339  1      5
   334    339    340  1      5
   340    339    345  1      5
   341    346    347  1      5
   342    341    347  1      5
   339    343    348  1      5
   339    348    344  1      5
   339    344    345  1      5
   345    344    350  1      5
   346    351    352  1      5
   347    346    352  1      5
   347    352    353  1      5
   344    348    354  1      5
   344    354    349  1      5
   344    349    350  1      5
   350    349    355  1      5
   350    355    356  1      5
   352    351    357  1      5
   352    357    358  1      5
   353    352    358  1      5
   355    354    359  1      5
   349    354    355  1      5
   356    355    360  1      5
   356    360    361  1      5
   358    357    362  1      5
   358    362    363  1      5
   360    359    364  1      5
   355    359    360  1      5
   361    360    365  1      5
   361    365    366  1      5
   363    362    367  1      5
   363    367    368  1      5
   365    364    369  1      5
   360    364    365  1      5
   366    365    370  1      5
   366    370    371  1      5
   367    372    373  1      5
   368    367    373  1      5
   370    369    374  1      5
   365    369    370  1      5
   371    370    375  1      5
   371    375    376  1      5
   372    377    378  1      5
   373    372    378  1      5
   373    378    379  1      5
   375    374    380  1      5
   370    374    375  1      5
   376    375    381  1      5
   376    381    382  1      5
   377    383    384  1      5
   378    377    384  1      5
   379    378    384  1      5
   379    384    385  1      5
   381    380    386  1      5
   375    380    381  1      5
   382    381    387  1      5
   383    382    387  1      5
   384    383    387  1      5
   385    384    387  1      5
   386    385    387  1      5
   381    386    387  1      5
   386    380     16  1      5
   386     16     18  1      5
   386     18    385  1      5
   385     18     20  1      5
   385     20     22  1      5
   385     22    379  1      5
   379     22     24  1      5
   379     24    373  1      5
   373     24     26  1      5
   373     26    368  1      5
   368     26     28  1      5
   368     28    363  1      5
   363     28     30  1      5
   363     30    358  1      5
   358     30    353  1      5
   353     30     32  1      5
   353     32     34  1      5
   353     34    347  1      5
   347     34    342  1      5
   342     34     36  1      5
   342     36    337  1      5
   337     36     38  1      5
   337     38    332  1      5
   332     38     40  1      5
   332     40    327  1      5
   327     40     42  1      5
   327     42    321  1      5
   321     42     44  1      5
   321     44     46  1      5
   321     46    322  1      5
   322     46     48  1      5
   322     48    328  1      5
   328     48     50  1      5
   328     50    333  1      5
   333     50     52  1      5
   333     52    338  1      5
   338     52     54  1      5
   338     54    343  1      5
   343     54     56  1      5
   343     56    348  1      5
   348     56      2  1      5
   348      2    354  1      5
   354      2    359  1      5
   359      2      8  1      5
   359      8    364  1      5
   364      8     10  1      5
   364     10    369  1      5
   369     10     12  1      5
   369     12    374  1      5
   374     12     14  1      5
   374     14    380  1      5
   380     14     16  1      5
   383    377     66  1      5
   383     66     68  1      5
   383     68    382  1      5
   382     68     70  1      5
   382     70     72  1      5
   382     72    376  1      5
   376     72     74  1      5
   376     74    371  1      5
   371     74     76  1      5
   371     76    366  1      5
   366     76     78  1      5
   366     78    361  1      5
   361     78     80  1      5
   361     80    356  1      5
   356     80     82  1      5
   356     82    350  1      5
   350     82    345  1      5
   345     82     84  1      5
   345     84    340  1      5
   340     84     86  1      5
   340     86    335  1      5
   335     86     88  1      5
   335     88    330  1      5
   330     88     90  1      5
   330     90    324  1      5
   324     90     92  1      5
   324     92    318  1      5
   318     92     94  1      5
   318     94     96  1      5
   318     96    319  1      5
   319     96     98  1      5
   319     98    325  1      5
   325     98    100  1      5
   325    100    331  1      5
   331    100    102  1      5
   331    102    336  1      5
   336    102    104  1      5
   336    104    341  1      5
   341    104    106  1      5
   341    106    346  1      5
   346    106    351  1      5
   351    106      4  1      5
   351      4     58  1      5
   351     58    357  1      5
   357     58    362  1      5
   362     58     60  1      5
   362     60    367  1      5
   367     60     62  1      5
   367     62    372  1      5
   372     62     64  1      5
   372     64    377  1      5
   377     64     66  1      5
   388    389    390  1      6
   388    390    391  1      6
   388    391    392  1      6
   388    392    393  1      6
   388    393    394  1      6
   388    394    389  1      6
   390    389    396  1      6
   392    391    397  1      6
   392    397    398  1      6
   392    398    399  1      6
   393    392    399  1      6
   389    394    400  1      6
   389    400    395  1      6
   389    395    396  1      6
   396    395    402  1      6
   398    397    403  1      6
   398    403    404  1      6
   399    398    404  1      6
   395    400    405  1      6
   395    405    401  1      6
   395    401    402  1      6
   402    401    407  1      6
   404    403    408  1      6
   404    408    409  1      6
   401    405    410  1      6
   401    410    406  1      6
   401    406    407  1      6
   407    406    412  1      6
   409    408    413  1      6
   409    413    414  1      6
   406    410    415  1      6
   406    415    411  1      6
   406    411    412  1      6
   412    411    417  1      6
   413    418    419  1      6
   414    413    419  1      6
   411    415    420  1      6
   411    420    416  1      6
   411    416    417  1      6
   417    416    422  1      6
   418    423    424  1      6
   419    418    424  1      6
   419    424    425  1      6
   416    420    426  1      6
   416    426    421  1      6
   416    421    422  1      6
   422    421    427  1      6
   422    427    428  1      6
   424    423    429  1      6
   424    429    430  1      6
   425    424    430  1      6
   427    426    431  1      6
   421    426    427  1      6
   428    427    432  1      6
   428    432    433  1      6
   430    429    434  1      6
   430    434    435  1      6
   432    431    436  1      6
   427    431    432  1      6
   433    432    437  1      6
   433    437    438  1      6
   435    434    439  1      6
   435    439    440  1      6
   437    436    441  1      6
   432    436    437  1      6
   438    437    442  1      6
   438    442    443  1      6
   439    444    445  1      6
   440    439    445  1      6
   442    441    446  1      6
   437    441    442  1      6
   443    442    447  1      6
   443    447    448  1      6
   444    449    450  1      6
   445    444    450  1      6
   445    450    451  1      6
   447    446    452  1      6
   442    446    447  1      6
   448    447    453  1      6
   448    453    454  1      6
   449    455    456  1      6
   450    449    456  1      6
   451    450    456  1      6
   451    456    457  1      6
   453    452    458  1      6
   447    452    453  1      6
   454    453    459  1      6
   455    454    459  1      6
   456    455    459  1      6
   457    456    459  1      6
   458    457    459  1      6
   453    458    459  1      6
   458    452     71  1      6
   458     71     69  1      6
   458     69    457  1      6
   457     69     67  1      6
   457     67     65  1      6
   457     65    451  1      6
   451     65     63  1      6
   451     63    445  1      6
   445     63     61  1      6
   445     61    440  1      6
   440     61     59  1      6
   440     59    435  1      6
   435     59     57  1      6
   435     57    430  1      6
   430     57    425  1      6
   425     57      3  1      6
   425      3    105  1      6
   425    105    419  1      6
   419    105    414  1      6
   414    105    103  1      6
   414    103    409  1      6
   409    103    101  1      6
   409    101    404  1      6
   404    101     99  1      6
   404     99    399  1      6
   399     99     97  1      6
   399     97    393  1      6
   393     97     95  1      6
   393     95    394  1      6
   394     95     93  1      6
   394     93     91  1      6
   394     91    400  1      6
   400     91     89  1      6
   400     89    405  1      6
   405     89     87  1      6
   405     87    410  1      6
   410     87     85  1      6
   410     85    415  1      6
   415     85     83  1      6
   415     83    420  1      6
   420     83     81  1      6
   420     81    426  1      6
   426     81    431  1      6
   431     81     79  1      6
   431     79    436  1      6
   436     79     77  1      6
   436     77    441  1      6
   441     77     75  1      6
   441     75    446  1      6
   446     75     73  1      6
   446     73    452  1      6
   452     73     71  1      6
   455    449    121  1      6
   455    121    119  1      6
   455    119    454  1      6
   454    119    117  1      6
   454    117    115  1      6
   454    115    448  1      6
   448    115    113  1      6
   448    113    443  1      6
   443    113    111  1      6
   443    111    438  1      6
   438    111    109  1      6
   438    109    433  1      6
   433    109    107  1      6
   433    107    428  1      6
   428    107      5  1      6
   428      5    422  1      6
   422      5    417  1      6
   417      5    155  1      6
   417    155    412  1      6
   412    155    153  1      6
   412    153    407  1      6
   407    153    151  1      6
   407    151    402  1      6
   402    151    149  1      6
   402    149    396  1      6
   396    149    147  1      6
   396    147    390  1      6
   390    147    145  1      6
   390    145    391  1      6
   391    145    143  1      6
   391    143    141  1      6
   391    141    397  1      6
   397    141    139  1      6
   397    139    403  1      6
   403    139    137  1      6
   403    137    408  1      6
   408    137    135  1      6
   408    135    413  1      6
   413    135    133  1      6
   413    133    418  1      6
   418    133    423  1      6
   423    133    131  1      6
   423    131    129  1      6
   423    129    429  1      6
   429    129    434  1      6
   434    129    127  1      6
   434    127    439  1      6
   439    127    125  1      6
   439    125    444  1      6
   444    125    123  1      6
   444    123    449  1      6
   449    123    121  1      6
   460    461    462  1      7
   460    462    463  1      7
   460    463    464  1      7
   460    464    465  1      7
   460    465    466  1      7
   460    466    461  1      7
   462    461    468  1      7
   462    468    469  1      7
   462    469    470  1      7
   463    462    470  1      7
   463    470    471  1      7
   463    471    472  1      7
   464    463    472  1      7
   464    472    473  1      7
   464    473    474  1      7
   465    464    474  1      7
   461    466    475  1      7
   461    475    467  1      7
   461    467    468  1      7
   468    467    477  1      7
   468    477    478  1      7
   469    468    478  1      7
   469    478    479  1      7
   469    479    480  1      7
   470    469    480  1      7
   470    480    481  1      7
   471    470    481  1      7
   471    481    482  1      7
   472    471    482  1      7
   472    482    483  1      7
   472    483    484  1      7
   473    472    484  1      7
   473    484    485  1      7
   474    473    485  1      7
   467    475    486  1      7
   467    486    476  1      7
   467    476    477  1      7
   477    476    488  1      7
   477    488    489  1      7
   478    477    489  1      7
   478    489    490  1      7
   479    478    490  1      7
   479    490    491  1      7
   480    479    491  1      7
   480    491    492  1      7
   480    492    493  1      7
   481    480    493  1      7
   481    493    494  1      7
   482    481    494  1      7
   482    494    495  1      7
   483    482    495  1      7
   483    495    496  1      7
   484    483    496  1      7
   484    496    497  1      7
   485    484    497  1      7
   485    497    498  1      7
   476    486    499  1      7
   476    499    487  1      7
   476    487    488  1      7
   488    487    501  1      7
   488    501    502  1      7
   489    488    502  1      7
   489    502    503  1      7
   490    489    503  1      7
   490    503    504  1      7
   491    490    504  1      7
   491    504    505  1      7
   492    491    505  1      7
   492    505    506  1      7
   492    506    507  1      7
   493    492    507  1      7
   493    507    508  1      7
   494    493    508  1      7
   494    508    509  1      7
   495    494    509  1      7
   495    509    510  1      7
   496    495    510  1      7
   496    510    511  1      7
   497    496    511  1      7
   497    511    512  1      7
   498    497    512  1      7
   498    512    513  1      7
   487    499    514  1      7
   487    514    500  1      7
   487    500    501  1      7
   501    500    516  1      7
   501    516    517  1      7
   502    501    517  1      7
   502    517    518  1      7
   503    502    518  1      7
   503    518    519  1      7
   504    503    519  1      7
   504    519    520  1      7
   505    504    520  1      7
   505    520    521  1      7
   506    505    521  1      7
   506    521    522  1      7
   507    506    522  1      7
   507    522    523  1      7
   508    507    523  1      7
   508    523    524  1      7
   509    508    524  1      7
   509    524    525  1      7
   510    509    525  1      7
   510    525    526  1      7
   511    510    526  1      7
   511    526    527  1      7
   512    511    527  1      7
   512    527    528  1      7
   512    528    529  1      7
   513    512    529  1      7
   500    514    530  1      7
   500    530    515  1      7
   500    515    516  1      7
   516    515    532  1      7
   516    532    533  1      7
   517    516    533  1      7
   517    533    534  1      7
   518    517    534  1      7
   518    534    535  1      7
   519    518    535  1      7
   519    535    536  1      7
   520    519    536  1      7
   520    536    537  1      7
   521    520    537  1      7
   521    537    538  1      7
   522    521    538  1      7
   522    538    539  1      7
   523    522    539  1      7
   523    539    540  1      7
   524    523    540  1      7
   524    540    541  1      7
   525    524    541  1      7
   525    541    542  1      7
   526    525    542  1      7
   526    542    543  1      7
   527    526    543  1      7
   527    543    544  1      7
   528    527    544  1      7
   528    544    545  1      7
   529    528    545  1      7
   529    545    546  1      7
   515    530    547  1      7
   515    547    531  1      7
   515    531    532  1      7
   532    531    548  1      7
   532    548    549  1      7
   533    532    549  1      7
   533    549    550  1      7
   534    533    550  1      7
   534    550    551  1      7
   535    534    551  1      7
   535    551    552  1      7
   536    535    552  1      7
   536    552    553  1      7
   537    536    553  1      7
   537    553    554  1      7
   538    537    554  1      7
   538    554    555  1      7
   539    538    555  1      7
   539    555    556  1      7
   540    539    556  1      7
   540    556    557  1      7
   541    540    557  1      7
   541    557    558  1      7
   542    541    558  1      7
   542    558    559  1      7
   543    542    559  1      7
   543    559    560  1      7
   544    543    560  1      7
   544    560    561  1      7
   545    544    561  1      7
   545    561    562  1      7
   546    545    562  1      7
   548    547    563  1      7
   531    547    548  1      7
   549    548    564  1      7
   549    564    565  1      7
   550    549    565  1      7
   550    565    566  1      7
   551    550    566  1      7
   551    566    567  1      7
   552    551    567  1      7
   552    567    568  1      7
   553    552    568  1      7
   553    568    569  1      7
   554    553    569  1      7
   554    569    570  1      7
   555    554    570  1      7
   555    570    571  1      7
   556    555    571  1      7
   556    571    572  1      7
   557    556    572  1      7
   557    572    573  1      7
   558    557    573  1      7
   558    573    574  1      7
   559    558    574  1      7
   559    574    575  1      7
   560    559    575  1      7
   560    575    576  1      7
   561    560    576  1      7
   562    561    576  1      7
   562    576    577  1      7
   564    563    578  1      7
   548    563    564  1      7
   565    564    579  1      7
   565    579    580  1      7
   566    565    580  1      7
   566    580    581  1      7
   567    566    581  1      7
   567    581    582  1      7
   568    567    582  1      7
   568    582    583  1      7
   569    568    583  1      7
   569    583    584  1      7
   570    569    584  1      7
   571    570    584  1      7
   571    584    585  1      7
   572    571    585  1      7
   572    585    586  1      7
   573    572    586  1      7
   573    586    587  1      7
   574    573    587  1      7
   574    587    588  1      7
   575    574    588  1      7
   575    588    589  1      7
   576    575    589  1      7
   577    576    589  1      7
   577    589    590  1      7
   579    578    591  1      7
   564    578    579  1      7
   580    579    592  1      7
   580    592    593  1      7
   581    580    593  1      7
   581    593    594  1      7
   582    581    594  1      7
   582    594    595  1      7
   583    582    595  1      7
   583    595    596  1      7
   584    583    596  1      7
   585    584    596  1      7
   585    596    597  1      7
   586    585    597  1      7
   586    597    598  1      7
   587    586    598  1      7
   587    598    599  1      7
   588    587    599  1      7
   588    599    600  1      7
   589    588    600  1      7
   589    600    601  1      7
   590    589    601  1      7
   592    591    602  1      7
   579    591    592  1      7
   593    592    603  1      7
   593    603    604  1      7
   594    593    604  1      7
   594    604    605  1      7
   595    594    605  1      7
   596    595    605  1      7
   596    605    606  1      7
   597    596    606  1      7
   597    606    607  1      7
   598    597    607  1      7
   598    607    608  1      7
   599    598    608  1      7
   600    599    608  1      7
   600    608    609  1      7
   601    600    609  1      7
   601    609    610  1      7
   603    602    611  1      7
   592    602    603  1      7
   604    603    612  1      7
   604    612    613  1      7
   605    604    613  1      7
   606    605    613  1      7
   606    613    614  1      7
   607    606    614  1      7
   608    607    614  1      7
   608    614    615  1      7
   609    608    615  1      7
   610    609    615  1      7
   610    615    616  1      7
   612    611    617  1      7
   603    611    612  1      7
   613    612    618  1      7
   614    613    618  1      7
   615    614    618  1      7
   616    615    618  1      7
   617    616    618  1      7
   612    617    618  1      7
   617    611    116  1      7
   617    116    118  1      7
   617    118    616  1      7
   616    118    120  1      7
   616    120    122  1      7
   616    122    610  1      7
   610    122    124  1      7
   610    124    601  1      7
   601    124    126  1      7
   601    126    590  1      7
   590    126    128  1      7
   590    128    577  1      7
   577    128    130  1      7
   577    130    562  1      7
   562    130    546  1      7
   546    130    132  1      7
   546    132    134  1      7
   546    134    529  1      7
   529    134    513  1      7
   513    134    136  1      7
   513    136    498  1      7
   498    136    138  1      7
   498    138    485  1      7
   485    138    140  1      7
   485    140    474  1      7
   474    140    142  1      7
   474    142    465  1      7
   465    142    144  1      7
   465    144    466  1      7
   466    144    146  1      7
   466    146    148  1      7
   466    148    475  1      7
   475    148    150  1      7
   475    150    486  1      7
   486    150    152  1      7
   486    152    499  1      7
   499    152    154  1      7
   499    154    514  1      7
   514    154    156  1      7
   514    156    530  1      7
   530    156      6  1      7
   530      6    547  1      7
   547      6    563  1      7
   563      6    108  1      7
   563    108    578  1      7
   578    108    110  1      7
   578    110    591  1      7
   591    110    112  1      7
   591    112    602  1      7
   602    112    114  1      7
   602    114    611  1      7
   611    114    116  1      7
