# MSMS solvent excluded surface faces for TA.xyzr
#faces  #sphere density probe_r
    840       3  2.00  1.00
     1      5      2  3      1
     2      5      6  3      1
     5      7      6  3      1
     6      7      8  3      1
     7      9      8  3      1
     8      9     10  3      1
     9     11     10  3      1
    10     11     12  3      1
    11     13     12  3      1
    12     13     14  3      1
    13     15     14  3      1
    14     15     16  3      1
    15     17     16  3      1
    16     17     18  3      1
    17     19     18  3      1
    18     19     20  3      1
    19     21     20  3      1
    20     21     22  3      1
    21     23     22  3      1
    22     23     24  3      1
    23     25     24  3      1
    24     25     26  3      1
    25     27     26  3      1
    26     27     28  3      1
    27     29     28  3      1
    28     29     30  3      1
    29     31     30  3      1
    30     31     32  3      1
    31     33     32  3      1
    32     33     34  3      1
    33     35     34  3      1
    34     35     36  3      1
    35     37     36  3      1
    36     37     38  3      1
    37     39     38  3      1
    38     39     40  3      1
    39     41     40  3      1
    40     41     42  3      1
    41     43     42  3      1
    42     43     44  3      1
    43     45     44  3      1
    44     45     46  3      1
    45     47     46  3      1
    46     47     48  3      1
    47     49     48  3      1
    48     49     50  3      1
    49     51     50  3      1
    50     51     52  3      1
    51     53     52  3      1
    52     53     54  3      1
    53      1     54  3      1
    54      1      2  3      1
     3     55      4  3      2
     4     55     56  3      2
    55     57     56  3      2
    56     57     58  3      2
    57     59     58  3      2
    58     59     60  3      2
    59     61     60  3      2
    60     61     62  3      2
    61     63     62  3      2
    62     63     64  3      2
    63     65     64  3      2
    64     65     66  3      2
    65     67     66  3      2
    66     67     68  3      2
    67     69     68  3      2
    68     69     70  3      2
    69     71     70  3      2
    70     71     72  3      2
    71     73     72  3      2
    72     73     74  3      2
    73     75     74  3      2
    74     75     76  3      2
    75     77     76  3      2
    76     77     78  3      2
    77     79     78  3      2
    78     79     80  3      2
    79     81     80  3      2
    80     81     82  3      2
    81     83     82  3      2
    82     83     84  3      2
    83     85     84  3      2
    84     85     86  3      2
    85     87     86  3      2
    86     87     88  3      2
    87     89     88  3      2
    88     89     90  3      2
    89     91     90  3      2
    90     91     92  3      2
    91     93     92  3      2
    92     93     94  3      2
    93     95     94  3      2
    94     95     96  3      2
    95     97     96  3      2
    96     97     98  3      2
    97     99     98  3      2
    98     99    100  3      2
    99    101    100  3      2
   100    101    102  3      2
   101    103    102  3      2
   102    103    104  3      2
   103      3    104  3      2
   104      3      4  3      2
   105    107    108  1      3
   105    108    109  1      3
   105    109    106  1      3
   107    111    112  1      3
   108    107    112  1      3
   108    112    113  1      3
   108    113    114  1      3
   109    108    114  1      3
   109    114    115  1      3
   109    115    116  1      3
   106    109    116  1      3
   106    116    110  1      3
   111    118    119  1      3
   112    111    119  1      3
   112    119    120  1      3
   112    120    121  1      3
   113    112    121  1      3
   113    121    122  1      3
   114    113    122  1      3
   114    122    123  1      3
   115    114    123  1      3
   115    123    124  1      3
   115    124    125  1      3
   116    115    125  1      3
   116    125    126  1      3
   110    116    126  1      3
   110    126    117  1      3
   119    118    128  1      3
   119    128    129  1      3
   119    129    130  1      3
   120    119    130  1      3
   120    130    131  1      3
   121    120    131  1      3
   121    131    132  1      3
   122    121    132  1      3
   122    132    133  1      3
   123    122    133  1      3
   123    133    134  1      3
   123    134    135  1      3
   124    123    135  1      3
   124    135    136  1      3
   125    124    136  1      3
   125    136    137  1      3
   126    125    137  1      3
   126    137    138  1      3
   117    126    138  1      3
   117    138    127  1      3
   129    128    140  1      3
   129    140    141  1      3
   129    141    142  1      3
   130    129    142  1      3
   130    142    143  1      3
   131    130    143  1      3
   131    143    144  1      3
   132    131    144  1      3
   132    144    145  1      3
   133    132    145  1      3
   133    145    146  1      3
   134    133    146  1      3
   134    146    147  1      3
   134    147    148  1      3
   135    134    148  1      3
   135    148    149  1      3
   136    135    149  1      3
   136    149    150  1      3
   137    136    150  1      3
   137    150    151  1      3
   138    137    151  1      3
   138    151    152  1      3
   127    138    152  1      3
   127    152    139  1      3
   140    154    155  1      3
   141    140    155  1      3
   141    155    156  1      3
   142    141    156  1      3
   142    156    157  1      3
   143    142    157  1      3
   143    157    158  1      3
   144    143    158  1      3
   144    158    159  1      3
   145    144    159  1      3
   145    159    160  1      3
   146    145    160  1      3
   146    160    161  1      3
   147    146    161  1      3
   147    161    162  1      3
   148    147    162  1      3
   148    162    163  1      3
   149    148    163  1      3
   149    163    164  1      3
   150    149    164  1      3
   150    164    165  1      3
   151    150    165  1      3
   151    165    166  1      3
   152    151    166  1      3
   152    166    167  1      3
   139    152    167  1      3
   139    167    153  1      3
   155    154    169  1      3
   155    169    170  1      3
   156    155    170  1      3
   156    170    171  1      3
   157    156    171  1      3
   157    171    172  1      3
   158    157    172  1      3
   158    172    173  1      3
   159    158    173  1      3
   159    173    174  1      3
   160    159    174  1      3
   160    174    175  1      3
   161    160    175  1      3
   161    175    176  1      3
   162    161    176  1      3
   162    176    177  1      3
   163    162    177  1      3
   163    177    178  1      3
   164    163    178  1      3
   164    178    179  1      3
   165    164    179  1      3
   165    179    180  1      3
   166    165    180  1      3
   166    180    181  1      3
   167    166    181  1      3
   167    181    182  1      3
   153    167    182  1      3
   153    182    168  1      3
   169    184    185  1      3
   170    169    185  1      3
   170    185    186  1      3
   171    170    186  1      3
   171    186    187  1      3
   172    171    187  1      3
   172    187    188  1      3
   173    172    188  1      3
   173    188    189  1      3
   174    173    189  1      3
   174    189    190  1      3
   175    174    190  1      3
   175    190    191  1      3
   176    175    191  1      3
   176    191    192  1      3
   177    176    192  1      3
   177    192    193  1      3
   178    177    193  1      3
   178    193    194  1      3
   179    178    194  1      3
   179    194    195  1      3
   180    179    195  1      3
   180    195    196  1      3
   181    180    196  1      3
   181    196    197  1      3
   182    181    197  1      3
   183    182    197  1      3
   168    182    183  1      3
   185    184    199  1      3
   185    199    200  1      3
   186    185    200  1      3
   186    200    201  1      3
   187    186    201  1      3
   187    201    202  1      3
   188    187    202  1      3
   188    202    203  1      3
   189    188    203  1      3
   189    203    204  1      3
   190    189    204  1      3
   190    204    205  1      3
   191    190    205  1      3
   191    205    206  1      3
   192    191    206  1      3
   192    206    207  1      3
   193    192    207  1      3
   193    207    208  1      3
   194    193    208  1      3
   194    208    209  1      3
   195    194    209  1      3
   195    209    210  1      3
   196    195    210  1      3
   196    210    211  1      3
   197    196    211  1      3
   198    197    211  1      3
   183    197    198  1      3
   200    199    213  1      3
   200    213    214  1      3
   201    200    214  1      3
   201    214    215  1      3
   202    201    215  1      3
   202    215    216  1      3
   203    202    216  1      3
   203    216    217  1      3
   204    203    217  1      3
   204    217    218  1      3
   205    204    218  1      3
   205    218    219  1      3
   206    205    219  1      3
   207    206    219  1      3
   207    219    220  1      3
   208    207    220  1      3
   208    220    221  1      3
   209    208    221  1      3
   209    221    222  1      3
   210    209    222  1      3
   210    222    223  1      3
   211    210    223  1      3
   212    211    223  1      3
   198    211    212  1      3
   213    225    226  1      3
   214    213    226  1      3
   215    214    226  1      3
   215    226    227  1      3
   216    215    227  1      3
   216    227    228  1      3
   217    216    228  1      3
   217    228    229  1      3
   218    217    229  1      3
   218    229    230  1      3
   219    218    230  1      3
   220    219    230  1      3
   220    230    231  1      3
   221    220    231  1      3
   221    231    232  1      3
   222    221    232  1      3
   222    232    233  1      3
   223    222    233  1      3
   224    223    233  1      3
   212    223    224  1      3
   226    225    235  1      3
   226    235    236  1      3
   227    226    236  1      3
   228    227    236  1      3
   228    236    237  1      3
   229    228    237  1      3
   229    237    238  1      3
   230    229    238  1      3
   230    238    239  1      3
   231    230    239  1      3
   232    231    239  1      3
   232    239    240  1      3
   233    232    240  1      3
   234    233    240  1      3
   224    233    234  1      3
   236    235    242  1      3
   236    242    243  1      3
   237    236    243  1      3
   238    237    243  1      3
   238    243    244  1      3
   239    238    244  1      3
   240    239    244  1      3
   241    240    244  1      3
   234    240    241  1      3
   243    242    245  1      3
   244    243    245  1      3
   241    244    245  1      3
   245    242     17  1      3
   245     17     15  1      3
   245     15    241  1      3
   241     15     13  1      3
   241     13    234  1      3
   234     13     11  1      3
   234     11    224  1      3
   224     11      9  1      3
   224      9    212  1      3
   212      9      7  1      3
   212      7    198  1      3
   198      7      5  1      3
   198      5    183  1      3
   183      5      1  1      3
   183      1    168  1      3
   168      1    153  1      3
   153      1     53  1      3
   153     53    139  1      3
   139     53     51  1      3
   139     51    127  1      3
   127     51     49  1      3
   127     49    117  1      3
   117     49     47  1      3
   117     47    110  1      3
   110     47     45  1      3
   110     45    106  1      3
   106     45     43  1      3
   106     43    105  1      3
   105     43     41  1      3
   105     41    107  1      3
   107     41     39  1      3
   107     39    111  1      3
   111     39     37  1      3
   111     37    118  1      3
   118     37     35  1      3
   118     35    128  1      3
   128     35     33  1      3
   128     33    140  1      3
   140     33     31  1      3
   140     31    154  1      3
   154     31     29  1      3
   154     29    169  1      3
   169     29    184  1      3
   184     29     27  1      3
   184     27    199  1      3
   199     27     25  1      3
   199     25    213  1      3
   213     25     23  1      3
   213     23    225  1      3
   225     23     21  1      3
   225     21    235  1      3
   235     21     19  1      3
   235     19    242  1      3
   242     19     17  1      3
   250    252    253  1      4
   253    252    255  1      4
   253    255    256  1      4
   256    255    258  1      4
   256    258    259  1      4
   258    261    262  1      4
   259    258    262  1      4
   262    261    264  1      4
   264    266    267  1      4
   267    266    269  1      4
   267    269    270  1      4
   270    269    272  1      4
   270    272    273  1      4
   272    275    276  1      4
   273    272    276  1      4
   276    275    278  1      4
   276    278     22  1      4
   276     22     24  1      4
   276     24    273  1      4
   273     24     26  1      4
   273     26    270  1      4
   270     26     28  1      4
   270     28    267  1      4
   267     28     30  1      4
   267     30    264  1      4
   264     30    262  1      4
   262     30     32  1      4
   262     32    259  1      4
   259     32     34  1      4
   259     34    256  1      4
   256     34     36  1      4
   256     36    253  1      4
   253     36     38  1      4
   253     38    250  1      4
   250     38     40  1      4
   250     40    248  1      4
   250    248     96  1      4
   250     96     98  1      4
   250     98    252  1      4
   252     98    100  1      4
   252    100    255  1      4
   255    100    102  1      4
   255    102    258  1      4
   258    102    104  1      4
   258    104    261  1      4
   261    104      4  1      4
   261      4    264  1      4
   264      4    266  1      4
   266      4     56  1      4
   266     56    269  1      4
   269     56     58  1      4
   269     58    272  1      4
   272     58     60  1      4
   272     60    275  1      4
   275     60     62  1      4
   275     62    278  1      4
   278     62     64  1      4
   278     64    280  1      4
   278    280     20  1      4
   278     20     22  1      4
    20    280     18  1      4
    18    280    281  1      4
    18    281     16  1      4
    16    281    279  1      4
    16    279     14  1      4
    14    279    277  1      4
    14    277     12  1      4
    12    277    274  1      4
    12    274     10  1      4
    10    274    271  1      4
    10    271      8  1      4
     8    271    268  1      4
     8    268      6  1      4
     6    268    265  1      4
     6    265      2  1      4
     2    265    263  1      4
     2    263    260  1      4
     2    260     54  1      4
    54    260    257  1      4
    54    257     52  1      4
    52    257    254  1      4
    52    254     50  1      4
    50    254    251  1      4
    50    251     48  1      4
    48    251    249  1      4
    48    249     46  1      4
    46    249    247  1      4
    46    247     44  1      4
    44    247    246  1      4
    44    246     42  1      4
    42    246    248  1      4
    42    248     40  1      4
   248    246     94  1      4
   248     94     96  1      4
    94    246     92  1      4
    92    246    247  1      4
    92    247     90  1      4
    90    247    249  1      4
    90    249     88  1      4
    88    249    251  1      4
    88    251     86  1      4
    86    251    254  1      4
    86    254     84  1      4
    84    254    257  1      4
    84    257     82  1      4
    82    257    260  1      4
    82    260     80  1      4
    80    260    263  1      4
    80    263    265  1      4
    80    265     78  1      4
    78    265    268  1      4
    78    268     76  1      4
    76    268    271  1      4
    76    271     74  1      4
    74    271    274  1      4
    74    274     72  1      4
    72    274    277  1      4
    72    277     70  1      4
    70    277    279  1      4
    70    279     68  1      4
    68    279    281  1      4
    68    281     66  1      4
    66    281    280  1      4
    66    280     64  1      4
   282    283    284  1      5
   282    284    285  1      5
   282    285    286  1      5
   284    283    288  1      5
   284    288    289  1      5
   284    289    290  1      5
   285    284    290  1      5
   285    290    291  1      5
   285    291    292  1      5
   286    285    292  1      5
   286    292    293  1      5
   283    287    288  1      5
   288    287    295  1      5
   288    295    296  1      5
   289    288    296  1      5
   289    296    297  1      5
   289    297    298  1      5
   290    289    298  1      5
   290    298    299  1      5
   291    290    299  1      5
   291    299    300  1      5
   292    291    300  1      5
   292    300    301  1      5
   292    301    302  1      5
   293    292    302  1      5
   293    302    303  1      5
   287    294    295  1      5
   295    294    305  1      5
   295    305    306  1      5
   296    295    306  1      5
   296    306    307  1      5
   297    296    307  1      5
   297    307    308  1      5
   298    297    308  1      5
   298    308    309  1      5
   298    309    310  1      5
   299    298    310  1      5
   299    310    311  1      5
   300    299    311  1      5
   300    311    312  1      5
   301    300    312  1      5
   301    312    313  1      5
   302    301    313  1      5
   302    313    314  1      5
   303    302    314  1      5
   303    314    315  1      5
   294    304    305  1      5
   305    304    317  1      5
   305    317    318  1      5
   306    305    318  1      5
   306    318    319  1      5
   307    306    319  1      5
   307    319    320  1      5
   308    307    320  1      5
   308    320    321  1      5
   309    308    321  1      5
   309    321    322  1      5
   309    322    323  1      5
   310    309    323  1      5
   310    323    324  1      5
   311    310    324  1      5
   311    324    325  1      5
   312    311    325  1      5
   312    325    326  1      5
   313    312    326  1      5
   313    326    327  1      5
   314    313    327  1      5
   314    327    328  1      5
   315    314    328  1      5
   315    328    329  1      5
   304    316    317  1      5
   317    316    331  1      5
   317    331    332  1      5
   318    317    332  1      5
   318    332    333  1      5
   319    318    333  1      5
   319    333    334  1      5
   320    319    334  1      5
   320    334    335  1      5
   321    320    335  1      5
   321    335    336  1      5
   322    321    336  1      5
   322    336    337  1      5
   323    322    337  1      5
   323    337    338  1      5
   324    323    338  1      5
   324    338    339  1      5
   325    324    339  1      5
   325    339    340  1      5
   326    325    340  1      5
   326    340    341  1      5
   327    326    341  1      5
   327    341    342  1      5
   328    327    342  1      5
   328    342    343  1      5
   328    343    344  1      5
   329    328    344  1      5
   316    330    331  1      5
   331    330    346  1      5
   331    346    347  1      5
   332    331    347  1      5
   332    347    348  1      5
   333    332    348  1      5
   333    348    349  1      5
   334    333    349  1      5
   334    349    350  1      5
   335    334    350  1      5
   335    350    351  1      5
   336    335    351  1      5
   336    351    352  1      5
   337    336    352  1      5
   337    352    353  1      5
   338    337    353  1      5
   338    353    354  1      5
   339    338    354  1      5
   339    354    355  1      5
   340    339    355  1      5
   340    355    356  1      5
   341    340    356  1      5
   341    356    357  1      5
   342    341    357  1      5
   342    357    358  1      5
   343    342    358  1      5
   343    358    359  1      5
   344    343    359  1      5
   330    345    346  1      5
   346    345    360  1      5
   346    360    361  1      5
   347    346    361  1      5
   347    361    362  1      5
   348    347    362  1      5
   348    362    363  1      5
   349    348    363  1      5
   349    363    364  1      5
   350    349    364  1      5
   350    364    365  1      5
   351    350    365  1      5
   351    365    366  1      5
   352    351    366  1      5
   352    366    367  1      5
   353    352    367  1      5
   353    367    368  1      5
   354    353    368  1      5
   354    368    369  1      5
   355    354    369  1      5
   355    369    370  1      5
   356    355    370  1      5
   356    370    371  1      5
   357    356    371  1      5
   357    371    372  1      5
   358    357    372  1      5
   358    372    373  1      5
   359    358    373  1      5
   359    373    374  1      5
   361    360    375  1      5
   361    375    376  1      5
   362    361    376  1      5
   362    376    377  1      5
   363    362    377  1      5
   363    377    378  1      5
   364    363    378  1      5
   364    378    379  1      5
   365    364    379  1      5
   365    379    380  1      5
   366    365    380  1      5
   366    380    381  1      5
   367    366    381  1      5
   367    381    382  1      5
   368    367    382  1      5
   368    382    383  1      5
   369    368    383  1      5
   369    383    384  1      5
   370    369    384  1      5
   370    384    385  1      5
   371    370    385  1      5
   371    385    386  1      5
   372    371    386  1      5
   372    386    387  1      5
   373    372    387  1      5
   374    373    387  1      5
   374    387    388  1      5
   376    375    389  1      5
   376    389    390  1      5
   377    376    390  1      5
   377    390    391  1      5
   378    377    391  1      5
   378    391    392  1      5
   379    378    392  1      5
   379    392    393  1      5
   380    379    393  1      5
   380    393    394  1      5
   381    380    394  1      5
   382    381    394  1      5
   382    394    395  1      5
   383    382    395  1      5
   383    395    396  1      5
   384    383    396  1      5
   384    396    397  1      5
   385    384    397  1      5
   385    397    398  1      5
   386    385    398  1      5
   386    398    399  1      5
   387    386    399  1      5
   388    387    399  1      5
   388    399    400  1      5
   390    389    401  1      5
   390    401    402  1      5
   391    390    402  1      5
   391    402    403  1      5
   392    391    403  1      5
   392    403    404  1      5
   393    392    404  1      5
   393    404    405  1      5
   394    393    405  1      5
   395    394    405  1      5
   395    405    406  1      5
   396    395    406  1      5
   396    406    407  1      5
   397    396    407  1      5
   397    407    408  1      5
   398    397    408  1      5
   398    408    409  1      5
   399    398    409  1      5
   399    409    410  1      5
   400    399    410  1      5
   402    401    411  1      5
   402    411    412  1      5
   403    402    412  1      5
   403    412    413  1      5
   404    403    413  1      5
   405    404    413  1      5
   405    413    414  1      5
   406    405    414  1      5
   406    414    415  1      5
   407    406    415  1      5
   407    415    416  1      5
   408    407    416  1      5
   409    408    416  1      5
   409    416    417  1      5
   410    409    417  1      5
   412    411    418  1      5
   412    418    419  1      5
   413    412    419  1      5
   414    413    419  1      5
   414    419    420  1      5
   415    414    420  1      5
   416    415    420  1      5
   416    420    421  1      5
   417    416    421  1      5
   419    418    422  1      5
   420    419    422  1      5
   421    420    422  1      5
   421    422     65  1      5
   421     65     63  1      5
   421     63    417  1      5
   417     63     61  1      5
   417     61    410  1      5
   410     61     59  1      5
   410     59    400  1      5
   400     59     57  1      5
   400     57    388  1      5
   388     57     55  1      5
   388     55    374  1      5
   374     55      3  1      5
   374      3    359  1      5
   359      3    344  1      5
   344      3    103  1      5
   344    103    329  1      5
   329    103    101  1      5
   329    101    315  1      5
   315    101     99  1      5
   315     99    303  1      5
   303     99     97  1      5
   303     97    293  1      5
   293     97     95  1      5
   293     95    286  1      5
   286     95     93  1      5
   286     93    282  1      5
   282     93     91  1      5
   282     91    283  1      5
   283     91     89  1      5
   283     89    287  1      5
   287     89     87  1      5
   287     87    294  1      5
   294     87     85  1      5
   294     85    304  1      5
   304     85     83  1      5
   304     83    316  1      5
   316     83     81  1      5
   316     81    330  1      5
   330     81     79  1      5
   330     79    345  1      5
   345     79    360  1      5
   360     79     77  1      5
   360     77    375  1      5
   375     77     75  1      5
   375     75    389  1      5
   389     75     73  1      5
   389     73    401  1      5
   401     73     71  1      5
   401     71    411  1      5
   411     71     69  1      5
   411     69    418  1      5
   418     69     67  1      5
   418     67    422  1      5
   422     67     65  1      5
