# MSMS solvent excluded surface faces for DA1.xyzr
#faces  #sphere density probe_r
    640       2  2.00  1.00
     1      3      2  3      1
     2      3      4  3      1
     3      5      4  3      1
     4      5      6  3      1
     5      7      6  3      1
     6      7      8  3      1
     7      9      8  3      1
     8      9     10  3      1
     9     11     10  3      1
    10     11     12  3      1
    11     13     12  3      1
    12     13     14  3      1
    13     15     14  3      1
    14     15     16  3      1
    15     17     16  3      1
    16     17     18  3      1
    17     19     18  3      1
    18     19     20  3      1
    19     21     20  3      1
    20     21     22  3      1
    21     23     22  3      1
    22     23     24  3      1
    23     25     24  3      1
    24     25     26  3      1
    25     27     26  3      1
    26     27     28  3      1
    27     29     28  3      1
    28     29     30  3      1
    29     31     30  3      1
    30     31     32  3      1
    31     33     32  3      1
    32     33     34  3      1
    33     35     34  3      1
    34     35     36  3      1
    35     37     36  3      1
    36     37     38  3      1
    37     39     38  3      1
    38     39     40  3      1
    39     41     40  3      1
    40     41     42  3      1
    41     43     42  3      1
    42     43     44  3      1
    43     45     44  3      1
    44     45     46  3      1
    45     47     46  3      1
    46     47     48  3      1
    47     49     48  3      1
    48     49     50  3      1
    49     51     50  3      1
    50     51     52  3      1
    51     53     52  3      1
    52     53     54  3      1
    53     55     54  3      1
    54     55     56  3      1
    55      1     56  3      1
    56      1      2  3      1
    57     59     60  1      2
    57     60     61  1      2
    57     61     58  1      2
    59     63     64  1      2
    60     59     64  1      2
    60     64     65  1      2
    60     65     66  1      2
    61     60     66  1      2
    61     66     67  1      2
    61     67     68  1      2
    58     61     68  1      2
    58     68     62  1      2
    64     63     70  1      2
    64     70     71  1      2
    64     71     72  1      2
    65     64     72  1      2
    65     72     73  1      2
    66     65     73  1      2
    66     73     74  1      2
    67     66     74  1      2
    67     74     75  1      2
    67     75     76  1      2
    68     67     76  1      2
    68     76     77  1      2
    62     68     77  1      2
    62     77     69  1      2
    70     79     80  1      2
    71     70     80  1      2
    71     80     81  1      2
    72     71     81  1      2
    72     81     82  1      2
    73     72     82  1      2
    73     82     83  1      2
    74     73     83  1      2
    74     83     84  1      2
    74     84     85  1      2
    75     74     85  1      2
    75     85     86  1      2
    76     75     86  1      2
    76     86     87  1      2
    77     76     87  1      2
    77     87     88  1      2
    69     77     88  1      2
    69     88     78  1      2
    79     90     91  1      2
    80     79     91  1      2
    80     91     92  1      2
    81     80     92  1      2
    81     92     93  1      2
    82     81     93  1      2
    82     93     94  1      2
    83     82     94  1      2
    83     94     95  1      2
    84     83     95  1      2
    84     95     96  1      2
    84     96     97  1      2
    85     84     97  1      2
    85     97     98  1      2
    86     85     98  1      2
    86     98     99  1      2
    87     86     99  1      2
    87     99    100  1      2
    88     87    100  1      2
    88    100    101  1      2
    78     88    101  1      2
    78    101     89  1      2
    90    103    104  1      2
    91     90    104  1      2
    91    104    105  1      2
    92     91    105  1      2
    92    105    106  1      2
    93     92    106  1      2
    93    106    107  1      2
    94     93    107  1      2
    94    107    108  1      2
    95     94    108  1      2
    95    108    109  1      2
    96     95    109  1      2
    96    109    110  1      2
    97     96    110  1      2
    97    110    111  1      2
    98     97    111  1      2
    98    111    112  1      2
    99     98    112  1      2
    99    112    113  1      2
   100     99    113  1      2
   100    113    114  1      2
   101    100    114  1      2
   101    114    115  1      2
    89    101    115  1      2
    89    115    102  1      2
   103    117    118  1      2
   104    103    118  1      2
   104    118    119  1      2
   105    104    119  1      2
   105    119    120  1      2
   106    105    120  1      2
   106    120    121  1      2
   107    106    121  1      2
   107    121    122  1      2
   108    107    122  1      2
   108    122    123  1      2
   109    108    123  1      2
   109    123    124  1      2
   110    109    124  1      2
   110    124    125  1      2
   111    110    125  1      2
   111    125    126  1      2
   112    111    126  1      2
   112    126    127  1      2
   113    112    127  1      2
   113    127    128  1      2
   114    113    128  1      2
   114    128    129  1      2
   115    114    129  1      2
   115    129    130  1      2
   102    115    130  1      2
   102    130    116  1      2
   118    117    132  1      2
   118    132    133  1      2
   119    118    133  1      2
   119    133    134  1      2
   120    119    134  1      2
   120    134    135  1      2
   121    120    135  1      2
   121    135    136  1      2
   122    121    136  1      2
   122    136    137  1      2
   123    122    137  1      2
   123    137    138  1      2
   124    123    138  1      2
   124    138    139  1      2
   125    124    139  1      2
   125    139    140  1      2
   126    125    140  1      2
   126    140    141  1      2
   127    126    141  1      2
   127    141    142  1      2
   128    127    142  1      2
   128    142    143  1      2
   129    128    143  1      2
   129    143    144  1      2
   130    129    144  1      2
   131    130    144  1      2
   116    130    131  1      2
   133    132    146  1      2
   133    146    147  1      2
   134    133    147  1      2
   134    147    148  1      2
   135    134    148  1      2
   135    148    149  1      2
   136    135    149  1      2
   136    149    150  1      2
   137    136    150  1      2
   137    150    151  1      2
   138    137    151  1      2
   138    151    152  1      2
   139    138    152  1      2
   139    152    153  1      2
   140    139    153  1      2
   140    153    154  1      2
   141    140    154  1      2
   141    154    155  1      2
   142    141    155  1      2
   142    155    156  1      2
   143    142    156  1      2
   143    156    157  1      2
   144    143    157  1      2
   145    144    157  1      2
   131    144    145  1      2
   147    146    159  1      2
   147    159    160  1      2
   148    147    160  1      2
   148    160    161  1      2
   149    148    161  1      2
   149    161    162  1      2
   150    149    162  1      2
   150    162    163  1      2
   151    150    163  1      2
   151    163    164  1      2
   152    151    164  1      2
   153    152    164  1      2
   153    164    165  1      2
   154    153    165  1      2
   154    165    166  1      2
   155    154    166  1      2
   155    166    167  1      2
   156    155    167  1      2
   156    167    168  1      2
   157    156    168  1      2
   158    157    168  1      2
   145    157    158  1      2
   160    159    170  1      2
   160    170    171  1      2
   161    160    171  1      2
   161    171    172  1      2
   162    161    172  1      2
   162    172    173  1      2
   163    162    173  1      2
   163    173    174  1      2
   164    163    174  1      2
   165    164    174  1      2
   165    174    175  1      2
   166    165    175  1      2
   166    175    176  1      2
   167    166    176  1      2
   167    176    177  1      2
   168    167    177  1      2
   169    168    177  1      2
   158    168    169  1      2
   170    179    180  1      2
   171    170    180  1      2
   172    171    180  1      2
   172    180    181  1      2
   173    172    181  1      2
   173    181    182  1      2
   174    173    182  1      2
   174    182    183  1      2
   175    174    183  1      2
   176    175    183  1      2
   176    183    184  1      2
   177    176    184  1      2
   178    177    184  1      2
   169    177    178  1      2
   180    179    186  1      2
   180    186    187  1      2
   181    180    187  1      2
   182    181    187  1      2
   182    187    188  1      2
   183    182    188  1      2
   184    183    188  1      2
   185    184    188  1      2
   178    184    185  1      2
   187    186    189  1      2
   188    187    189  1      2
   185    188    189  1      2
   189    186     15  1      2
   189     15    185  1      2
   185     15     13  1      2
   185     13     11  1      2
   185     11    178  1      2
   178     11    169  1      2
   169     11      9  1      2
   169      9      7  1      2
   169      7    158  1      2
   158      7      5  1      2
   158      5    145  1      2
   145      5    131  1      2
   131      5      3  1      2
   131      3      1  1      2
   131      1    116  1      2
   116      1    102  1      2
   102      1     55  1      2
   102     55     53  1      2
   102     53     89  1      2
    89     53     78  1      2
    78     53     51  1      2
    78     51     49  1      2
    78     49     69  1      2
    69     49     47  1      2
    69     47     62  1      2
    62     47     58  1      2
    58     47     45  1      2
    58     45     43  1      2
    58     43     57  1      2
    57     43     59  1      2
    59     43     41  1      2
    59     41     39  1      2
    59     39     63  1      2
    63     39     37  1      2
    63     37     70  1      2
    70     37     79  1      2
    79     37     35  1      2
    79     35     90  1      2
    90     35     33  1      2
    90     33    103  1      2
   103     33     31  1      2
   103     31    117  1      2
   117     31     29  1      2
   117     29     27  1      2
   117     27    132  1      2
   132     27     25  1      2
   132     25    146  1      2
   146     25     23  1      2
   146     23    159  1      2
   159     23     21  1      2
   159     21    170  1      2
   170     21    179  1      2
   179     21     19  1      2
   179     19    186  1      2
   186     19     17  1      2
   186     17     15  1      2
   190    191    192  1      3
   190    192    193  1      3
   190    193    194  1      3
   192    191    196  1      3
   192    196    197  1      3
   192    197    198  1      3
   193    192    198  1      3
   193    198    199  1      3
   193    199    200  1      3
   194    193    200  1      3
   194    200    201  1      3
   191    195    196  1      3
   196    195    203  1      3
   196    203    204  1      3
   197    196    204  1      3
   197    204    205  1      3
   197    205    206  1      3
   198    197    206  1      3
   198    206    207  1      3
   199    198    207  1      3
   199    207    208  1      3
   200    199    208  1      3
   200    208    209  1      3
   200    209    210  1      3
   201    200    210  1      3
   195    202    203  1      3
   203    202    212  1      3
   203    212    213  1      3
   204    203    213  1      3
   204    213    214  1      3
   205    204    214  1      3
   205    214    215  1      3
   206    205    215  1      3
   206    215    216  1      3
   206    216    217  1      3
   207    206    217  1      3
   207    217    218  1      3
   208    207    218  1      3
   208    218    219  1      3
   209    208    219  1      3
   209    219    220  1      3
   210    209    220  1      3
   210    220    221  1      3
   202    211    212  1      3
   212    211    223  1      3
   212    223    224  1      3
   213    212    224  1      3
   213    224    225  1      3
   214    213    225  1      3
   214    225    226  1      3
   215    214    226  1      3
   215    226    227  1      3
   216    215    227  1      3
   216    227    228  1      3
   216    228    229  1      3
   217    216    229  1      3
   217    229    230  1      3
   218    217    230  1      3
   218    230    231  1      3
   219    218    231  1      3
   219    231    232  1      3
   220    219    232  1      3
   220    232    233  1      3
   221    220    233  1      3
   221    233    234  1      3
   211    222    223  1      3
   223    222    236  1      3
   223    236    237  1      3
   224    223    237  1      3
   224    237    238  1      3
   225    224    238  1      3
   225    238    239  1      3
   226    225    239  1      3
   226    239    240  1      3
   227    226    240  1      3
   227    240    241  1      3
   228    227    241  1      3
   228    241    242  1      3
   229    228    242  1      3
   229    242    243  1      3
   230    229    243  1      3
   230    243    244  1      3
   231    230    244  1      3
   231    244    245  1      3
   232    231    245  1      3
   232    245    246  1      3
   233    232    246  1      3
   233    246    247  1      3
   234    233    247  1      3
   234    247    248  1      3
   222    235    236  1      3
   236    235    250  1      3
   236    250    251  1      3
   237    236    251  1      3
   237    251    252  1      3
   238    237    252  1      3
   238    252    253  1      3
   239    238    253  1      3
   239    253    254  1      3
   240    239    254  1      3
   240    254    255  1      3
   241    240    255  1      3
   241    255    256  1      3
   242    241    256  1      3
   242    256    257  1      3
   243    242    257  1      3
   243    257    258  1      3
   244    243    258  1      3
   244    258    259  1      3
   245    244    259  1      3
   245    259    260  1      3
   246    245    260  1      3
   246    260    261  1      3
   247    246    261  1      3
   247    261    262  1      3
   248    247    262  1      3
   248    262    263  1      3
   235    249    250  1      3
   250    249    264  1      3
   250    264    265  1      3
   251    250    265  1      3
   251    265    266  1      3
   252    251    266  1      3
   252    266    267  1      3
   253    252    267  1      3
   253    267    268  1      3
   254    253    268  1      3
   254    268    269  1      3
   255    254    269  1      3
   255    269    270  1      3
   256    255    270  1      3
   256    270    271  1      3
   257    256    271  1      3
   257    271    272  1      3
   258    257    272  1      3
   258    272    273  1      3
   259    258    273  1      3
   259    273    274  1      3
   260    259    274  1      3
   260    274    275  1      3
   261    260    275  1      3
   261    275    276  1      3
   262    261    276  1      3
   262    276    277  1      3
   263    262    277  1      3
   265    264    278  1      3
   265    278    279  1      3
   266    265    279  1      3
   266    279    280  1      3
   267    266    280  1      3
   267    280    281  1      3
   268    267    281  1      3
   268    281    282  1      3
   269    268    282  1      3
   269    282    283  1      3
   270    269    283  1      3
   270    283    284  1      3
   271    270    284  1      3
   271    284    285  1      3
   272    271    285  1      3
   272    285    286  1      3
   273    272    286  1      3
   273    286    287  1      3
   274    273    287  1      3
   274    287    288  1      3
   275    274    288  1      3
   275    288    289  1      3
   276    275    289  1      3
   276    289    290  1      3
   277    276    290  1      3
   279    278    291  1      3
   279    291    292  1      3
   280    279    292  1      3
   280    292    293  1      3
   281    280    293  1      3
   281    293    294  1      3
   282    281    294  1      3
   282    294    295  1      3
   283    282    295  1      3
   283    295    296  1      3
   284    283    296  1      3
   285    284    296  1      3
   285    296    297  1      3
   286    285    297  1      3
   286    297    298  1      3
   287    286    298  1      3
   287    298    299  1      3
   288    287    299  1      3
   288    299    300  1      3
   289    288    300  1      3
   289    300    301  1      3
   290    289    301  1      3
   292    291    302  1      3
   292    302    303  1      3
   293    292    303  1      3
   293    303    304  1      3
   294    293    304  1      3
   294    304    305  1      3
   295    294    305  1      3
   295    305    306  1      3
   296    295    306  1      3
   297    296    306  1      3
   297    306    307  1      3
   298    297    307  1      3
   298    307    308  1      3
   299    298    308  1      3
   299    308    309  1      3
   300    299    309  1      3
   300    309    310  1      3
   301    300    310  1      3
   303    302    311  1      3
   303    311    312  1      3
   304    303    312  1      3
   304    312    313  1      3
   305    304    313  1      3
   306    305    313  1      3
   306    313    314  1      3
   307    306    314  1      3
   307    314    315  1      3
   308    307    315  1      3
   308    315    316  1      3
   309    308    316  1      3
   310    309    316  1      3
   310    316    317  1      3
   312    311    318  1      3
   312    318    319  1      3
   313    312    319  1      3
   314    313    319  1      3
   314    319    320  1      3
   315    314    320  1      3
   316    315    320  1      3
   316    320    321  1      3
   317    316    321  1      3
   319    318    322  1      3
   320    319    322  1      3
   321    320    322  1      3
   321    322     16  1      3
   321     16     18  1      3
   321     18     20  1      3
   321     20    317  1      3
   317     20     22  1      3
   317     22    310  1      3
   310     22    301  1      3
   301     22     24  1      3
   301     24    290  1      3
   290     24     26  1      3
   290     26    277  1      3
   277     26     28  1      3
   277     28    263  1      3
   263     28     30  1      3
   263     30     32  1      3
   263     32    248  1      3
   248     32     34  1      3
   248     34    234  1      3
   234     34     36  1      3
   234     36    221  1      3
   221     36     38  1      3
   221     38    210  1      3
   210     38    201  1      3
   201     38     40  1      3
   201     40    194  1      3
   194     40     42  1      3
   194     42     44  1      3
   194     44    190  1      3
   190     44    191  1      3
   191     44     46  1      3
   191     46     48  1      3
   191     48    195  1      3
   195     48    202  1      3
   202     48     50  1      3
   202     50     52  1      3
   202     52    211  1      3
   211     52     54  1      3
   211     54    222  1      3
   222     54    235  1      3
   235     54     56  1      3
   235     56      2  1      3
   235      2    249  1      3
   249      2    264  1      3
   264      2      4  1      3
   264      4      6  1      3
   264      6    278  1      3
   278      6    291  1      3
   291      6      8  1      3
   291      8    302  1      3
   302      8     10  1      3
   302     10     12  1      3
   302     12    311  1      3
   311     12    318  1      3
   318     12     14  1      3
   318     14     16  1      3
   318     16    322  1      3
